<svg xmlns="http://www.w3.org/2000/svg" xmlns:rdkit="http://www.rdkit.org/xml" xmlns:xlink="http://www.w3.org/1999/xlink" version="1.1" baseProfile="full" xml:space="preserve" width="600px" height="200px" viewBox="0 0 600 200">
<!-- END OF HEADER -->
<rect style="opacity:1.0;fill:#FFFFFF;stroke:none" width="600.0" height="200.0" x="0.0" y="0.0"> </rect>
<path class="bond-0 atom-0 atom-1" d="M 15.4,78.1 L 22.7,74.2" style="fill:none;fill-rule:evenodd;stroke:#00CC00;stroke-width:2.0px;stroke-linecap:butt;stroke-linejoin:miter;stroke-opacity:1"/>
<path class="bond-0 atom-0 atom-1" d="M 22.7,74.2 L 30.0,70.2" style="fill:none;fill-rule:evenodd;stroke:#000000;stroke-width:2.0px;stroke-linecap:butt;stroke-linejoin:miter;stroke-opacity:1"/>
<path class="bond-1 atom-1 atom-2" d="M 30.0,70.2 L 30.5,52.6" style="fill:none;fill-rule:evenodd;stroke:#000000;stroke-width:2.0px;stroke-linecap:butt;stroke-linejoin:miter;stroke-opacity:1"/>
<path class="bond-1 atom-1 atom-2" d="M 33.6,67.7 L 33.9,55.4" style="fill:none;fill-rule:evenodd;stroke:#000000;stroke-width:2.0px;stroke-linecap:butt;stroke-linejoin:miter;stroke-opacity:1"/>
<path class="bond-2 atom-2 atom-3" d="M 30.5,52.6 L 46.0,44.2" style="fill:none;fill-rule:evenodd;stroke:#000000;stroke-width:2.0px;stroke-linecap:butt;stroke-linejoin:miter;stroke-opacity:1"/>
<path class="bond-3 atom-3 atom-4" d="M 46.0,44.2 L 60.9,53.5" style="fill:none;fill-rule:evenodd;stroke:#000000;stroke-width:2.0px;stroke-linecap:butt;stroke-linejoin:miter;stroke-opacity:1"/>
<path class="bond-3 atom-3 atom-4" d="M 46.4,48.6 L 56.9,55.1" style="fill:none;fill-rule:evenodd;stroke:#000000;stroke-width:2.0px;stroke-linecap:butt;stroke-linejoin:miter;stroke-opacity:1"/>
<path class="bond-4 atom-4 atom-5" d="M 60.9,53.5 L 76.4,45.1" style="fill:none;fill-rule:evenodd;stroke:#000000;stroke-width:2.0px;stroke-linecap:butt;stroke-linejoin:miter;stroke-opacity:1"/>
<path class="bond-5 atom-5 atom-6" d="M 76.4,45.1 L 78.8,27.7" style="fill:none;fill-rule:evenodd;stroke:#000000;stroke-width:2.0px;stroke-linecap:butt;stroke-linejoin:miter;stroke-opacity:1"/>
<path class="bond-5 atom-5 atom-6" d="M 80.3,43.0 L 81.9,30.7" style="fill:none;fill-rule:evenodd;stroke:#000000;stroke-width:2.0px;stroke-linecap:butt;stroke-linejoin:miter;stroke-opacity:1"/>
<path class="bond-6 atom-6 atom-7" d="M 78.8,27.7 L 96.1,24.5" style="fill:none;fill-rule:evenodd;stroke:#000000;stroke-width:2.0px;stroke-linecap:butt;stroke-linejoin:miter;stroke-opacity:1"/>
<path class="bond-7 atom-7 atom-8" d="M 96.1,24.5 L 104.5,40.0" style="fill:none;fill-rule:evenodd;stroke:#000000;stroke-width:2.0px;stroke-linecap:butt;stroke-linejoin:miter;stroke-opacity:1"/>
<path class="bond-7 atom-7 atom-8" d="M 94.2,28.5 L 100.1,39.3" style="fill:none;fill-rule:evenodd;stroke:#000000;stroke-width:2.0px;stroke-linecap:butt;stroke-linejoin:miter;stroke-opacity:1"/>
<path class="bond-8 atom-8 atom-9" d="M 104.5,40.0 L 121.9,42.3" style="fill:none;fill-rule:evenodd;stroke:#000000;stroke-width:2.0px;stroke-linecap:butt;stroke-linejoin:miter;stroke-opacity:1"/>
<path class="bond-9 atom-9 atom-10" d="M 121.9,42.3 L 126.5,37.4" style="fill:none;fill-rule:evenodd;stroke:#000000;stroke-width:2.0px;stroke-linecap:butt;stroke-linejoin:miter;stroke-opacity:1"/>
<path class="bond-9 atom-9 atom-10" d="M 126.5,37.4 L 131.2,32.6" style="fill:none;fill-rule:evenodd;stroke:#FF0000;stroke-width:2.0px;stroke-linecap:butt;stroke-linejoin:miter;stroke-opacity:1"/>
<path class="bond-10 atom-10 atom-11" d="M 136.9,30.9 L 142.2,33.5" style="fill:none;fill-rule:evenodd;stroke:#FF0000;stroke-width:2.0px;stroke-linecap:butt;stroke-linejoin:miter;stroke-opacity:1"/>
<path class="bond-10 atom-10 atom-11" d="M 142.2,33.5 L 147.4,36.0" style="fill:none;fill-rule:evenodd;stroke:#0000FF;stroke-width:2.0px;stroke-linecap:butt;stroke-linejoin:miter;stroke-opacity:1"/>
<path class="bond-11 atom-11 atom-12" d="M 149.5,40.2 L 148.5,47.4" style="fill:none;fill-rule:evenodd;stroke:#0000FF;stroke-width:2.0px;stroke-linecap:butt;stroke-linejoin:miter;stroke-opacity:1"/>
<path class="bond-11 atom-11 atom-12" d="M 148.5,47.4 L 147.6,54.6" style="fill:none;fill-rule:evenodd;stroke:#000000;stroke-width:2.0px;stroke-linecap:butt;stroke-linejoin:miter;stroke-opacity:1"/>
<path class="bond-11 atom-11 atom-12" d="M 145.7,41.9 L 145.1,47.0" style="fill:none;fill-rule:evenodd;stroke:#0000FF;stroke-width:2.0px;stroke-linecap:butt;stroke-linejoin:miter;stroke-opacity:1"/>
<path class="bond-11 atom-11 atom-12" d="M 145.1,47.0 L 144.4,52.0" style="fill:none;fill-rule:evenodd;stroke:#000000;stroke-width:2.0px;stroke-linecap:butt;stroke-linejoin:miter;stroke-opacity:1"/>
<path class="bond-12 atom-12 atom-13" d="M 147.6,54.6 L 160.3,66.8" style="fill:none;fill-rule:evenodd;stroke:#000000;stroke-width:2.0px;stroke-linecap:butt;stroke-linejoin:miter;stroke-opacity:1"/>
<path class="bond-13 atom-13 atom-14" d="M 160.3,66.8 L 156.2,83.9" style="fill:none;fill-rule:evenodd;stroke:#000000;stroke-width:2.0px;stroke-linecap:butt;stroke-linejoin:miter;stroke-opacity:1"/>
<path class="bond-13 atom-13 atom-14" d="M 163.1,70.1 L 160.2,82.1" style="fill:none;fill-rule:evenodd;stroke:#000000;stroke-width:2.0px;stroke-linecap:butt;stroke-linejoin:miter;stroke-opacity:1"/>
<path class="bond-14 atom-14 atom-15" d="M 156.2,83.9 L 168.9,96.0" style="fill:none;fill-rule:evenodd;stroke:#000000;stroke-width:2.0px;stroke-linecap:butt;stroke-linejoin:miter;stroke-opacity:1"/>
<path class="bond-15 atom-15 atom-16" d="M 168.9,96.0 L 185.8,91.0" style="fill:none;fill-rule:evenodd;stroke:#000000;stroke-width:2.0px;stroke-linecap:butt;stroke-linejoin:miter;stroke-opacity:1"/>
<path class="bond-15 atom-15 atom-16" d="M 170.5,91.9 L 182.3,88.4" style="fill:none;fill-rule:evenodd;stroke:#000000;stroke-width:2.0px;stroke-linecap:butt;stroke-linejoin:miter;stroke-opacity:1"/>
<path class="bond-16 atom-16 atom-17" d="M 185.8,91.0 L 190.0,73.9" style="fill:none;fill-rule:evenodd;stroke:#000000;stroke-width:2.0px;stroke-linecap:butt;stroke-linejoin:miter;stroke-opacity:1"/>
<path class="bond-17 atom-17 atom-18" d="M 190.0,73.9 L 177.2,61.8" style="fill:none;fill-rule:evenodd;stroke:#000000;stroke-width:2.0px;stroke-linecap:butt;stroke-linejoin:miter;stroke-opacity:1"/>
<path class="bond-17 atom-17 atom-18" d="M 185.6,74.7 L 176.7,66.2" style="fill:none;fill-rule:evenodd;stroke:#000000;stroke-width:2.0px;stroke-linecap:butt;stroke-linejoin:miter;stroke-opacity:1"/>
<path class="bond-18 atom-12 atom-19" d="M 147.6,54.6 L 140.2,56.0" style="fill:none;fill-rule:evenodd;stroke:#000000;stroke-width:2.0px;stroke-linecap:butt;stroke-linejoin:miter;stroke-opacity:1"/>
<path class="bond-18 atom-12 atom-19" d="M 140.2,56.0 L 132.7,57.3" style="fill:none;fill-rule:evenodd;stroke:#0000FF;stroke-width:2.0px;stroke-linecap:butt;stroke-linejoin:miter;stroke-opacity:1"/>
<path class="bond-19 atom-19 atom-20" d="M 128.8,60.9 L 125.7,67.3" style="fill:none;fill-rule:evenodd;stroke:#0000FF;stroke-width:2.0px;stroke-linecap:butt;stroke-linejoin:miter;stroke-opacity:1"/>
<path class="bond-19 atom-19 atom-20" d="M 125.7,67.3 L 122.7,73.7" style="fill:none;fill-rule:evenodd;stroke:#000000;stroke-width:2.0px;stroke-linecap:butt;stroke-linejoin:miter;stroke-opacity:1"/>
<path class="bond-20 atom-20 atom-21" d="M 122.7,73.7 L 105.1,75.0" style="fill:none;fill-rule:evenodd;stroke:#000000;stroke-width:2.0px;stroke-linecap:butt;stroke-linejoin:miter;stroke-opacity:1"/>
<path class="bond-20 atom-20 atom-21" d="M 120.3,77.4 L 108.0,78.3" style="fill:none;fill-rule:evenodd;stroke:#000000;stroke-width:2.0px;stroke-linecap:butt;stroke-linejoin:miter;stroke-opacity:1"/>
<path class="bond-21 atom-21 atom-22" d="M 105.1,75.0 L 97.5,90.9" style="fill:none;fill-rule:evenodd;stroke:#000000;stroke-width:2.0px;stroke-linecap:butt;stroke-linejoin:miter;stroke-opacity:1"/>
<path class="bond-22 atom-22 atom-23" d="M 97.5,90.9 L 107.4,105.4" style="fill:none;fill-rule:evenodd;stroke:#000000;stroke-width:2.0px;stroke-linecap:butt;stroke-linejoin:miter;stroke-opacity:1"/>
<path class="bond-22 atom-22 atom-23" d="M 101.9,91.1 L 108.9,101.2" style="fill:none;fill-rule:evenodd;stroke:#000000;stroke-width:2.0px;stroke-linecap:butt;stroke-linejoin:miter;stroke-opacity:1"/>
<path class="bond-23 atom-23 atom-24" d="M 107.4,105.4 L 104.4,111.8" style="fill:none;fill-rule:evenodd;stroke:#000000;stroke-width:2.0px;stroke-linecap:butt;stroke-linejoin:miter;stroke-opacity:1"/>
<path class="bond-23 atom-23 atom-24" d="M 104.4,111.8 L 101.3,118.2" style="fill:none;fill-rule:evenodd;stroke:#0000FF;stroke-width:2.0px;stroke-linecap:butt;stroke-linejoin:miter;stroke-opacity:1"/>
<path class="bond-24 atom-24 atom-25" d="M 97.4,121.5 L 89.8,122.0" style="fill:none;fill-rule:evenodd;stroke:#0000FF;stroke-width:2.0px;stroke-linecap:butt;stroke-linejoin:miter;stroke-opacity:1"/>
<path class="bond-24 atom-24 atom-25" d="M 89.8,122.0 L 82.3,122.6" style="fill:none;fill-rule:evenodd;stroke:#000000;stroke-width:2.0px;stroke-linecap:butt;stroke-linejoin:miter;stroke-opacity:1"/>
<path class="bond-25 atom-25 atom-26" d="M 82.3,122.6 L 74.7,138.5" style="fill:none;fill-rule:evenodd;stroke:#000000;stroke-width:2.0px;stroke-linecap:butt;stroke-linejoin:miter;stroke-opacity:1"/>
<path class="bond-26 atom-26 atom-27" d="M 74.7,138.5 L 78.6,144.2" style="fill:none;fill-rule:evenodd;stroke:#000000;stroke-width:2.0px;stroke-linecap:butt;stroke-linejoin:miter;stroke-opacity:1"/>
<path class="bond-26 atom-26 atom-27" d="M 78.6,144.2 L 82.5,150.0" style="fill:none;fill-rule:evenodd;stroke:#0000FF;stroke-width:2.0px;stroke-linecap:butt;stroke-linejoin:miter;stroke-opacity:1"/>
<path class="bond-27 atom-27 atom-28" d="M 87.1,152.8 L 94.6,152.3" style="fill:none;fill-rule:evenodd;stroke:#0000FF;stroke-width:2.0px;stroke-linecap:butt;stroke-linejoin:miter;stroke-opacity:1"/>
<path class="bond-27 atom-27 atom-28" d="M 94.6,152.3 L 102.2,151.7" style="fill:none;fill-rule:evenodd;stroke:#000000;stroke-width:2.0px;stroke-linecap:butt;stroke-linejoin:miter;stroke-opacity:1"/>
<path class="bond-28 atom-28 atom-29" d="M 102.2,151.7 L 109.8,135.8" style="fill:none;fill-rule:evenodd;stroke:#000000;stroke-width:2.0px;stroke-linecap:butt;stroke-linejoin:miter;stroke-opacity:1"/>
<path class="bond-29 atom-23 atom-30" d="M 107.4,105.4 L 125.0,104.1" style="fill:none;fill-rule:evenodd;stroke:#000000;stroke-width:2.0px;stroke-linecap:butt;stroke-linejoin:miter;stroke-opacity:1"/>
<path class="bond-30 atom-30 atom-31" d="M 125.0,104.1 L 132.6,88.2" style="fill:none;fill-rule:evenodd;stroke:#000000;stroke-width:2.0px;stroke-linecap:butt;stroke-linejoin:miter;stroke-opacity:1"/>
<path class="bond-30 atom-30 atom-31" d="M 123.0,100.2 L 128.3,89.0" style="fill:none;fill-rule:evenodd;stroke:#000000;stroke-width:2.0px;stroke-linecap:butt;stroke-linejoin:miter;stroke-opacity:1"/>
<path class="bond-31 atom-8 atom-32" d="M 104.5,40.0 L 99.8,44.8" style="fill:none;fill-rule:evenodd;stroke:#000000;stroke-width:2.0px;stroke-linecap:butt;stroke-linejoin:miter;stroke-opacity:1"/>
<path class="bond-31 atom-8 atom-32" d="M 99.8,44.8 L 95.2,49.7" style="fill:none;fill-rule:evenodd;stroke:#FF0000;stroke-width:2.0px;stroke-linecap:butt;stroke-linejoin:miter;stroke-opacity:1"/>
<path class="bond-32 atom-4 atom-33" d="M 60.9,53.5 L 60.5,71.1" style="fill:none;fill-rule:evenodd;stroke:#000000;stroke-width:2.0px;stroke-linecap:butt;stroke-linejoin:miter;stroke-opacity:1"/>
<path class="bond-33 atom-33 atom-34" d="M 60.5,71.1 L 45.0,79.4" style="fill:none;fill-rule:evenodd;stroke:#000000;stroke-width:2.0px;stroke-linecap:butt;stroke-linejoin:miter;stroke-opacity:1"/>
<path class="bond-33 atom-33 atom-34" d="M 56.5,69.2 L 45.6,75.1" style="fill:none;fill-rule:evenodd;stroke:#000000;stroke-width:2.0px;stroke-linecap:butt;stroke-linejoin:miter;stroke-opacity:1"/>
<path class="bond-34 atom-34 atom-1" d="M 45.0,79.4 L 30.0,70.2" style="fill:none;fill-rule:evenodd;stroke:#000000;stroke-width:2.0px;stroke-linecap:butt;stroke-linejoin:miter;stroke-opacity:1"/>
<path class="bond-35 atom-32 atom-5" d="M 89.4,51.3 L 82.9,48.2" style="fill:none;fill-rule:evenodd;stroke:#FF0000;stroke-width:2.0px;stroke-linecap:butt;stroke-linejoin:miter;stroke-opacity:1"/>
<path class="bond-35 atom-32 atom-5" d="M 82.9,48.2 L 76.4,45.1" style="fill:none;fill-rule:evenodd;stroke:#000000;stroke-width:2.0px;stroke-linecap:butt;stroke-linejoin:miter;stroke-opacity:1"/>
<path class="bond-36 atom-19 atom-9" d="M 128.6,54.7 L 125.3,48.5" style="fill:none;fill-rule:evenodd;stroke:#0000FF;stroke-width:2.0px;stroke-linecap:butt;stroke-linejoin:miter;stroke-opacity:1"/>
<path class="bond-36 atom-19 atom-9" d="M 125.3,48.5 L 121.9,42.3" style="fill:none;fill-rule:evenodd;stroke:#000000;stroke-width:2.0px;stroke-linecap:butt;stroke-linejoin:miter;stroke-opacity:1"/>
<path class="bond-37 atom-31 atom-20" d="M 132.6,88.2 L 122.7,73.7" style="fill:none;fill-rule:evenodd;stroke:#000000;stroke-width:2.0px;stroke-linecap:butt;stroke-linejoin:miter;stroke-opacity:1"/>
<path class="bond-38 atom-18 atom-13" d="M 177.2,61.8 L 160.3,66.8" style="fill:none;fill-rule:evenodd;stroke:#000000;stroke-width:2.0px;stroke-linecap:butt;stroke-linejoin:miter;stroke-opacity:1"/>
<path class="bond-39 atom-29 atom-24" d="M 109.8,135.8 L 105.9,130.1" style="fill:none;fill-rule:evenodd;stroke:#000000;stroke-width:2.0px;stroke-linecap:butt;stroke-linejoin:miter;stroke-opacity:1"/>
<path class="bond-39 atom-29 atom-24" d="M 105.9,130.1 L 101.9,124.4" style="fill:none;fill-rule:evenodd;stroke:#0000FF;stroke-width:2.0px;stroke-linecap:butt;stroke-linejoin:miter;stroke-opacity:1"/>
<path class="atom-0" d="M 10.0 78.8 Q 10.0 77.5, 10.6 76.9 Q 11.2 76.2, 12.3 76.2 Q 13.3 76.2, 13.9 76.9 L 13.4 77.3 Q 13.0 76.8, 12.3 76.8 Q 11.6 76.8, 11.1 77.3 Q 10.8 77.8, 10.8 78.8 Q 10.8 79.7, 11.2 80.2 Q 11.6 80.8, 12.4 80.8 Q 12.9 80.8, 13.6 80.4 L 13.8 80.9 Q 13.5 81.1, 13.1 81.2 Q 12.7 81.3, 12.3 81.3 Q 11.2 81.3, 10.6 80.7 Q 10.0 80.0, 10.0 78.8 " fill="#00CC00"/>
<path class="atom-0" d="M 14.2 75.9 L 14.8 75.9 L 14.8 81.3 L 14.2 81.3 L 14.2 75.9 " fill="#00CC00"/>
<path class="atom-10" d="M 131.8 29.6 Q 131.8 28.4, 132.3 27.7 Q 132.9 27.0, 134.0 27.0 Q 135.1 27.0, 135.7 27.7 Q 136.3 28.4, 136.3 29.6 Q 136.3 30.8, 135.7 31.5 Q 135.1 32.1, 134.0 32.1 Q 132.9 32.1, 132.3 31.5 Q 131.8 30.8, 131.8 29.6 M 134.0 31.6 Q 134.8 31.6, 135.2 31.1 Q 135.6 30.6, 135.6 29.6 Q 135.6 28.6, 135.2 28.1 Q 134.8 27.6, 134.0 27.6 Q 133.3 27.6, 132.9 28.1 Q 132.5 28.6, 132.5 29.6 Q 132.5 30.6, 132.9 31.1 Q 133.3 31.6, 134.0 31.6 " fill="#FF0000"/>
<path class="atom-11" d="M 148.8 34.7 L 150.4 37.3 Q 150.6 37.6, 150.9 38.0 Q 151.1 38.5, 151.1 38.5 L 151.1 34.7 L 151.8 34.7 L 151.8 39.7 L 151.1 39.7 L 149.4 36.8 Q 149.2 36.4, 148.9 36.0 Q 148.7 35.7, 148.7 35.5 L 148.7 39.7 L 148.0 39.7 L 148.0 34.7 L 148.8 34.7 " fill="#0000FF"/>
<path class="atom-19" d="M 129.2 55.3 L 130.8 57.9 Q 131.0 58.2, 131.2 58.7 Q 131.5 59.1, 131.5 59.2 L 131.5 55.3 L 132.2 55.3 L 132.2 60.3 L 131.5 60.3 L 129.7 57.4 Q 129.5 57.1, 129.3 56.7 Q 129.1 56.3, 129.0 56.2 L 129.0 60.3 L 128.4 60.3 L 128.4 55.3 L 129.2 55.3 " fill="#0000FF"/>
<path class="atom-24" d="M 98.7 118.8 L 100.4 121.4 Q 100.5 121.7, 100.8 122.2 Q 101.0 122.6, 101.1 122.7 L 101.1 118.8 L 101.7 118.8 L 101.7 123.8 L 101.0 123.8 L 99.3 120.9 Q 99.1 120.5, 98.9 120.2 Q 98.7 119.8, 98.6 119.7 L 98.6 123.8 L 97.9 123.8 L 97.9 118.8 L 98.7 118.8 " fill="#0000FF"/>
<path class="atom-27" d="M 78.2 150.5 L 78.9 150.5 L 78.9 152.7 L 81.4 152.7 L 81.4 150.5 L 82.1 150.5 L 82.1 155.5 L 81.4 155.5 L 81.4 153.2 L 78.9 153.2 L 78.9 155.5 L 78.2 155.5 L 78.2 150.5 " fill="#0000FF"/>
<path class="atom-27" d="M 83.5 150.5 L 85.1 153.2 Q 85.3 153.4, 85.6 153.9 Q 85.8 154.4, 85.8 154.4 L 85.8 150.5 L 86.5 150.5 L 86.5 155.5 L 85.8 155.5 L 84.1 152.6 Q 83.9 152.3, 83.6 151.9 Q 83.4 151.5, 83.4 151.4 L 83.4 155.5 L 82.7 155.5 L 82.7 150.5 L 83.5 150.5 " fill="#0000FF"/>
<path class="atom-32" d="M 90.0 52.7 Q 90.0 51.5, 90.6 50.9 Q 91.2 50.2, 92.3 50.2 Q 93.4 50.2, 94.0 50.9 Q 94.6 51.5, 94.6 52.7 Q 94.6 53.9, 94.0 54.6 Q 93.4 55.3, 92.3 55.3 Q 91.2 55.3, 90.6 54.6 Q 90.0 53.9, 90.0 52.7 M 92.3 54.7 Q 93.1 54.7, 93.5 54.2 Q 93.9 53.7, 93.9 52.7 Q 93.9 51.7, 93.5 51.3 Q 93.1 50.8, 92.3 50.8 Q 91.5 50.8, 91.1 51.2 Q 90.7 51.7, 90.7 52.7 Q 90.7 53.7, 91.1 54.2 Q 91.5 54.7, 92.3 54.7 " fill="#FF0000"/>
<path class="legend" d="M 93.6 186.5 Q 95.0 186.5, 95.7 187.3 Q 96.4 188.0, 96.4 189.4 L 96.4 194.9 L 94.9 194.9 L 94.9 189.5 Q 94.9 188.6, 94.5 188.1 Q 94.2 187.7, 93.3 187.7 Q 92.6 187.7, 92.0 188.0 Q 91.4 188.4, 91.0 189.0 Q 91.0 189.1, 91.0 189.4 L 91.0 194.9 L 89.5 194.9 L 89.5 189.5 Q 89.5 188.6, 89.1 188.1 Q 88.8 187.7, 87.9 187.7 Q 87.2 187.7, 86.6 188.0 Q 86.0 188.4, 85.6 189.0 L 85.6 194.9 L 84.1 194.9 L 84.1 186.6 L 85.4 186.6 L 85.5 187.8 Q 86.6 186.5, 88.2 186.5 Q 90.2 186.5, 90.8 187.9 Q 91.9 186.5, 93.6 186.5 " fill="#000000"/>
<path class="legend" d="M 97.7 190.7 Q 97.7 188.7, 98.7 187.6 Q 99.7 186.5, 101.6 186.5 Q 103.4 186.5, 104.4 187.6 Q 105.5 188.7, 105.5 190.7 Q 105.5 192.7, 104.4 193.9 Q 103.4 195.0, 101.6 195.0 Q 99.7 195.0, 98.7 193.9 Q 97.7 192.7, 97.7 190.7 M 99.2 190.7 Q 99.2 192.2, 99.8 193.0 Q 100.4 193.8, 101.6 193.8 Q 102.7 193.8, 103.3 193.0 Q 103.9 192.2, 103.9 190.7 Q 103.9 189.2, 103.3 188.5 Q 102.7 187.7, 101.6 187.7 Q 100.4 187.7, 99.8 188.5 Q 99.2 189.2, 99.2 190.7 " fill="#000000"/>
<path class="legend" d="M 106.2 182.7 L 107.7 182.7 L 107.7 194.9 L 106.2 194.9 L 106.2 182.7 " fill="#000000"/>
<path class="legend" d="M 109.7 193.6 L 112.2 193.6 L 112.2 185.1 L 109.4 186.0 L 109.0 185.0 L 112.5 183.5 L 113.7 183.7 L 113.7 193.6 L 115.9 193.6 L 115.9 194.9 L 109.7 194.9 L 109.7 193.6 " fill="#000000"/>
<path class="bond-0 atom-0 atom-1" d="M 214.4,78.1 L 221.7,74.2" style="fill:none;fill-rule:evenodd;stroke:#00CC00;stroke-width:2.0px;stroke-linecap:butt;stroke-linejoin:miter;stroke-opacity:1"/>
<path class="bond-0 atom-0 atom-1" d="M 221.7,74.2 L 229.0,70.2" style="fill:none;fill-rule:evenodd;stroke:#000000;stroke-width:2.0px;stroke-linecap:butt;stroke-linejoin:miter;stroke-opacity:1"/>
<path class="bond-1 atom-1 atom-2" d="M 229.0,70.2 L 229.5,52.6" style="fill:none;fill-rule:evenodd;stroke:#000000;stroke-width:2.0px;stroke-linecap:butt;stroke-linejoin:miter;stroke-opacity:1"/>
<path class="bond-1 atom-1 atom-2" d="M 232.6,67.7 L 233.0,55.4" style="fill:none;fill-rule:evenodd;stroke:#000000;stroke-width:2.0px;stroke-linecap:butt;stroke-linejoin:miter;stroke-opacity:1"/>
<path class="bond-2 atom-2 atom-3" d="M 229.5,52.6 L 245.0,44.2" style="fill:none;fill-rule:evenodd;stroke:#000000;stroke-width:2.0px;stroke-linecap:butt;stroke-linejoin:miter;stroke-opacity:1"/>
<path class="bond-3 atom-3 atom-4" d="M 245.0,44.2 L 260.0,53.5" style="fill:none;fill-rule:evenodd;stroke:#000000;stroke-width:2.0px;stroke-linecap:butt;stroke-linejoin:miter;stroke-opacity:1"/>
<path class="bond-3 atom-3 atom-4" d="M 245.4,48.6 L 255.9,55.1" style="fill:none;fill-rule:evenodd;stroke:#000000;stroke-width:2.0px;stroke-linecap:butt;stroke-linejoin:miter;stroke-opacity:1"/>
<path class="bond-4 atom-4 atom-5" d="M 260.0,53.5 L 275.5,45.1" style="fill:none;fill-rule:evenodd;stroke:#000000;stroke-width:2.0px;stroke-linecap:butt;stroke-linejoin:miter;stroke-opacity:1"/>
<path class="bond-5 atom-5 atom-6" d="M 275.5,45.1 L 277.8,27.7" style="fill:none;fill-rule:evenodd;stroke:#000000;stroke-width:2.0px;stroke-linecap:butt;stroke-linejoin:miter;stroke-opacity:1"/>
<path class="bond-5 atom-5 atom-6" d="M 279.3,43.0 L 281.0,30.7" style="fill:none;fill-rule:evenodd;stroke:#000000;stroke-width:2.0px;stroke-linecap:butt;stroke-linejoin:miter;stroke-opacity:1"/>
<path class="bond-6 atom-6 atom-7" d="M 277.8,27.7 L 295.1,24.5" style="fill:none;fill-rule:evenodd;stroke:#000000;stroke-width:2.0px;stroke-linecap:butt;stroke-linejoin:miter;stroke-opacity:1"/>
<path class="bond-7 atom-7 atom-8" d="M 295.1,24.5 L 303.5,40.0" style="fill:none;fill-rule:evenodd;stroke:#000000;stroke-width:2.0px;stroke-linecap:butt;stroke-linejoin:miter;stroke-opacity:1"/>
<path class="bond-7 atom-7 atom-8" d="M 293.3,28.5 L 299.2,39.3" style="fill:none;fill-rule:evenodd;stroke:#000000;stroke-width:2.0px;stroke-linecap:butt;stroke-linejoin:miter;stroke-opacity:1"/>
<path class="bond-8 atom-8 atom-9" d="M 303.5,40.0 L 321.0,42.3" style="fill:none;fill-rule:evenodd;stroke:#000000;stroke-width:2.0px;stroke-linecap:butt;stroke-linejoin:miter;stroke-opacity:1"/>
<path class="bond-9 atom-9 atom-10" d="M 321.0,42.3 L 325.8,37.2" style="fill:none;fill-rule:evenodd;stroke:#000000;stroke-width:2.0px;stroke-linecap:butt;stroke-linejoin:miter;stroke-opacity:1"/>
<path class="bond-9 atom-9 atom-10" d="M 325.8,37.2 L 330.6,32.1" style="fill:none;fill-rule:evenodd;stroke:#0000FF;stroke-width:2.0px;stroke-linecap:butt;stroke-linejoin:miter;stroke-opacity:1"/>
<path class="bond-9 atom-9 atom-10" d="M 325.0,43.2 L 328.3,39.6" style="fill:none;fill-rule:evenodd;stroke:#000000;stroke-width:2.0px;stroke-linecap:butt;stroke-linejoin:miter;stroke-opacity:1"/>
<path class="bond-9 atom-9 atom-10" d="M 328.3,39.6 L 331.7,36.1" style="fill:none;fill-rule:evenodd;stroke:#0000FF;stroke-width:2.0px;stroke-linecap:butt;stroke-linejoin:miter;stroke-opacity:1"/>
<path class="bond-10 atom-10 atom-11" d="M 335.6,30.7 L 340.8,33.3" style="fill:none;fill-rule:evenodd;stroke:#0000FF;stroke-width:2.0px;stroke-linecap:butt;stroke-linejoin:miter;stroke-opacity:1"/>
<path class="bond-10 atom-10 atom-11" d="M 340.8,33.3 L 346.1,35.8" style="fill:none;fill-rule:evenodd;stroke:#FF0000;stroke-width:2.0px;stroke-linecap:butt;stroke-linejoin:miter;stroke-opacity:1"/>
<path class="bond-11 atom-11 atom-12" d="M 348.5,40.3 L 347.6,47.5" style="fill:none;fill-rule:evenodd;stroke:#FF0000;stroke-width:2.0px;stroke-linecap:butt;stroke-linejoin:miter;stroke-opacity:1"/>
<path class="bond-11 atom-11 atom-12" d="M 347.6,47.5 L 346.6,54.6" style="fill:none;fill-rule:evenodd;stroke:#000000;stroke-width:2.0px;stroke-linecap:butt;stroke-linejoin:miter;stroke-opacity:1"/>
<path class="bond-12 atom-12 atom-13" d="M 346.6,54.6 L 359.4,66.8" style="fill:none;fill-rule:evenodd;stroke:#000000;stroke-width:2.0px;stroke-linecap:butt;stroke-linejoin:miter;stroke-opacity:1"/>
<path class="bond-13 atom-13 atom-14" d="M 359.4,66.8 L 355.2,83.9" style="fill:none;fill-rule:evenodd;stroke:#000000;stroke-width:2.0px;stroke-linecap:butt;stroke-linejoin:miter;stroke-opacity:1"/>
<path class="bond-13 atom-13 atom-14" d="M 362.2,70.1 L 359.3,82.1" style="fill:none;fill-rule:evenodd;stroke:#000000;stroke-width:2.0px;stroke-linecap:butt;stroke-linejoin:miter;stroke-opacity:1"/>
<path class="bond-14 atom-14 atom-15" d="M 355.2,83.9 L 368.0,96.0" style="fill:none;fill-rule:evenodd;stroke:#000000;stroke-width:2.0px;stroke-linecap:butt;stroke-linejoin:miter;stroke-opacity:1"/>
<path class="bond-15 atom-15 atom-16" d="M 368.0,96.0 L 384.9,91.0" style="fill:none;fill-rule:evenodd;stroke:#000000;stroke-width:2.0px;stroke-linecap:butt;stroke-linejoin:miter;stroke-opacity:1"/>
<path class="bond-15 atom-15 atom-16" d="M 369.5,91.9 L 381.3,88.4" style="fill:none;fill-rule:evenodd;stroke:#000000;stroke-width:2.0px;stroke-linecap:butt;stroke-linejoin:miter;stroke-opacity:1"/>
<path class="bond-16 atom-16 atom-17" d="M 384.9,91.0 L 386.6,84.0" style="fill:none;fill-rule:evenodd;stroke:#000000;stroke-width:2.0px;stroke-linecap:butt;stroke-linejoin:miter;stroke-opacity:1"/>
<path class="bond-16 atom-16 atom-17" d="M 386.6,84.0 L 388.3,77.0" style="fill:none;fill-rule:evenodd;stroke:#0000FF;stroke-width:2.0px;stroke-linecap:butt;stroke-linejoin:miter;stroke-opacity:1"/>
<path class="bond-17 atom-17 atom-18" d="M 386.5,71.6 L 381.4,66.7" style="fill:none;fill-rule:evenodd;stroke:#0000FF;stroke-width:2.0px;stroke-linecap:butt;stroke-linejoin:miter;stroke-opacity:1"/>
<path class="bond-17 atom-17 atom-18" d="M 381.4,66.7 L 376.3,61.8" style="fill:none;fill-rule:evenodd;stroke:#000000;stroke-width:2.0px;stroke-linecap:butt;stroke-linejoin:miter;stroke-opacity:1"/>
<path class="bond-17 atom-17 atom-18" d="M 382.6,72.7 L 379.0,69.2" style="fill:none;fill-rule:evenodd;stroke:#0000FF;stroke-width:2.0px;stroke-linecap:butt;stroke-linejoin:miter;stroke-opacity:1"/>
<path class="bond-17 atom-17 atom-18" d="M 379.0,69.2 L 375.4,65.8" style="fill:none;fill-rule:evenodd;stroke:#000000;stroke-width:2.0px;stroke-linecap:butt;stroke-linejoin:miter;stroke-opacity:1"/>
<path class="bond-18 atom-12 atom-19" d="M 346.6,54.6 L 339.2,56.0" style="fill:none;fill-rule:evenodd;stroke:#000000;stroke-width:2.0px;stroke-linecap:butt;stroke-linejoin:miter;stroke-opacity:1"/>
<path class="bond-18 atom-12 atom-19" d="M 339.2,56.0 L 331.8,57.3" style="fill:none;fill-rule:evenodd;stroke:#0000FF;stroke-width:2.0px;stroke-linecap:butt;stroke-linejoin:miter;stroke-opacity:1"/>
<path class="bond-19 atom-19 atom-20" d="M 327.8,60.9 L 324.8,67.3" style="fill:none;fill-rule:evenodd;stroke:#0000FF;stroke-width:2.0px;stroke-linecap:butt;stroke-linejoin:miter;stroke-opacity:1"/>
<path class="bond-19 atom-19 atom-20" d="M 324.8,67.3 L 321.7,73.7" style="fill:none;fill-rule:evenodd;stroke:#000000;stroke-width:2.0px;stroke-linecap:butt;stroke-linejoin:miter;stroke-opacity:1"/>
<path class="bond-20 atom-20 atom-21" d="M 321.7,73.7 L 304.2,75.0" style="fill:none;fill-rule:evenodd;stroke:#000000;stroke-width:2.0px;stroke-linecap:butt;stroke-linejoin:miter;stroke-opacity:1"/>
<path class="bond-20 atom-20 atom-21" d="M 319.4,77.4 L 307.1,78.3" style="fill:none;fill-rule:evenodd;stroke:#000000;stroke-width:2.0px;stroke-linecap:butt;stroke-linejoin:miter;stroke-opacity:1"/>
<path class="bond-21 atom-21 atom-22" d="M 304.2,75.0 L 296.6,90.9" style="fill:none;fill-rule:evenodd;stroke:#000000;stroke-width:2.0px;stroke-linecap:butt;stroke-linejoin:miter;stroke-opacity:1"/>
<path class="bond-22 atom-22 atom-23" d="M 296.6,90.9 L 306.5,105.4" style="fill:none;fill-rule:evenodd;stroke:#000000;stroke-width:2.0px;stroke-linecap:butt;stroke-linejoin:miter;stroke-opacity:1"/>
<path class="bond-22 atom-22 atom-23" d="M 300.9,91.1 L 307.9,101.2" style="fill:none;fill-rule:evenodd;stroke:#000000;stroke-width:2.0px;stroke-linecap:butt;stroke-linejoin:miter;stroke-opacity:1"/>
<path class="bond-23 atom-23 atom-24" d="M 306.5,105.4 L 303.4,111.8" style="fill:none;fill-rule:evenodd;stroke:#000000;stroke-width:2.0px;stroke-linecap:butt;stroke-linejoin:miter;stroke-opacity:1"/>
<path class="bond-23 atom-23 atom-24" d="M 303.4,111.8 L 300.4,118.2" style="fill:none;fill-rule:evenodd;stroke:#0000FF;stroke-width:2.0px;stroke-linecap:butt;stroke-linejoin:miter;stroke-opacity:1"/>
<path class="bond-24 atom-24 atom-25" d="M 296.4,121.5 L 288.9,122.0" style="fill:none;fill-rule:evenodd;stroke:#0000FF;stroke-width:2.0px;stroke-linecap:butt;stroke-linejoin:miter;stroke-opacity:1"/>
<path class="bond-24 atom-24 atom-25" d="M 288.9,122.0 L 281.3,122.6" style="fill:none;fill-rule:evenodd;stroke:#000000;stroke-width:2.0px;stroke-linecap:butt;stroke-linejoin:miter;stroke-opacity:1"/>
<path class="bond-25 atom-25 atom-26" d="M 281.3,122.6 L 273.7,138.5" style="fill:none;fill-rule:evenodd;stroke:#000000;stroke-width:2.0px;stroke-linecap:butt;stroke-linejoin:miter;stroke-opacity:1"/>
<path class="bond-26 atom-26 atom-27" d="M 273.7,138.5 L 277.6,144.2" style="fill:none;fill-rule:evenodd;stroke:#000000;stroke-width:2.0px;stroke-linecap:butt;stroke-linejoin:miter;stroke-opacity:1"/>
<path class="bond-26 atom-26 atom-27" d="M 277.6,144.2 L 281.6,150.0" style="fill:none;fill-rule:evenodd;stroke:#0000FF;stroke-width:2.0px;stroke-linecap:butt;stroke-linejoin:miter;stroke-opacity:1"/>
<path class="bond-27 atom-27 atom-28" d="M 286.1,152.8 L 293.7,152.3" style="fill:none;fill-rule:evenodd;stroke:#0000FF;stroke-width:2.0px;stroke-linecap:butt;stroke-linejoin:miter;stroke-opacity:1"/>
<path class="bond-27 atom-27 atom-28" d="M 293.7,152.3 L 301.2,151.7" style="fill:none;fill-rule:evenodd;stroke:#000000;stroke-width:2.0px;stroke-linecap:butt;stroke-linejoin:miter;stroke-opacity:1"/>
<path class="bond-28 atom-28 atom-29" d="M 301.2,151.7 L 308.8,135.8" style="fill:none;fill-rule:evenodd;stroke:#000000;stroke-width:2.0px;stroke-linecap:butt;stroke-linejoin:miter;stroke-opacity:1"/>
<path class="bond-29 atom-23 atom-30" d="M 306.5,105.4 L 324.0,104.1" style="fill:none;fill-rule:evenodd;stroke:#000000;stroke-width:2.0px;stroke-linecap:butt;stroke-linejoin:miter;stroke-opacity:1"/>
<path class="bond-30 atom-30 atom-31" d="M 324.0,104.1 L 331.7,88.2" style="fill:none;fill-rule:evenodd;stroke:#000000;stroke-width:2.0px;stroke-linecap:butt;stroke-linejoin:miter;stroke-opacity:1"/>
<path class="bond-30 atom-30 atom-31" d="M 322.0,100.2 L 327.3,89.0" style="fill:none;fill-rule:evenodd;stroke:#000000;stroke-width:2.0px;stroke-linecap:butt;stroke-linejoin:miter;stroke-opacity:1"/>
<path class="bond-31 atom-8 atom-32" d="M 303.5,40.0 L 298.9,44.8" style="fill:none;fill-rule:evenodd;stroke:#000000;stroke-width:2.0px;stroke-linecap:butt;stroke-linejoin:miter;stroke-opacity:1"/>
<path class="bond-31 atom-8 atom-32" d="M 298.9,44.8 L 294.2,49.7" style="fill:none;fill-rule:evenodd;stroke:#FF0000;stroke-width:2.0px;stroke-linecap:butt;stroke-linejoin:miter;stroke-opacity:1"/>
<path class="bond-32 atom-4 atom-33" d="M 260.0,53.5 L 259.5,71.1" style="fill:none;fill-rule:evenodd;stroke:#000000;stroke-width:2.0px;stroke-linecap:butt;stroke-linejoin:miter;stroke-opacity:1"/>
<path class="bond-33 atom-33 atom-34" d="M 259.5,71.1 L 244.0,79.4" style="fill:none;fill-rule:evenodd;stroke:#000000;stroke-width:2.0px;stroke-linecap:butt;stroke-linejoin:miter;stroke-opacity:1"/>
<path class="bond-33 atom-33 atom-34" d="M 255.5,69.2 L 244.7,75.1" style="fill:none;fill-rule:evenodd;stroke:#000000;stroke-width:2.0px;stroke-linecap:butt;stroke-linejoin:miter;stroke-opacity:1"/>
<path class="bond-34 atom-34 atom-1" d="M 244.0,79.4 L 229.0,70.2" style="fill:none;fill-rule:evenodd;stroke:#000000;stroke-width:2.0px;stroke-linecap:butt;stroke-linejoin:miter;stroke-opacity:1"/>
<path class="bond-35 atom-32 atom-5" d="M 288.5,51.3 L 282.0,48.2" style="fill:none;fill-rule:evenodd;stroke:#FF0000;stroke-width:2.0px;stroke-linecap:butt;stroke-linejoin:miter;stroke-opacity:1"/>
<path class="bond-35 atom-32 atom-5" d="M 282.0,48.2 L 275.5,45.1" style="fill:none;fill-rule:evenodd;stroke:#000000;stroke-width:2.0px;stroke-linecap:butt;stroke-linejoin:miter;stroke-opacity:1"/>
<path class="bond-36 atom-19 atom-9" d="M 327.7,54.7 L 324.3,48.5" style="fill:none;fill-rule:evenodd;stroke:#0000FF;stroke-width:2.0px;stroke-linecap:butt;stroke-linejoin:miter;stroke-opacity:1"/>
<path class="bond-36 atom-19 atom-9" d="M 324.3,48.5 L 321.0,42.3" style="fill:none;fill-rule:evenodd;stroke:#000000;stroke-width:2.0px;stroke-linecap:butt;stroke-linejoin:miter;stroke-opacity:1"/>
<path class="bond-37 atom-31 atom-20" d="M 331.7,88.2 L 321.7,73.7" style="fill:none;fill-rule:evenodd;stroke:#000000;stroke-width:2.0px;stroke-linecap:butt;stroke-linejoin:miter;stroke-opacity:1"/>
<path class="bond-38 atom-18 atom-13" d="M 376.3,61.8 L 359.4,66.8" style="fill:none;fill-rule:evenodd;stroke:#000000;stroke-width:2.0px;stroke-linecap:butt;stroke-linejoin:miter;stroke-opacity:1"/>
<path class="bond-39 atom-29 atom-24" d="M 308.8,135.8 L 304.9,130.1" style="fill:none;fill-rule:evenodd;stroke:#000000;stroke-width:2.0px;stroke-linecap:butt;stroke-linejoin:miter;stroke-opacity:1"/>
<path class="bond-39 atom-29 atom-24" d="M 304.9,130.1 L 301.0,124.4" style="fill:none;fill-rule:evenodd;stroke:#0000FF;stroke-width:2.0px;stroke-linecap:butt;stroke-linejoin:miter;stroke-opacity:1"/>
<path class="atom-0" d="M 209.1 78.8 Q 209.1 77.5, 209.7 76.9 Q 210.3 76.2, 211.4 76.2 Q 212.4 76.2, 212.9 76.9 L 212.5 77.3 Q 212.1 76.8, 211.4 76.8 Q 210.6 76.8, 210.2 77.3 Q 209.8 77.8, 209.8 78.8 Q 209.8 79.7, 210.2 80.2 Q 210.6 80.8, 211.4 80.8 Q 212.0 80.8, 212.6 80.4 L 212.8 80.9 Q 212.6 81.1, 212.2 81.2 Q 211.8 81.3, 211.3 81.3 Q 210.3 81.3, 209.7 80.7 Q 209.1 80.0, 209.1 78.8 " fill="#00CC00"/>
<path class="atom-0" d="M 213.2 75.9 L 213.9 75.9 L 213.9 81.3 L 213.2 81.3 L 213.2 75.9 " fill="#00CC00"/>
<path class="atom-10" d="M 332.0 27.1 L 333.6 29.7 Q 333.8 30.0, 334.1 30.4 Q 334.3 30.9, 334.3 30.9 L 334.3 27.1 L 335.0 27.1 L 335.0 32.0 L 334.3 32.0 L 332.6 29.2 Q 332.3 28.8, 332.1 28.4 Q 331.9 28.0, 331.9 27.9 L 331.9 32.0 L 331.2 32.0 L 331.2 27.1 L 332.0 27.1 " fill="#0000FF"/>
<path class="atom-11" d="M 346.7 37.2 Q 346.7 36.0, 347.3 35.3 Q 347.9 34.6, 349.0 34.6 Q 350.1 34.6, 350.7 35.3 Q 351.3 36.0, 351.3 37.2 Q 351.3 38.4, 350.7 39.1 Q 350.1 39.8, 349.0 39.8 Q 347.9 39.8, 347.3 39.1 Q 346.7 38.4, 346.7 37.2 M 349.0 39.2 Q 349.7 39.2, 350.1 38.7 Q 350.6 38.2, 350.6 37.2 Q 350.6 36.2, 350.1 35.7 Q 349.7 35.2, 349.0 35.2 Q 348.2 35.2, 347.8 35.7 Q 347.4 36.2, 347.4 37.2 Q 347.4 38.2, 347.8 38.7 Q 348.2 39.2, 349.0 39.2 " fill="#FF0000"/>
<path class="atom-17" d="M 387.9 71.4 L 389.6 74.1 Q 389.7 74.3, 390.0 74.8 Q 390.2 75.3, 390.2 75.3 L 390.2 71.4 L 390.9 71.4 L 390.9 76.4 L 390.2 76.4 L 388.5 73.5 Q 388.3 73.2, 388.1 72.8 Q 387.8 72.4, 387.8 72.3 L 387.8 76.4 L 387.1 76.4 L 387.1 71.4 L 387.9 71.4 " fill="#0000FF"/>
<path class="atom-19" d="M 328.2 55.3 L 329.9 57.9 Q 330.0 58.2, 330.3 58.7 Q 330.5 59.1, 330.6 59.2 L 330.6 55.3 L 331.2 55.3 L 331.2 60.3 L 330.5 60.3 L 328.8 57.4 Q 328.6 57.1, 328.4 56.7 Q 328.1 56.3, 328.1 56.2 L 328.1 60.3 L 327.4 60.3 L 327.4 55.3 L 328.2 55.3 " fill="#0000FF"/>
<path class="atom-24" d="M 297.8 118.8 L 299.4 121.4 Q 299.6 121.7, 299.8 122.2 Q 300.1 122.6, 300.1 122.7 L 300.1 118.8 L 300.8 118.8 L 300.8 123.8 L 300.1 123.8 L 298.3 120.9 Q 298.1 120.5, 297.9 120.2 Q 297.7 119.8, 297.6 119.7 L 297.6 123.8 L 297.0 123.8 L 297.0 118.8 L 297.8 118.8 " fill="#0000FF"/>
<path class="atom-27" d="M 277.3 150.5 L 278.0 150.5 L 278.0 152.7 L 280.5 152.7 L 280.5 150.5 L 281.2 150.5 L 281.2 155.5 L 280.5 155.5 L 280.5 153.2 L 278.0 153.2 L 278.0 155.5 L 277.3 155.5 L 277.3 150.5 " fill="#0000FF"/>
<path class="atom-27" d="M 282.6 150.5 L 284.2 153.2 Q 284.4 153.4, 284.6 153.9 Q 284.9 154.4, 284.9 154.4 L 284.9 150.5 L 285.6 150.5 L 285.6 155.5 L 284.9 155.5 L 283.1 152.6 Q 282.9 152.3, 282.7 151.9 Q 282.5 151.5, 282.4 151.4 L 282.4 155.5 L 281.8 155.5 L 281.8 150.5 L 282.6 150.5 " fill="#0000FF"/>
<path class="atom-32" d="M 289.1 52.7 Q 289.1 51.5, 289.7 50.9 Q 290.3 50.2, 291.4 50.2 Q 292.5 50.2, 293.1 50.9 Q 293.7 51.5, 293.7 52.7 Q 293.7 53.9, 293.1 54.6 Q 292.5 55.3, 291.4 55.3 Q 290.3 55.3, 289.7 54.6 Q 289.1 53.9, 289.1 52.7 M 291.4 54.7 Q 292.1 54.7, 292.5 54.2 Q 292.9 53.7, 292.9 52.7 Q 292.9 51.7, 292.5 51.3 Q 292.1 50.8, 291.4 50.8 Q 290.6 50.8, 290.2 51.2 Q 289.8 51.7, 289.8 52.7 Q 289.8 53.7, 290.2 54.2 Q 290.6 54.7, 291.4 54.7 " fill="#FF0000"/>
<path class="legend" d="M 293.2 186.5 Q 294.6 186.5, 295.3 187.3 Q 296.0 188.0, 296.0 189.4 L 296.0 194.9 L 294.5 194.9 L 294.5 189.5 Q 294.5 188.6, 294.1 188.1 Q 293.8 187.7, 292.9 187.7 Q 292.2 187.7, 291.6 188.0 Q 291.0 188.4, 290.6 189.0 Q 290.6 189.1, 290.6 189.4 L 290.6 194.9 L 289.1 194.9 L 289.1 189.5 Q 289.1 188.6, 288.7 188.1 Q 288.4 187.7, 287.5 187.7 Q 286.8 187.7, 286.2 188.0 Q 285.6 188.4, 285.2 189.0 L 285.2 194.9 L 283.7 194.9 L 283.7 186.6 L 285.0 186.6 L 285.1 187.8 Q 286.2 186.5, 287.8 186.5 Q 289.8 186.5, 290.4 187.9 Q 291.5 186.5, 293.2 186.5 " fill="#000000"/>
<path class="legend" d="M 297.3 190.7 Q 297.3 188.7, 298.3 187.6 Q 299.3 186.5, 301.2 186.5 Q 303.0 186.5, 304.0 187.6 Q 305.1 188.7, 305.1 190.7 Q 305.1 192.7, 304.0 193.9 Q 303.0 195.0, 301.2 195.0 Q 299.3 195.0, 298.3 193.9 Q 297.3 192.7, 297.3 190.7 M 298.8 190.7 Q 298.8 192.2, 299.4 193.0 Q 300.0 193.8, 301.2 193.8 Q 302.3 193.8, 302.9 193.0 Q 303.5 192.2, 303.5 190.7 Q 303.5 189.2, 302.9 188.5 Q 302.3 187.7, 301.2 187.7 Q 300.0 187.7, 299.4 188.5 Q 298.8 189.2, 298.8 190.7 " fill="#000000"/>
<path class="legend" d="M 305.8 182.7 L 307.3 182.7 L 307.3 194.9 L 305.8 194.9 L 305.8 182.7 " fill="#000000"/>
<path class="legend" d="M 308.7 185.7 Q 309.1 184.6, 310.1 184.0 Q 311.1 183.4, 312.5 183.4 Q 314.2 183.4, 315.1 184.3 Q 316.1 185.3, 316.1 186.9 Q 316.1 188.6, 314.8 190.2 Q 313.6 191.7, 311.0 193.6 L 316.3 193.6 L 316.3 194.9 L 308.6 194.9 L 308.6 193.8 Q 310.8 192.3, 312.0 191.2 Q 313.3 190.1, 313.9 189.0 Q 314.5 188.0, 314.5 187.0 Q 314.5 185.9, 313.9 185.3 Q 313.4 184.7, 312.5 184.7 Q 311.5 184.7, 310.9 185.1 Q 310.3 185.4, 309.9 186.2 L 308.7 185.7 " fill="#000000"/>
</svg>