<svg xmlns="http://www.w3.org/2000/svg" xmlns:rdkit="http://www.rdkit.org/xml" xmlns:xlink="http://www.w3.org/1999/xlink" version="1.1" baseProfile="full" xml:space="preserve" width="1400px" height="200px" viewBox="0 0 1400 200">
<!-- END OF HEADER -->
<rect style="opacity:1.0;fill:#FFFFFF;stroke:none" width="1400.0" height="200.0" x="0.0" y="0.0"> </rect>
<path class="bond-0 atom-0 atom-1" d="M 104.1,114.4 L 126.6,94.1" style="fill:none;fill-rule:evenodd;stroke:#000000;stroke-width:2.0px;stroke-linecap:butt;stroke-linejoin:miter;stroke-opacity:1"/>
<path class="bond-1 atom-1 atom-2" d="M 123.7,94.7 L 121.1,82.6" style="fill:none;fill-rule:evenodd;stroke:#000000;stroke-width:2.0px;stroke-linecap:butt;stroke-linejoin:miter;stroke-opacity:1"/>
<path class="bond-1 atom-1 atom-2" d="M 121.1,82.6 L 118.5,70.5" style="fill:none;fill-rule:evenodd;stroke:#FF0000;stroke-width:2.0px;stroke-linecap:butt;stroke-linejoin:miter;stroke-opacity:1"/>
<path class="bond-1 atom-1 atom-2" d="M 129.6,93.4 L 127.0,81.4" style="fill:none;fill-rule:evenodd;stroke:#000000;stroke-width:2.0px;stroke-linecap:butt;stroke-linejoin:miter;stroke-opacity:1"/>
<path class="bond-1 atom-1 atom-2" d="M 127.0,81.4 L 124.4,69.3" style="fill:none;fill-rule:evenodd;stroke:#FF0000;stroke-width:2.0px;stroke-linecap:butt;stroke-linejoin:miter;stroke-opacity:1"/>
<path class="bond-2 atom-1 atom-3" d="M 126.6,94.1 L 138.6,97.9" style="fill:none;fill-rule:evenodd;stroke:#000000;stroke-width:2.0px;stroke-linecap:butt;stroke-linejoin:miter;stroke-opacity:1"/>
<path class="bond-2 atom-1 atom-3" d="M 138.6,97.9 L 150.5,101.8" style="fill:none;fill-rule:evenodd;stroke:#FF0000;stroke-width:2.0px;stroke-linecap:butt;stroke-linejoin:miter;stroke-opacity:1"/>
<path class="bond-3 atom-3 atom-4" d="M 160.4,98.9 L 169.2,91.0" style="fill:none;fill-rule:evenodd;stroke:#FF0000;stroke-width:2.0px;stroke-linecap:butt;stroke-linejoin:miter;stroke-opacity:1"/>
<path class="bond-3 atom-3 atom-4" d="M 169.2,91.0 L 177.9,83.1" style="fill:none;fill-rule:evenodd;stroke:#000000;stroke-width:2.0px;stroke-linecap:butt;stroke-linejoin:miter;stroke-opacity:1"/>
<path class="bond-4 atom-4 atom-5" d="M 177.9,83.1 L 171.6,53.5" style="fill:none;fill-rule:evenodd;stroke:#000000;stroke-width:2.0px;stroke-linecap:butt;stroke-linejoin:miter;stroke-opacity:1"/>
<path class="bond-4 atom-4 atom-5" d="M 182.9,77.4 L 178.5,56.7" style="fill:none;fill-rule:evenodd;stroke:#000000;stroke-width:2.0px;stroke-linecap:butt;stroke-linejoin:miter;stroke-opacity:1"/>
<path class="bond-5 atom-5 atom-6" d="M 171.6,53.5 L 194.1,33.2" style="fill:none;fill-rule:evenodd;stroke:#000000;stroke-width:2.0px;stroke-linecap:butt;stroke-linejoin:miter;stroke-opacity:1"/>
<path class="bond-6 atom-6 atom-7" d="M 194.1,33.2 L 222.9,42.5" style="fill:none;fill-rule:evenodd;stroke:#000000;stroke-width:2.0px;stroke-linecap:butt;stroke-linejoin:miter;stroke-opacity:1"/>
<path class="bond-6 atom-6 atom-7" d="M 196.6,40.3 L 216.7,46.9" style="fill:none;fill-rule:evenodd;stroke:#000000;stroke-width:2.0px;stroke-linecap:butt;stroke-linejoin:miter;stroke-opacity:1"/>
<path class="bond-7 atom-7 atom-8" d="M 222.9,42.5 L 229.3,72.1" style="fill:none;fill-rule:evenodd;stroke:#000000;stroke-width:2.0px;stroke-linecap:butt;stroke-linejoin:miter;stroke-opacity:1"/>
<path class="bond-8 atom-8 atom-9" d="M 229.3,72.1 L 206.8,92.4" style="fill:none;fill-rule:evenodd;stroke:#000000;stroke-width:2.0px;stroke-linecap:butt;stroke-linejoin:miter;stroke-opacity:1"/>
<path class="bond-8 atom-8 atom-9" d="M 221.8,70.7 L 206.1,84.9" style="fill:none;fill-rule:evenodd;stroke:#000000;stroke-width:2.0px;stroke-linecap:butt;stroke-linejoin:miter;stroke-opacity:1"/>
<path class="bond-9 atom-9 atom-10" d="M 206.8,92.4 L 213.1,122.1" style="fill:none;fill-rule:evenodd;stroke:#000000;stroke-width:2.0px;stroke-linecap:butt;stroke-linejoin:miter;stroke-opacity:1"/>
<path class="bond-10 atom-10 atom-11" d="M 214.0,119.2 L 226.0,123.0" style="fill:none;fill-rule:evenodd;stroke:#000000;stroke-width:2.0px;stroke-linecap:butt;stroke-linejoin:miter;stroke-opacity:1"/>
<path class="bond-10 atom-10 atom-11" d="M 226.0,123.0 L 237.9,126.9" style="fill:none;fill-rule:evenodd;stroke:#FF0000;stroke-width:2.0px;stroke-linecap:butt;stroke-linejoin:miter;stroke-opacity:1"/>
<path class="bond-10 atom-10 atom-11" d="M 212.2,124.9 L 224.1,128.8" style="fill:none;fill-rule:evenodd;stroke:#000000;stroke-width:2.0px;stroke-linecap:butt;stroke-linejoin:miter;stroke-opacity:1"/>
<path class="bond-10 atom-10 atom-11" d="M 224.1,128.8 L 236.0,132.7" style="fill:none;fill-rule:evenodd;stroke:#FF0000;stroke-width:2.0px;stroke-linecap:butt;stroke-linejoin:miter;stroke-opacity:1"/>
<path class="bond-11 atom-10 atom-12" d="M 213.1,122.1 L 204.3,130.0" style="fill:none;fill-rule:evenodd;stroke:#000000;stroke-width:2.0px;stroke-linecap:butt;stroke-linejoin:miter;stroke-opacity:1"/>
<path class="bond-11 atom-10 atom-12" d="M 204.3,130.0 L 195.5,137.9" style="fill:none;fill-rule:evenodd;stroke:#FF0000;stroke-width:2.0px;stroke-linecap:butt;stroke-linejoin:miter;stroke-opacity:1"/>
<path class="bond-12 atom-9 atom-4" d="M 206.8,92.4 L 177.9,83.1" style="fill:none;fill-rule:evenodd;stroke:#000000;stroke-width:2.0px;stroke-linecap:butt;stroke-linejoin:miter;stroke-opacity:1"/>
<path class="atom-2" d="M 116.4 64.5 Q 116.4 62.4, 117.4 61.3 Q 118.4 60.1, 120.3 60.1 Q 122.2 60.1, 123.2 61.3 Q 124.2 62.4, 124.2 64.5 Q 124.2 66.6, 123.2 67.7 Q 122.2 68.9, 120.3 68.9 Q 118.4 68.9, 117.4 67.7 Q 116.4 66.6, 116.4 64.5 M 120.3 67.9 Q 121.6 67.9, 122.3 67.1 Q 123.0 66.2, 123.0 64.5 Q 123.0 62.8, 122.3 61.9 Q 121.6 61.1, 120.3 61.1 Q 119.0 61.1, 118.3 61.9 Q 117.6 62.8, 117.6 64.5 Q 117.6 66.2, 118.3 67.1 Q 119.0 67.9, 120.3 67.9 " fill="#FF0000"/>
<path class="atom-3" d="M 151.5 103.4 Q 151.5 101.4, 152.5 100.2 Q 153.6 99.1, 155.5 99.1 Q 157.4 99.1, 158.4 100.2 Q 159.4 101.4, 159.4 103.4 Q 159.4 105.5, 158.4 106.7 Q 157.3 107.9, 155.5 107.9 Q 153.6 107.9, 152.5 106.7 Q 151.5 105.5, 151.5 103.4 M 155.5 106.9 Q 156.8 106.9, 157.5 106.0 Q 158.2 105.1, 158.2 103.4 Q 158.2 101.7, 157.5 100.9 Q 156.8 100.0, 155.5 100.0 Q 154.1 100.0, 153.4 100.9 Q 152.7 101.7, 152.7 103.4 Q 152.7 105.2, 153.4 106.0 Q 154.1 106.9, 155.5 106.9 " fill="#FF0000"/>
<path class="atom-11" d="M 238.0 131.4 Q 238.0 129.3, 239.0 128.2 Q 240.0 127.0, 241.9 127.0 Q 243.8 127.0, 244.8 128.2 Q 245.9 129.3, 245.9 131.4 Q 245.9 133.5, 244.8 134.7 Q 243.8 135.9, 241.9 135.9 Q 240.0 135.9, 239.0 134.7 Q 238.0 133.5, 238.0 131.4 M 241.9 134.9 Q 243.2 134.9, 243.9 134.0 Q 244.6 133.1, 244.6 131.4 Q 244.6 129.7, 243.9 128.9 Q 243.2 128.0, 241.9 128.0 Q 240.6 128.0, 239.9 128.9 Q 239.2 129.7, 239.2 131.4 Q 239.2 133.1, 239.9 134.0 Q 240.6 134.9, 241.9 134.9 " fill="#FF0000"/>
<path class="atom-12" d="M 178.9 138.1 L 180.1 138.1 L 180.1 141.8 L 184.5 141.8 L 184.5 138.1 L 185.6 138.1 L 185.6 146.7 L 184.5 146.7 L 184.5 142.7 L 180.1 142.7 L 180.1 146.7 L 178.9 146.7 L 178.9 138.1 " fill="#FF0000"/>
<path class="atom-12" d="M 186.7 142.4 Q 186.7 140.3, 187.7 139.2 Q 188.7 138.0, 190.6 138.0 Q 192.5 138.0, 193.5 139.2 Q 194.5 140.3, 194.5 142.4 Q 194.5 144.5, 193.5 145.6 Q 192.5 146.8, 190.6 146.8 Q 188.7 146.8, 187.7 145.6 Q 186.7 144.5, 186.7 142.4 M 190.6 145.9 Q 191.9 145.9, 192.6 145.0 Q 193.3 144.1, 193.3 142.4 Q 193.3 140.7, 192.6 139.8 Q 191.9 139.0, 190.6 139.0 Q 189.3 139.0, 188.6 139.8 Q 187.9 140.7, 187.9 142.4 Q 187.9 144.1, 188.6 145.0 Q 189.3 145.9, 190.6 145.9 " fill="#FF0000"/>
<path class="legend" d="M 71.8 190.2 L 77.1 182.0 L 72.0 182.0 L 72.0 180.8 L 78.9 180.8 L 78.9 181.8 L 73.6 190.0 L 78.9 190.0 L 78.9 191.3 L 71.8 191.3 L 71.8 190.2 " fill="#000000"/>
<path class="legend" d="M 79.6 180.7 L 81.0 180.7 L 81.0 191.3 L 79.6 191.3 L 79.6 180.7 " fill="#000000"/>
<path class="legend" d="M 84.0 180.8 L 87.4 186.3 Q 87.7 186.9, 88.3 187.9 Q 88.8 188.9, 88.9 188.9 L 88.9 180.8 L 90.3 180.8 L 90.3 191.3 L 88.8 191.3 L 85.1 185.2 Q 84.7 184.5, 84.2 183.7 Q 83.8 182.8, 83.7 182.6 L 83.7 191.3 L 82.3 191.3 L 82.3 180.8 L 84.0 180.8 " fill="#000000"/>
<path class="legend" d="M 91.5 186.0 Q 91.5 183.4, 92.7 182.0 Q 93.9 180.6, 96.3 180.6 Q 98.4 180.6, 99.6 182.2 L 98.6 183.0 Q 97.8 181.9, 96.3 181.9 Q 94.7 181.9, 93.8 182.9 Q 93.0 184.0, 93.0 186.0 Q 93.0 188.1, 93.9 189.1 Q 94.7 190.2, 96.4 190.2 Q 97.6 190.2, 99.0 189.5 L 99.4 190.6 Q 98.8 191.0, 98.0 191.2 Q 97.2 191.4, 96.2 191.4 Q 93.9 191.4, 92.7 190.0 Q 91.5 188.6, 91.5 186.0 " fill="#000000"/>
<path class="legend" d="M 104.0 191.4 Q 102.1 191.4, 101.1 190.0 Q 100.2 188.5, 100.2 186.0 Q 100.2 183.5, 101.1 182.0 Q 102.1 180.6, 104.0 180.6 Q 106.0 180.6, 106.9 182.0 Q 107.9 183.5, 107.9 186.0 Q 107.9 188.5, 106.9 190.0 Q 106.0 191.4, 104.0 191.4 M 104.0 190.2 Q 105.2 190.2, 105.8 189.1 Q 106.4 188.1, 106.4 186.0 Q 106.4 183.9, 105.8 182.9 Q 105.2 181.8, 104.0 181.8 Q 102.9 181.8, 102.3 182.9 Q 101.7 183.9, 101.7 186.0 Q 101.7 188.1, 102.3 189.1 Q 102.9 190.2, 104.0 190.2 " fill="#000000"/>
<path class="legend" d="M 112.7 191.4 Q 110.8 191.4, 109.8 190.0 Q 108.9 188.5, 108.9 186.0 Q 108.9 183.5, 109.8 182.0 Q 110.8 180.6, 112.7 180.6 Q 114.6 180.6, 115.6 182.0 Q 116.5 183.5, 116.5 186.0 Q 116.5 188.5, 115.6 190.0 Q 114.6 191.4, 112.7 191.4 M 112.7 190.2 Q 113.8 190.2, 114.5 189.1 Q 115.1 188.1, 115.1 186.0 Q 115.1 183.9, 114.5 182.9 Q 113.8 181.8, 112.7 181.8 Q 111.6 181.8, 111.0 182.9 Q 110.3 183.9, 110.3 186.0 Q 110.3 188.1, 111.0 189.1 Q 111.6 190.2, 112.7 190.2 " fill="#000000"/>
<path class="legend" d="M 121.4 191.4 Q 119.4 191.4, 118.5 190.0 Q 117.5 188.5, 117.5 186.0 Q 117.5 183.5, 118.5 182.0 Q 119.4 180.6, 121.4 180.6 Q 123.3 180.6, 124.3 182.0 Q 125.2 183.5, 125.2 186.0 Q 125.2 188.5, 124.2 190.0 Q 123.3 191.4, 121.4 191.4 M 121.4 190.2 Q 122.5 190.2, 123.1 189.1 Q 123.7 188.1, 123.7 186.0 Q 123.7 183.9, 123.1 182.9 Q 122.5 181.8, 121.4 181.8 Q 120.2 181.8, 119.6 182.9 Q 119.0 183.9, 119.0 186.0 Q 119.0 188.1, 119.6 189.1 Q 120.2 190.2, 121.4 190.2 " fill="#000000"/>
<path class="legend" d="M 130.0 191.4 Q 128.1 191.4, 127.1 190.0 Q 126.2 188.5, 126.2 186.0 Q 126.2 183.5, 127.1 182.0 Q 128.1 180.6, 130.0 180.6 Q 132.0 180.6, 132.9 182.0 Q 133.9 183.5, 133.9 186.0 Q 133.9 188.5, 132.9 190.0 Q 132.0 191.4, 130.0 191.4 M 130.0 190.2 Q 131.2 190.2, 131.8 189.1 Q 132.4 188.1, 132.4 186.0 Q 132.4 183.9, 131.8 182.9 Q 131.2 181.8, 130.0 181.8 Q 128.9 181.8, 128.3 182.9 Q 127.7 183.9, 127.7 186.0 Q 127.7 188.1, 128.3 189.1 Q 128.9 190.2, 130.0 190.2 " fill="#000000"/>
<path class="legend" d="M 138.7 191.4 Q 136.7 191.4, 135.8 190.0 Q 134.8 188.5, 134.8 186.0 Q 134.8 183.5, 135.8 182.0 Q 136.7 180.6, 138.7 180.6 Q 140.6 180.6, 141.6 182.0 Q 142.5 183.5, 142.5 186.0 Q 142.5 188.5, 141.6 190.0 Q 140.6 191.4, 138.7 191.4 M 138.7 190.2 Q 139.8 190.2, 140.4 189.1 Q 141.0 188.1, 141.0 186.0 Q 141.0 183.9, 140.4 182.9 Q 139.8 181.8, 138.7 181.8 Q 137.5 181.8, 136.9 182.9 Q 136.3 183.9, 136.3 186.0 Q 136.3 188.1, 136.9 189.1 Q 137.5 190.2, 138.7 190.2 " fill="#000000"/>
<path class="legend" d="M 147.3 191.4 Q 145.4 191.4, 144.4 190.0 Q 143.5 188.5, 143.5 186.0 Q 143.5 183.5, 144.4 182.0 Q 145.4 180.6, 147.3 180.6 Q 149.3 180.6, 150.2 182.0 Q 151.2 183.5, 151.2 186.0 Q 151.2 188.5, 150.2 190.0 Q 149.3 191.4, 147.3 191.4 M 147.3 190.2 Q 148.5 190.2, 149.1 189.1 Q 149.7 188.1, 149.7 186.0 Q 149.7 183.9, 149.1 182.9 Q 148.5 181.8, 147.3 181.8 Q 146.2 181.8, 145.6 182.9 Q 145.0 183.9, 145.0 186.0 Q 145.0 188.1, 145.6 189.1 Q 146.2 190.2, 147.3 190.2 " fill="#000000"/>
<path class="legend" d="M 156.0 191.4 Q 154.1 191.4, 153.1 190.0 Q 152.1 188.5, 152.1 186.0 Q 152.1 183.5, 153.1 182.0 Q 154.0 180.6, 156.0 180.6 Q 157.9 180.6, 158.9 182.0 Q 159.8 183.5, 159.8 186.0 Q 159.8 188.5, 158.9 190.0 Q 157.9 191.4, 156.0 191.4 M 156.0 190.2 Q 157.1 190.2, 157.7 189.1 Q 158.4 188.1, 158.4 186.0 Q 158.4 183.9, 157.7 182.9 Q 157.1 181.8, 156.0 181.8 Q 154.9 181.8, 154.2 182.9 Q 153.6 183.9, 153.6 186.0 Q 153.6 188.1, 154.2 189.1 Q 154.9 190.2, 156.0 190.2 " fill="#000000"/>
<path class="legend" d="M 164.7 191.4 Q 162.7 191.4, 161.8 190.0 Q 160.8 188.5, 160.8 186.0 Q 160.8 183.5, 161.8 182.0 Q 162.7 180.6, 164.7 180.6 Q 166.6 180.6, 167.5 182.0 Q 168.5 183.5, 168.5 186.0 Q 168.5 188.5, 167.5 190.0 Q 166.6 191.4, 164.7 191.4 M 164.7 190.2 Q 165.8 190.2, 166.4 189.1 Q 167.0 188.1, 167.0 186.0 Q 167.0 183.9, 166.4 182.9 Q 165.8 181.8, 164.7 181.8 Q 163.5 181.8, 162.9 182.9 Q 162.3 183.9, 162.3 186.0 Q 162.3 188.1, 162.9 189.1 Q 163.5 190.2, 164.7 190.2 " fill="#000000"/>
<path class="legend" d="M 173.3 191.4 Q 171.4 191.4, 170.4 190.0 Q 169.5 188.5, 169.5 186.0 Q 169.5 183.5, 170.4 182.0 Q 171.4 180.6, 173.3 180.6 Q 175.3 180.6, 176.2 182.0 Q 177.2 183.5, 177.2 186.0 Q 177.2 188.5, 176.2 190.0 Q 175.2 191.4, 173.3 191.4 M 173.3 190.2 Q 174.5 190.2, 175.1 189.1 Q 175.7 188.1, 175.7 186.0 Q 175.7 183.9, 175.1 182.9 Q 174.5 181.8, 173.3 181.8 Q 172.2 181.8, 171.6 182.9 Q 171.0 183.9, 171.0 186.0 Q 171.0 188.1, 171.6 189.1 Q 172.2 190.2, 173.3 190.2 " fill="#000000"/>
<path class="legend" d="M 182.0 191.4 Q 180.0 191.4, 179.1 190.0 Q 178.1 188.5, 178.1 186.0 Q 178.1 183.5, 179.1 182.0 Q 180.0 180.6, 182.0 180.6 Q 183.9 180.6, 184.9 182.0 Q 185.8 183.5, 185.8 186.0 Q 185.8 188.5, 184.9 190.0 Q 183.9 191.4, 182.0 191.4 M 182.0 190.2 Q 183.1 190.2, 183.7 189.1 Q 184.3 188.1, 184.3 186.0 Q 184.3 183.9, 183.7 182.9 Q 183.1 181.8, 182.0 181.8 Q 180.8 181.8, 180.2 182.9 Q 179.6 183.9, 179.6 186.0 Q 179.6 188.1, 180.2 189.1 Q 180.8 190.2, 182.0 190.2 " fill="#000000"/>
<path class="legend" d="M 190.6 184.7 Q 191.5 184.7, 192.3 185.1 Q 193.0 185.5, 193.5 186.2 Q 193.9 187.0, 193.9 187.9 Q 193.9 189.0, 193.4 189.8 Q 192.8 190.6, 192.0 191.0 Q 191.1 191.4, 190.1 191.4 Q 189.2 191.4, 188.3 191.0 Q 187.4 190.7, 186.8 190.0 L 187.7 189.1 Q 188.2 189.6, 188.8 189.9 Q 189.5 190.2, 190.2 190.2 Q 191.1 190.2, 191.8 189.6 Q 192.4 189.0, 192.4 188.0 Q 192.4 186.9, 191.8 186.3 Q 191.1 185.8, 190.1 185.8 Q 189.2 185.8, 188.1 186.2 L 187.3 185.8 L 187.8 180.8 L 193.2 180.8 L 193.1 181.9 L 189.1 181.9 L 188.7 185.1 Q 189.7 184.7, 190.6 184.7 " fill="#000000"/>
<path class="legend" d="M 199.7 185.7 Q 200.7 186.0, 201.2 186.7 Q 201.7 187.4, 201.7 188.4 Q 201.7 189.3, 201.2 190.0 Q 200.8 190.7, 200.0 191.0 Q 199.2 191.4, 198.1 191.4 Q 197.0 191.4, 196.1 191.0 Q 195.3 190.6, 194.6 189.8 L 195.5 189.0 Q 196.1 189.7, 196.7 190.0 Q 197.2 190.2, 198.1 190.2 Q 199.0 190.2, 199.6 189.7 Q 200.2 189.2, 200.2 188.4 Q 200.2 187.3, 199.6 186.8 Q 199.0 186.3, 197.7 186.3 L 196.9 186.3 L 196.9 185.3 L 197.6 185.3 Q 198.8 185.3, 199.4 184.8 Q 200.0 184.3, 200.0 183.3 Q 200.0 182.6, 199.5 182.2 Q 199.0 181.8, 198.1 181.8 Q 197.2 181.8, 196.7 182.1 Q 196.1 182.5, 195.7 183.2 L 194.7 182.7 Q 195.1 181.8, 196.0 181.2 Q 196.9 180.6, 198.1 180.6 Q 199.6 180.6, 200.5 181.4 Q 201.5 182.1, 201.5 183.3 Q 201.5 184.2, 201.0 184.8 Q 200.5 185.4, 199.7 185.7 " fill="#000000"/>
<path class="legend" d="" fill="#000000"/>
<path class="legend" d="M 208.1 190.1 L 210.4 190.1 L 210.4 182.2 L 207.8 183.0 L 207.5 182.1 L 210.7 180.7 L 211.8 180.9 L 211.8 190.1 L 213.8 190.1 L 213.8 191.3 L 208.1 191.3 L 208.1 190.1 " fill="#000000"/>
<path class="legend" d="M 219.8 185.7 Q 220.8 186.1, 221.3 186.7 Q 221.9 187.4, 221.9 188.4 Q 221.9 189.3, 221.4 190.0 Q 221.0 190.7, 220.1 191.0 Q 219.3 191.4, 218.2 191.4 Q 216.5 191.4, 215.5 190.6 Q 214.5 189.8, 214.5 188.4 Q 214.5 187.5, 214.9 186.9 Q 215.4 186.2, 216.3 185.7 Q 215.6 185.4, 215.2 184.8 Q 214.9 184.2, 214.9 183.3 Q 214.9 182.1, 215.7 181.4 Q 216.7 180.6, 218.2 180.6 Q 219.7 180.6, 220.6 181.4 Q 221.5 182.1, 221.5 183.3 Q 221.5 184.1, 221.1 184.7 Q 220.7 185.2, 219.8 185.7 M 218.2 181.8 Q 217.3 181.8, 216.8 182.2 Q 216.3 182.6, 216.3 183.3 Q 216.3 183.9, 216.7 184.2 Q 217.0 184.6, 217.5 184.8 Q 217.9 185.0, 218.8 185.3 Q 219.5 184.9, 219.7 184.4 Q 220.0 183.9, 220.0 183.3 Q 220.0 182.6, 219.5 182.2 Q 219.1 181.8, 218.2 181.8 M 218.2 190.3 Q 219.2 190.3, 219.8 189.8 Q 220.4 189.3, 220.4 188.4 Q 220.4 187.8, 220.1 187.5 Q 219.8 187.1, 219.3 186.9 Q 218.9 186.7, 218.0 186.4 L 217.4 186.2 Q 216.6 186.6, 216.3 187.2 Q 216.0 187.7, 216.0 188.4 Q 216.0 189.3, 216.6 189.8 Q 217.2 190.3, 218.2 190.3 " fill="#000000"/>
<path class="legend" d="M 226.7 191.4 Q 224.7 191.4, 223.8 190.0 Q 222.8 188.5, 222.8 186.0 Q 222.8 183.5, 223.8 182.0 Q 224.7 180.6, 226.7 180.6 Q 228.6 180.6, 229.6 182.0 Q 230.5 183.5, 230.5 186.0 Q 230.5 188.5, 229.6 190.0 Q 228.6 191.4, 226.7 191.4 M 226.7 190.2 Q 227.8 190.2, 228.4 189.1 Q 229.0 188.1, 229.0 186.0 Q 229.0 183.9, 228.4 182.9 Q 227.8 181.8, 226.7 181.8 Q 225.5 181.8, 224.9 182.9 Q 224.3 183.9, 224.3 186.0 Q 224.3 188.1, 224.9 189.1 Q 225.5 190.2, 226.7 190.2 " fill="#000000"/>
<path class="legend" d="M 231.5 189.8 L 233.0 189.8 L 233.0 191.3 L 231.5 191.3 L 231.5 189.8 " fill="#000000"/>
<path class="legend" d="M 237.8 191.4 Q 235.9 191.4, 234.9 190.0 Q 233.9 188.5, 233.9 186.0 Q 233.9 183.5, 234.9 182.0 Q 235.8 180.6, 237.8 180.6 Q 239.7 180.6, 240.7 182.0 Q 241.6 183.5, 241.6 186.0 Q 241.6 188.5, 240.7 190.0 Q 239.7 191.4, 237.8 191.4 M 237.8 190.2 Q 238.9 190.2, 239.5 189.1 Q 240.1 188.1, 240.1 186.0 Q 240.1 183.9, 239.5 182.9 Q 238.9 181.8, 237.8 181.8 Q 236.7 181.8, 236.0 182.9 Q 235.4 183.9, 235.4 186.0 Q 235.4 188.1, 236.0 189.1 Q 236.7 190.2, 237.8 190.2 " fill="#000000"/>
<path class="legend" d="M 249.5 183.6 L 249.5 191.7 Q 249.5 195.0, 246.1 195.0 Q 244.4 195.0, 242.9 194.2 L 243.4 193.2 Q 244.2 193.6, 244.7 193.8 Q 245.3 193.9, 246.1 193.9 Q 247.2 193.9, 247.6 193.4 Q 248.1 192.9, 248.1 191.7 L 248.1 190.4 Q 247.3 191.4, 246.0 191.4 Q 244.4 191.4, 243.5 190.4 Q 242.6 189.4, 242.6 187.6 Q 242.6 185.7, 243.6 184.6 Q 244.7 183.5, 246.5 183.5 Q 247.5 183.5, 248.4 183.8 L 248.4 183.6 L 249.5 183.6 M 246.0 190.3 Q 246.8 190.3, 247.4 189.9 Q 247.9 189.4, 248.1 188.7 L 248.1 184.8 Q 247.4 184.6, 246.5 184.6 Q 245.4 184.6, 244.7 185.4 Q 244.0 186.2, 244.0 187.6 Q 244.0 188.9, 244.5 189.6 Q 245.1 190.3, 246.0 190.3 " fill="#000000"/>
<path class="legend" d="M 254.6 180.3 L 255.8 180.3 L 252.0 192.2 L 250.8 192.2 L 254.6 180.3 " fill="#000000"/>
<path class="legend" d="M 265.1 183.5 Q 266.4 183.5, 267.1 184.2 Q 267.7 184.9, 267.7 186.2 L 267.7 191.3 L 266.3 191.3 L 266.3 186.3 Q 266.3 185.4, 266.0 185.0 Q 265.6 184.6, 264.8 184.6 Q 264.2 184.6, 263.6 184.9 Q 263.0 185.2, 262.7 185.8 Q 262.7 185.9, 262.7 186.2 L 262.7 191.3 L 261.3 191.3 L 261.3 186.3 Q 261.3 185.4, 261.0 185.0 Q 260.6 184.6, 259.8 184.6 Q 259.2 184.6, 258.6 184.9 Q 258.0 185.2, 257.7 185.8 L 257.7 191.3 L 256.3 191.3 L 256.3 183.6 L 257.4 183.6 L 257.6 184.7 Q 258.6 183.5, 260.1 183.5 Q 261.9 183.5, 262.5 184.8 Q 263.5 183.5, 265.1 183.5 " fill="#000000"/>
<path class="legend" d="M 268.9 187.4 Q 268.9 185.6, 269.8 184.5 Q 270.7 183.5, 272.5 183.5 Q 274.2 183.5, 275.2 184.5 Q 276.1 185.6, 276.1 187.4 Q 276.1 189.3, 275.2 190.4 Q 274.2 191.4, 272.5 191.4 Q 270.7 191.4, 269.8 190.4 Q 268.9 189.3, 268.9 187.4 M 270.3 187.4 Q 270.3 188.8, 270.8 189.6 Q 271.4 190.3, 272.5 190.3 Q 273.5 190.3, 274.1 189.6 Q 274.7 188.8, 274.7 187.4 Q 274.7 186.0, 274.1 185.3 Q 273.5 184.6, 272.5 184.6 Q 271.4 184.6, 270.8 185.3 Q 270.3 186.0, 270.3 187.4 " fill="#000000"/>
<path class="legend" d="M 276.8 180.0 L 278.2 180.0 L 278.2 191.3 L 276.8 191.3 L 276.8 180.0 " fill="#000000"/>
<path class="bond-0 atom-0 atom-1" d="M 478.5,57.9 L 470.6,87.1" style="fill:none;fill-rule:evenodd;stroke:#000000;stroke-width:2.0px;stroke-linecap:butt;stroke-linejoin:miter;stroke-opacity:1"/>
<path class="bond-1 atom-1 atom-2" d="M 470.6,87.1 L 458.4,90.4" style="fill:none;fill-rule:evenodd;stroke:#000000;stroke-width:2.0px;stroke-linecap:butt;stroke-linejoin:miter;stroke-opacity:1"/>
<path class="bond-1 atom-1 atom-2" d="M 458.4,90.4 L 446.3,93.6" style="fill:none;fill-rule:evenodd;stroke:#FF0000;stroke-width:2.0px;stroke-linecap:butt;stroke-linejoin:miter;stroke-opacity:1"/>
<path class="bond-2 atom-1 atom-3" d="M 470.6,87.1 L 479.2,95.7" style="fill:none;fill-rule:evenodd;stroke:#000000;stroke-width:2.0px;stroke-linecap:butt;stroke-linejoin:miter;stroke-opacity:1"/>
<path class="bond-2 atom-1 atom-3" d="M 479.2,95.7 L 487.8,104.3" style="fill:none;fill-rule:evenodd;stroke:#0000FF;stroke-width:2.0px;stroke-linecap:butt;stroke-linejoin:miter;stroke-opacity:1"/>
<path class="bond-2 atom-1 atom-3" d="M 477.5,85.4 L 483.5,91.4" style="fill:none;fill-rule:evenodd;stroke:#000000;stroke-width:2.0px;stroke-linecap:butt;stroke-linejoin:miter;stroke-opacity:1"/>
<path class="bond-2 atom-1 atom-3" d="M 483.5,91.4 L 489.5,97.4" style="fill:none;fill-rule:evenodd;stroke:#0000FF;stroke-width:2.0px;stroke-linecap:butt;stroke-linejoin:miter;stroke-opacity:1"/>
<path class="bond-3 atom-3 atom-4" d="M 496.3,107.4 L 508.8,104.1" style="fill:none;fill-rule:evenodd;stroke:#0000FF;stroke-width:2.0px;stroke-linecap:butt;stroke-linejoin:miter;stroke-opacity:1"/>
<path class="bond-3 atom-3 atom-4" d="M 508.8,104.1 L 521.3,100.7" style="fill:none;fill-rule:evenodd;stroke:#000000;stroke-width:2.0px;stroke-linecap:butt;stroke-linejoin:miter;stroke-opacity:1"/>
<path class="bond-4 atom-4 atom-5" d="M 521.3,100.7 L 529.1,71.4" style="fill:none;fill-rule:evenodd;stroke:#000000;stroke-width:2.0px;stroke-linecap:butt;stroke-linejoin:miter;stroke-opacity:1"/>
<path class="bond-4 atom-4 atom-5" d="M 528.3,97.9 L 533.8,77.4" style="fill:none;fill-rule:evenodd;stroke:#000000;stroke-width:2.0px;stroke-linecap:butt;stroke-linejoin:miter;stroke-opacity:1"/>
<path class="bond-5 atom-5 atom-6" d="M 529.1,71.4 L 558.4,63.6" style="fill:none;fill-rule:evenodd;stroke:#000000;stroke-width:2.0px;stroke-linecap:butt;stroke-linejoin:miter;stroke-opacity:1"/>
<path class="bond-6 atom-6 atom-7" d="M 558.4,63.6 L 579.8,85.0" style="fill:none;fill-rule:evenodd;stroke:#000000;stroke-width:2.0px;stroke-linecap:butt;stroke-linejoin:miter;stroke-opacity:1"/>
<path class="bond-6 atom-6 atom-7" d="M 557.3,71.1 L 572.3,86.1" style="fill:none;fill-rule:evenodd;stroke:#000000;stroke-width:2.0px;stroke-linecap:butt;stroke-linejoin:miter;stroke-opacity:1"/>
<path class="bond-7 atom-7 atom-8" d="M 579.8,85.0 L 592.0,81.8" style="fill:none;fill-rule:evenodd;stroke:#000000;stroke-width:2.0px;stroke-linecap:butt;stroke-linejoin:miter;stroke-opacity:1"/>
<path class="bond-7 atom-7 atom-8" d="M 592.0,81.8 L 604.1,78.5" style="fill:none;fill-rule:evenodd;stroke:#FF0000;stroke-width:2.0px;stroke-linecap:butt;stroke-linejoin:miter;stroke-opacity:1"/>
<path class="bond-8 atom-7 atom-9" d="M 579.8,85.0 L 572.0,114.3" style="fill:none;fill-rule:evenodd;stroke:#000000;stroke-width:2.0px;stroke-linecap:butt;stroke-linejoin:miter;stroke-opacity:1"/>
<path class="bond-9 atom-9 atom-10" d="M 572.0,114.3 L 542.7,122.1" style="fill:none;fill-rule:evenodd;stroke:#000000;stroke-width:2.0px;stroke-linecap:butt;stroke-linejoin:miter;stroke-opacity:1"/>
<path class="bond-9 atom-9 atom-10" d="M 566.0,109.6 L 545.5,115.1" style="fill:none;fill-rule:evenodd;stroke:#000000;stroke-width:2.0px;stroke-linecap:butt;stroke-linejoin:miter;stroke-opacity:1"/>
<path class="bond-10 atom-10 atom-4" d="M 542.7,122.1 L 521.3,100.7" style="fill:none;fill-rule:evenodd;stroke:#000000;stroke-width:2.0px;stroke-linecap:butt;stroke-linejoin:miter;stroke-opacity:1"/>
<path class="atom-2" d="M 429.7 90.7 L 430.8 90.7 L 430.8 94.4 L 435.2 94.4 L 435.2 90.7 L 436.4 90.7 L 436.4 99.3 L 435.2 99.3 L 435.2 95.3 L 430.8 95.3 L 430.8 99.3 L 429.7 99.3 L 429.7 90.7 " fill="#FF0000"/>
<path class="atom-2" d="M 437.4 95.0 Q 437.4 92.9, 438.4 91.8 Q 439.4 90.6, 441.3 90.6 Q 443.3 90.6, 444.3 91.8 Q 445.3 92.9, 445.3 95.0 Q 445.3 97.1, 444.3 98.3 Q 443.2 99.4, 441.3 99.4 Q 439.5 99.4, 438.4 98.3 Q 437.4 97.1, 437.4 95.0 M 441.3 98.5 Q 442.7 98.5, 443.4 97.6 Q 444.1 96.7, 444.1 95.0 Q 444.1 93.3, 443.4 92.5 Q 442.7 91.6, 441.3 91.6 Q 440.0 91.6, 439.3 92.5 Q 438.6 93.3, 438.6 95.0 Q 438.6 96.7, 439.3 97.6 Q 440.0 98.5, 441.3 98.5 " fill="#FF0000"/>
<path class="atom-3" d="M 490.1 104.3 L 492.9 108.8 Q 493.2 109.3, 493.7 110.1 Q 494.1 110.9, 494.1 110.9 L 494.1 104.3 L 495.3 104.3 L 495.3 112.8 L 494.1 112.8 L 491.1 107.9 Q 490.7 107.3, 490.4 106.6 Q 490.0 106.0, 489.9 105.8 L 489.9 112.8 L 488.8 112.8 L 488.8 104.3 L 490.1 104.3 " fill="#0000FF"/>
<path class="atom-8" d="M 605.1 77.2 Q 605.1 75.2, 606.2 74.0 Q 607.2 72.9, 609.1 72.9 Q 611.0 72.9, 612.0 74.0 Q 613.0 75.2, 613.0 77.2 Q 613.0 79.3, 612.0 80.5 Q 611.0 81.7, 609.1 81.7 Q 607.2 81.7, 606.2 80.5 Q 605.1 79.3, 605.1 77.2 M 609.1 80.7 Q 610.4 80.7, 611.1 79.8 Q 611.8 78.9, 611.8 77.2 Q 611.8 75.5, 611.1 74.7 Q 610.4 73.8, 609.1 73.8 Q 607.8 73.8, 607.1 74.7 Q 606.3 75.5, 606.3 77.2 Q 606.3 78.9, 607.1 79.8 Q 607.8 80.7, 609.1 80.7 " fill="#FF0000"/>
<path class="atom-8" d="M 613.6 72.9 L 614.8 72.9 L 614.8 76.6 L 619.2 76.6 L 619.2 72.9 L 620.3 72.9 L 620.3 81.5 L 619.2 81.5 L 619.2 77.6 L 614.8 77.6 L 614.8 81.5 L 613.6 81.5 L 613.6 72.9 " fill="#FF0000"/>
<path class="legend" d="M 443.0 190.2 L 448.3 182.0 L 443.1 182.0 L 443.1 180.8 L 450.0 180.8 L 450.0 181.8 L 444.7 190.0 L 450.0 190.0 L 450.0 191.3 L 443.0 191.3 L 443.0 190.2 " fill="#000000"/>
<path class="legend" d="M 450.7 180.7 L 452.1 180.7 L 452.1 191.3 L 450.7 191.3 L 450.7 180.7 " fill="#000000"/>
<path class="legend" d="M 455.1 180.8 L 458.5 186.3 Q 458.8 186.9, 459.4 187.9 Q 459.9 188.9, 460.0 188.9 L 460.0 180.8 L 461.4 180.8 L 461.4 191.3 L 459.9 191.3 L 456.2 185.2 Q 455.8 184.5, 455.3 183.7 Q 454.9 182.8, 454.8 182.6 L 454.8 191.3 L 453.4 191.3 L 453.4 180.8 L 455.1 180.8 " fill="#000000"/>
<path class="legend" d="M 462.6 186.0 Q 462.6 183.4, 463.8 182.0 Q 465.1 180.6, 467.4 180.6 Q 469.6 180.6, 470.7 182.2 L 469.7 183.0 Q 468.9 181.9, 467.4 181.9 Q 465.8 181.9, 465.0 182.9 Q 464.1 184.0, 464.1 186.0 Q 464.1 188.1, 465.0 189.1 Q 465.9 190.2, 467.6 190.2 Q 468.7 190.2, 470.1 189.5 L 470.5 190.6 Q 469.9 191.0, 469.1 191.2 Q 468.3 191.4, 467.3 191.4 Q 465.1 191.4, 463.8 190.0 Q 462.6 188.6, 462.6 186.0 " fill="#000000"/>
<path class="legend" d="M 471.9 190.1 L 474.2 190.1 L 474.2 182.2 L 471.7 183.0 L 471.3 182.1 L 474.5 180.7 L 475.6 180.9 L 475.6 190.1 L 477.7 190.1 L 477.7 191.3 L 471.9 191.3 L 471.9 190.1 " fill="#000000"/>
<path class="legend" d="M 483.3 185.7 Q 484.3 186.0, 484.8 186.7 Q 485.3 187.4, 485.3 188.4 Q 485.3 189.3, 484.9 190.0 Q 484.5 190.7, 483.6 191.0 Q 482.8 191.4, 481.8 191.4 Q 480.6 191.4, 479.8 191.0 Q 478.9 190.6, 478.3 189.8 L 479.1 189.0 Q 479.8 189.7, 480.3 190.0 Q 480.9 190.2, 481.8 190.2 Q 482.7 190.2, 483.3 189.7 Q 483.9 189.2, 483.9 188.4 Q 483.9 187.3, 483.2 186.8 Q 482.7 186.3, 481.4 186.3 L 480.6 186.3 L 480.6 185.3 L 481.3 185.3 Q 482.4 185.3, 483.0 184.8 Q 483.6 184.3, 483.6 183.3 Q 483.6 182.6, 483.1 182.2 Q 482.6 181.8, 481.8 181.8 Q 480.9 181.8, 480.3 182.1 Q 479.8 182.5, 479.4 183.2 L 478.4 182.7 Q 478.7 181.8, 479.6 181.2 Q 480.5 180.6, 481.8 180.6 Q 483.3 180.6, 484.2 181.4 Q 485.1 182.1, 485.1 183.3 Q 485.1 184.2, 484.7 184.8 Q 484.2 185.4, 483.3 185.7 " fill="#000000"/>
<path class="legend" d="M 490.0 184.7 Q 491.0 184.7, 491.7 185.1 Q 492.5 185.5, 492.9 186.2 Q 493.3 187.0, 493.3 187.9 Q 493.3 189.0, 492.8 189.8 Q 492.3 190.6, 491.4 191.0 Q 490.6 191.4, 489.6 191.4 Q 488.6 191.4, 487.7 191.0 Q 486.8 190.7, 486.2 190.0 L 487.1 189.1 Q 487.6 189.6, 488.3 189.9 Q 488.9 190.2, 489.6 190.2 Q 490.6 190.2, 491.2 189.6 Q 491.8 189.0, 491.8 188.0 Q 491.8 186.9, 491.2 186.3 Q 490.6 185.8, 489.5 185.8 Q 488.6 185.8, 487.6 186.2 L 486.8 185.8 L 487.3 180.8 L 492.7 180.8 L 492.5 181.9 L 488.5 181.9 L 488.2 185.1 Q 489.1 184.7, 490.0 184.7 " fill="#000000"/>
<path class="legend" d="M 497.9 184.7 Q 498.8 184.7, 499.5 185.1 Q 500.3 185.5, 500.7 186.2 Q 501.2 187.0, 501.2 187.9 Q 501.2 189.0, 500.6 189.8 Q 500.1 190.6, 499.2 191.0 Q 498.4 191.4, 497.4 191.4 Q 496.4 191.4, 495.5 191.0 Q 494.7 190.7, 494.0 190.0 L 494.9 189.1 Q 495.4 189.6, 496.1 189.9 Q 496.8 190.2, 497.4 190.2 Q 498.4 190.2, 499.0 189.6 Q 499.7 189.0, 499.7 188.0 Q 499.7 186.9, 499.0 186.3 Q 498.4 185.8, 497.4 185.8 Q 496.4 185.8, 495.4 186.2 L 494.6 185.8 L 495.1 180.8 L 500.5 180.8 L 500.4 181.9 L 496.3 181.9 L 496.0 185.1 Q 496.9 184.7, 497.9 184.7 " fill="#000000"/>
<path class="legend" d="M 505.7 191.4 Q 503.8 191.4, 502.8 190.0 Q 501.9 188.5, 501.9 186.0 Q 501.9 183.5, 502.8 182.0 Q 503.8 180.6, 505.7 180.6 Q 507.7 180.6, 508.6 182.0 Q 509.6 183.5, 509.6 186.0 Q 509.6 188.5, 508.6 190.0 Q 507.7 191.4, 505.7 191.4 M 505.7 190.2 Q 506.9 190.2, 507.5 189.1 Q 508.1 188.1, 508.1 186.0 Q 508.1 183.9, 507.5 182.9 Q 506.9 181.8, 505.7 181.8 Q 504.6 181.8, 504.0 182.9 Q 503.4 183.9, 503.4 186.0 Q 503.4 188.1, 504.0 189.1 Q 504.6 190.2, 505.7 190.2 " fill="#000000"/>
<path class="legend" d="M 515.9 185.7 Q 516.9 186.1, 517.4 186.7 Q 518.0 187.4, 518.0 188.4 Q 518.0 189.3, 517.5 190.0 Q 517.0 190.7, 516.2 191.0 Q 515.4 191.4, 514.3 191.4 Q 512.6 191.4, 511.5 190.6 Q 510.5 189.8, 510.5 188.4 Q 510.5 187.5, 511.0 186.9 Q 511.4 186.2, 512.3 185.7 Q 511.7 185.4, 511.3 184.8 Q 510.9 184.2, 510.9 183.3 Q 510.9 182.1, 511.8 181.4 Q 512.7 180.6, 514.2 180.6 Q 515.8 180.6, 516.7 181.4 Q 517.6 182.1, 517.6 183.3 Q 517.6 184.1, 517.1 184.7 Q 516.7 185.2, 515.9 185.7 M 514.2 181.8 Q 513.4 181.8, 512.9 182.2 Q 512.4 182.6, 512.4 183.3 Q 512.4 183.9, 512.7 184.2 Q 513.1 184.6, 513.5 184.8 Q 514.0 185.0, 514.9 185.3 Q 515.5 184.9, 515.8 184.4 Q 516.1 183.9, 516.1 183.3 Q 516.1 182.6, 515.6 182.2 Q 515.1 181.8, 514.2 181.8 M 514.3 190.3 Q 515.3 190.3, 515.9 189.8 Q 516.5 189.3, 516.5 188.4 Q 516.5 187.8, 516.2 187.5 Q 515.8 187.1, 515.4 186.9 Q 514.9 186.7, 514.1 186.4 L 513.4 186.2 Q 512.7 186.6, 512.3 187.2 Q 512.0 187.7, 512.0 188.4 Q 512.0 189.3, 512.6 189.8 Q 513.3 190.3, 514.3 190.3 " fill="#000000"/>
<path class="legend" d="M 523.0 184.7 Q 523.9 184.7, 524.7 185.1 Q 525.4 185.5, 525.8 186.2 Q 526.2 187.0, 526.2 187.9 Q 526.2 188.9, 525.7 189.7 Q 525.3 190.5, 524.5 190.9 Q 523.7 191.4, 522.7 191.4 Q 520.8 191.4, 519.8 190.1 Q 518.9 188.9, 518.9 186.3 Q 518.9 183.5, 520.1 182.1 Q 521.2 180.6, 523.5 180.6 Q 524.1 180.6, 524.7 180.8 Q 525.2 180.9, 525.8 181.2 L 525.2 182.2 Q 524.4 181.8, 523.5 181.8 Q 522.0 181.8, 521.2 182.8 Q 520.5 183.7, 520.4 185.7 Q 520.9 185.2, 521.6 185.0 Q 522.3 184.7, 523.0 184.7 M 522.7 190.2 Q 523.2 190.2, 523.7 189.9 Q 524.2 189.6, 524.4 189.1 Q 524.7 188.5, 524.7 187.9 Q 524.7 187.0, 524.2 186.4 Q 523.7 185.9, 522.7 185.9 Q 522.1 185.9, 521.5 186.2 Q 520.8 186.4, 520.4 186.9 Q 520.5 188.6, 521.0 189.4 Q 521.6 190.2, 522.7 190.2 " fill="#000000"/>
<path class="legend" d="M 532.4 185.7 Q 533.3 186.1, 533.9 186.7 Q 534.4 187.4, 534.4 188.4 Q 534.4 189.3, 534.0 190.0 Q 533.5 190.7, 532.7 191.0 Q 531.9 191.4, 530.8 191.4 Q 529.0 191.4, 528.0 190.6 Q 527.0 189.8, 527.0 188.4 Q 527.0 187.5, 527.4 186.9 Q 527.9 186.2, 528.8 185.7 Q 528.1 185.4, 527.8 184.8 Q 527.4 184.2, 527.4 183.3 Q 527.4 182.1, 528.3 181.4 Q 529.2 180.6, 530.7 180.6 Q 532.2 180.6, 533.1 181.4 Q 534.0 182.1, 534.0 183.3 Q 534.0 184.1, 533.6 184.7 Q 533.2 185.2, 532.4 185.7 M 530.7 181.8 Q 529.8 181.8, 529.3 182.2 Q 528.9 182.6, 528.9 183.3 Q 528.9 183.9, 529.2 184.2 Q 529.5 184.6, 530.0 184.8 Q 530.5 185.0, 531.4 185.3 Q 532.0 184.9, 532.3 184.4 Q 532.6 183.9, 532.6 183.3 Q 532.6 182.6, 532.1 182.2 Q 531.6 181.8, 530.7 181.8 M 530.8 190.3 Q 531.8 190.3, 532.3 189.8 Q 532.9 189.3, 532.9 188.4 Q 532.9 187.8, 532.6 187.5 Q 532.3 187.1, 531.8 186.9 Q 531.4 186.7, 530.6 186.4 L 529.9 186.2 Q 529.1 186.6, 528.8 187.2 Q 528.5 187.7, 528.5 188.4 Q 528.5 189.3, 529.1 189.8 Q 529.7 190.3, 530.8 190.3 " fill="#000000"/>
<path class="legend" d="" fill="#000000"/>
<path class="legend" d="M 540.9 190.1 L 543.2 190.1 L 543.2 182.2 L 540.7 183.0 L 540.3 182.1 L 543.5 180.7 L 544.6 180.9 L 544.6 190.1 L 546.7 190.1 L 546.7 191.3 L 540.9 191.3 L 540.9 190.1 " fill="#000000"/>
<path class="legend" d="M 551.1 184.7 Q 552.0 184.7, 552.8 185.1 Q 553.5 185.5, 554.0 186.2 Q 554.4 187.0, 554.4 187.9 Q 554.4 189.0, 553.9 189.8 Q 553.3 190.6, 552.5 191.0 Q 551.6 191.4, 550.6 191.4 Q 549.7 191.4, 548.8 191.0 Q 547.9 190.7, 547.3 190.0 L 548.2 189.1 Q 548.7 189.6, 549.3 189.9 Q 550.0 190.2, 550.7 190.2 Q 551.6 190.2, 552.3 189.6 Q 552.9 189.0, 552.9 188.0 Q 552.9 186.9, 552.3 186.3 Q 551.6 185.8, 550.6 185.8 Q 549.7 185.8, 548.6 186.2 L 547.8 185.8 L 548.3 180.8 L 553.7 180.8 L 553.6 181.9 L 549.6 181.9 L 549.2 185.1 Q 550.2 184.7, 551.1 184.7 " fill="#000000"/>
<path class="legend" d="M 555.7 190.1 L 558.0 190.1 L 558.0 182.2 L 555.4 183.0 L 555.1 182.1 L 558.3 180.7 L 559.4 180.9 L 559.4 190.1 L 561.4 190.1 L 561.4 191.3 L 555.7 191.3 L 555.7 190.1 " fill="#000000"/>
<path class="legend" d="M 562.1 189.8 L 563.6 189.8 L 563.6 191.3 L 562.1 191.3 L 562.1 189.8 " fill="#000000"/>
<path class="legend" d="M 565.1 190.1 L 567.4 190.1 L 567.4 182.2 L 564.9 183.0 L 564.5 182.1 L 567.7 180.7 L 568.8 180.9 L 568.8 190.1 L 570.9 190.1 L 570.9 191.3 L 565.1 191.3 L 565.1 190.1 " fill="#000000"/>
<path class="legend" d="M 578.4 183.6 L 578.4 191.7 Q 578.4 195.0, 574.9 195.0 Q 573.3 195.0, 571.8 194.2 L 572.2 193.2 Q 573.0 193.6, 573.6 193.8 Q 574.2 193.9, 574.9 193.9 Q 576.1 193.9, 576.5 193.4 Q 577.0 192.9, 577.0 191.7 L 577.0 190.4 Q 576.2 191.4, 574.8 191.4 Q 573.3 191.4, 572.4 190.4 Q 571.5 189.4, 571.5 187.6 Q 571.5 185.7, 572.5 184.6 Q 573.6 183.5, 575.4 183.5 Q 576.4 183.5, 577.3 183.8 L 577.3 183.6 L 578.4 183.6 M 574.9 190.3 Q 575.7 190.3, 576.3 189.9 Q 576.8 189.4, 577.0 188.7 L 577.0 184.8 Q 576.3 184.6, 575.4 184.6 Q 574.2 184.6, 573.6 185.4 Q 572.9 186.2, 572.9 187.6 Q 572.9 188.9, 573.4 189.6 Q 574.0 190.3, 574.9 190.3 " fill="#000000"/>
<path class="legend" d="M 583.5 180.3 L 584.7 180.3 L 580.9 192.2 L 579.7 192.2 L 583.5 180.3 " fill="#000000"/>
<path class="legend" d="M 594.0 183.5 Q 595.3 183.5, 595.9 184.2 Q 596.6 184.9, 596.6 186.2 L 596.6 191.3 L 595.2 191.3 L 595.2 186.3 Q 595.2 185.4, 594.8 185.0 Q 594.5 184.6, 593.7 184.6 Q 593.1 184.6, 592.5 184.9 Q 591.9 185.2, 591.6 185.8 Q 591.6 185.9, 591.6 186.2 L 591.6 191.3 L 590.2 191.3 L 590.2 186.3 Q 590.2 185.4, 589.8 185.0 Q 589.5 184.6, 588.7 184.6 Q 588.1 184.6, 587.5 184.9 Q 586.9 185.2, 586.6 185.8 L 586.6 191.3 L 585.2 191.3 L 585.2 183.6 L 586.3 183.6 L 586.5 184.7 Q 587.5 183.5, 589.0 183.5 Q 590.8 183.5, 591.4 184.8 Q 592.4 183.5, 594.0 183.5 " fill="#000000"/>
<path class="legend" d="M 597.7 187.4 Q 597.7 185.6, 598.7 184.5 Q 599.6 183.5, 601.4 183.5 Q 603.1 183.5, 604.0 184.5 Q 605.0 185.6, 605.0 187.4 Q 605.0 189.3, 604.0 190.4 Q 603.1 191.4, 601.4 191.4 Q 599.6 191.4, 598.7 190.4 Q 597.7 189.3, 597.7 187.4 M 599.2 187.4 Q 599.2 188.8, 599.7 189.6 Q 600.3 190.3, 601.4 190.3 Q 602.4 190.3, 603.0 189.6 Q 603.6 188.8, 603.6 187.4 Q 603.6 186.0, 603.0 185.3 Q 602.4 184.6, 601.4 184.6 Q 600.3 184.6, 599.7 185.3 Q 599.2 186.0, 599.2 187.4 " fill="#000000"/>
<path class="legend" d="M 605.7 180.0 L 607.0 180.0 L 607.0 191.3 L 605.7 191.3 L 605.7 180.0 " fill="#000000"/>
<path class="bond-0 atom-0 atom-1" d="M 1009.7,152.3 L 981.4,141.5" style="fill:none;fill-rule:evenodd;stroke:#000000;stroke-width:2.0px;stroke-linecap:butt;stroke-linejoin:miter;stroke-opacity:1"/>
<path class="bond-0 atom-0 atom-1" d="M 1011.8,146.6 L 983.5,135.8" style="fill:none;fill-rule:evenodd;stroke:#000000;stroke-width:2.0px;stroke-linecap:butt;stroke-linejoin:miter;stroke-opacity:1"/>
<path class="bond-1 atom-1 atom-2" d="M 982.4,138.6 L 977.7,108.7" style="fill:none;fill-rule:evenodd;stroke:#000000;stroke-width:2.0px;stroke-linecap:butt;stroke-linejoin:miter;stroke-opacity:1"/>
<path class="bond-2 atom-2 atom-3" d="M 977.7,108.7 L 949.4,97.9" style="fill:none;fill-rule:evenodd;stroke:#000000;stroke-width:2.0px;stroke-linecap:butt;stroke-linejoin:miter;stroke-opacity:1"/>
<path class="bond-3 atom-3 atom-4" d="M 949.4,97.9 L 925.8,117.0" style="fill:none;fill-rule:evenodd;stroke:#000000;stroke-width:2.0px;stroke-linecap:butt;stroke-linejoin:miter;stroke-opacity:1"/>
<path class="bond-3 atom-3 atom-4" d="M 942.0,96.1 L 925.6,109.5" style="fill:none;fill-rule:evenodd;stroke:#000000;stroke-width:2.0px;stroke-linecap:butt;stroke-linejoin:miter;stroke-opacity:1"/>
<path class="bond-4 atom-4 atom-5" d="M 925.8,117.0 L 897.5,106.2" style="fill:none;fill-rule:evenodd;stroke:#000000;stroke-width:2.0px;stroke-linecap:butt;stroke-linejoin:miter;stroke-opacity:1"/>
<path class="bond-5 atom-5 atom-6" d="M 897.5,106.2 L 892.8,76.3" style="fill:none;fill-rule:evenodd;stroke:#000000;stroke-width:2.0px;stroke-linecap:butt;stroke-linejoin:miter;stroke-opacity:1"/>
<path class="bond-5 atom-5 atom-6" d="M 902.8,100.8 L 899.5,79.8" style="fill:none;fill-rule:evenodd;stroke:#000000;stroke-width:2.0px;stroke-linecap:butt;stroke-linejoin:miter;stroke-opacity:1"/>
<path class="bond-6 atom-6 atom-7" d="M 892.8,76.3 L 881.1,71.8" style="fill:none;fill-rule:evenodd;stroke:#000000;stroke-width:2.0px;stroke-linecap:butt;stroke-linejoin:miter;stroke-opacity:1"/>
<path class="bond-6 atom-6 atom-7" d="M 881.1,71.8 L 869.4,67.4" style="fill:none;fill-rule:evenodd;stroke:#FF0000;stroke-width:2.0px;stroke-linecap:butt;stroke-linejoin:miter;stroke-opacity:1"/>
<path class="bond-7 atom-7 atom-8" d="M 859.5,69.5 L 850.2,77.0" style="fill:none;fill-rule:evenodd;stroke:#FF0000;stroke-width:2.0px;stroke-linecap:butt;stroke-linejoin:miter;stroke-opacity:1"/>
<path class="bond-7 atom-7 atom-8" d="M 850.2,77.0 L 840.9,84.6" style="fill:none;fill-rule:evenodd;stroke:#000000;stroke-width:2.0px;stroke-linecap:butt;stroke-linejoin:miter;stroke-opacity:1"/>
<path class="bond-8 atom-8 atom-9" d="M 843.9,84.1 L 845.9,96.4" style="fill:none;fill-rule:evenodd;stroke:#000000;stroke-width:2.0px;stroke-linecap:butt;stroke-linejoin:miter;stroke-opacity:1"/>
<path class="bond-8 atom-8 atom-9" d="M 845.9,96.4 L 847.9,108.7" style="fill:none;fill-rule:evenodd;stroke:#FF0000;stroke-width:2.0px;stroke-linecap:butt;stroke-linejoin:miter;stroke-opacity:1"/>
<path class="bond-8 atom-8 atom-9" d="M 838.0,85.1 L 839.9,97.4" style="fill:none;fill-rule:evenodd;stroke:#000000;stroke-width:2.0px;stroke-linecap:butt;stroke-linejoin:miter;stroke-opacity:1"/>
<path class="bond-8 atom-8 atom-9" d="M 839.9,97.4 L 841.9,109.6" style="fill:none;fill-rule:evenodd;stroke:#FF0000;stroke-width:2.0px;stroke-linecap:butt;stroke-linejoin:miter;stroke-opacity:1"/>
<path class="bond-9 atom-8 atom-10" d="M 840.9,84.6 L 812.6,73.8" style="fill:none;fill-rule:evenodd;stroke:#000000;stroke-width:2.0px;stroke-linecap:butt;stroke-linejoin:miter;stroke-opacity:1"/>
<path class="bond-10 atom-10 atom-11" d="M 812.6,73.8 L 807.9,43.9" style="fill:none;fill-rule:evenodd;stroke:#000000;stroke-width:2.0px;stroke-linecap:butt;stroke-linejoin:miter;stroke-opacity:1"/>
<path class="bond-10 atom-10 atom-11" d="M 805.9,70.3 L 802.6,49.3" style="fill:none;fill-rule:evenodd;stroke:#000000;stroke-width:2.0px;stroke-linecap:butt;stroke-linejoin:miter;stroke-opacity:1"/>
<path class="bond-11 atom-11 atom-12" d="M 807.9,43.9 L 779.6,33.1" style="fill:none;fill-rule:evenodd;stroke:#000000;stroke-width:2.0px;stroke-linecap:butt;stroke-linejoin:miter;stroke-opacity:1"/>
<path class="bond-12 atom-12 atom-13" d="M 779.6,33.1 L 756.0,52.2" style="fill:none;fill-rule:evenodd;stroke:#000000;stroke-width:2.0px;stroke-linecap:butt;stroke-linejoin:miter;stroke-opacity:1"/>
<path class="bond-12 atom-12 atom-13" d="M 779.9,40.6 L 763.4,54.0" style="fill:none;fill-rule:evenodd;stroke:#000000;stroke-width:2.0px;stroke-linecap:butt;stroke-linejoin:miter;stroke-opacity:1"/>
<path class="bond-13 atom-13 atom-14" d="M 756.0,52.2 L 760.8,82.1" style="fill:none;fill-rule:evenodd;stroke:#000000;stroke-width:2.0px;stroke-linecap:butt;stroke-linejoin:miter;stroke-opacity:1"/>
<path class="bond-14 atom-14 atom-15" d="M 760.8,82.1 L 789.1,92.9" style="fill:none;fill-rule:evenodd;stroke:#000000;stroke-width:2.0px;stroke-linecap:butt;stroke-linejoin:miter;stroke-opacity:1"/>
<path class="bond-14 atom-14 atom-15" d="M 767.2,78.0 L 787.1,85.6" style="fill:none;fill-rule:evenodd;stroke:#000000;stroke-width:2.0px;stroke-linecap:butt;stroke-linejoin:miter;stroke-opacity:1"/>
<path class="bond-15 atom-15 atom-16" d="M 789.1,92.9 L 791.1,105.2" style="fill:none;fill-rule:evenodd;stroke:#000000;stroke-width:2.0px;stroke-linecap:butt;stroke-linejoin:miter;stroke-opacity:1"/>
<path class="bond-15 atom-15 atom-16" d="M 791.1,105.2 L 793.1,117.5" style="fill:none;fill-rule:evenodd;stroke:#FF0000;stroke-width:2.0px;stroke-linecap:butt;stroke-linejoin:miter;stroke-opacity:1"/>
<path class="bond-16 atom-16 atom-17" d="M 789.0,126.8 L 779.7,134.4" style="fill:none;fill-rule:evenodd;stroke:#FF0000;stroke-width:2.0px;stroke-linecap:butt;stroke-linejoin:miter;stroke-opacity:1"/>
<path class="bond-16 atom-16 atom-17" d="M 779.7,134.4 L 770.4,141.9" style="fill:none;fill-rule:evenodd;stroke:#000000;stroke-width:2.0px;stroke-linecap:butt;stroke-linejoin:miter;stroke-opacity:1"/>
<path class="bond-17 atom-17 atom-18" d="M 770.4,141.9 L 775.2,171.8" style="fill:none;fill-rule:evenodd;stroke:#000000;stroke-width:2.0px;stroke-linecap:butt;stroke-linejoin:miter;stroke-opacity:1"/>
<path class="bond-18 atom-17 atom-19" d="M 769.3,144.7 L 757.7,140.3" style="fill:none;fill-rule:evenodd;stroke:#000000;stroke-width:2.0px;stroke-linecap:butt;stroke-linejoin:miter;stroke-opacity:1"/>
<path class="bond-18 atom-17 atom-19" d="M 757.7,140.3 L 746.0,135.8" style="fill:none;fill-rule:evenodd;stroke:#FF0000;stroke-width:2.0px;stroke-linecap:butt;stroke-linejoin:miter;stroke-opacity:1"/>
<path class="bond-18 atom-17 atom-19" d="M 771.5,139.1 L 759.8,134.6" style="fill:none;fill-rule:evenodd;stroke:#000000;stroke-width:2.0px;stroke-linecap:butt;stroke-linejoin:miter;stroke-opacity:1"/>
<path class="bond-18 atom-17 atom-19" d="M 759.8,134.6 L 748.1,130.2" style="fill:none;fill-rule:evenodd;stroke:#FF0000;stroke-width:2.0px;stroke-linecap:butt;stroke-linejoin:miter;stroke-opacity:1"/>
<path class="bond-19 atom-6 atom-20" d="M 892.8,76.3 L 916.3,57.2" style="fill:none;fill-rule:evenodd;stroke:#000000;stroke-width:2.0px;stroke-linecap:butt;stroke-linejoin:miter;stroke-opacity:1"/>
<path class="bond-20 atom-20 atom-21" d="M 916.3,57.2 L 914.3,45.0" style="fill:none;fill-rule:evenodd;stroke:#000000;stroke-width:2.0px;stroke-linecap:butt;stroke-linejoin:miter;stroke-opacity:1"/>
<path class="bond-20 atom-20 atom-21" d="M 914.3,45.0 L 912.4,32.8" style="fill:none;fill-rule:evenodd;stroke:#FF0000;stroke-width:2.0px;stroke-linecap:butt;stroke-linejoin:miter;stroke-opacity:1"/>
<path class="bond-21 atom-21 atom-22" d="M 916.4,23.3 L 925.7,15.7" style="fill:none;fill-rule:evenodd;stroke:#FF0000;stroke-width:2.0px;stroke-linecap:butt;stroke-linejoin:miter;stroke-opacity:1"/>
<path class="bond-21 atom-21 atom-22" d="M 925.7,15.7 L 935.0,8.2" style="fill:none;fill-rule:evenodd;stroke:#000000;stroke-width:2.0px;stroke-linecap:butt;stroke-linejoin:miter;stroke-opacity:1"/>
<path class="bond-22 atom-20 atom-23" d="M 916.3,57.2 L 944.6,68.0" style="fill:none;fill-rule:evenodd;stroke:#000000;stroke-width:2.0px;stroke-linecap:butt;stroke-linejoin:miter;stroke-opacity:1"/>
<path class="bond-22 atom-20 atom-23" d="M 918.4,64.5 L 938.2,72.0" style="fill:none;fill-rule:evenodd;stroke:#000000;stroke-width:2.0px;stroke-linecap:butt;stroke-linejoin:miter;stroke-opacity:1"/>
<path class="bond-23 atom-23 atom-3" d="M 944.6,68.0 L 949.4,97.9" style="fill:none;fill-rule:evenodd;stroke:#000000;stroke-width:2.0px;stroke-linecap:butt;stroke-linejoin:miter;stroke-opacity:1"/>
<path class="bond-24 atom-15 atom-10" d="M 789.1,92.9 L 812.6,73.8" style="fill:none;fill-rule:evenodd;stroke:#000000;stroke-width:2.0px;stroke-linecap:butt;stroke-linejoin:miter;stroke-opacity:1"/>
<path class="atom-7" d="M 860.5 65.5 Q 860.5 63.5, 861.5 62.3 Q 862.6 61.2, 864.5 61.2 Q 866.4 61.2, 867.4 62.3 Q 868.4 63.5, 868.4 65.5 Q 868.4 67.6, 867.4 68.8 Q 866.3 70.0, 864.5 70.0 Q 862.6 70.0, 861.5 68.8 Q 860.5 67.6, 860.5 65.5 M 864.5 69.0 Q 865.8 69.0, 866.5 68.1 Q 867.2 67.2, 867.2 65.5 Q 867.2 63.8, 866.5 63.0 Q 865.8 62.1, 864.5 62.1 Q 863.1 62.1, 862.4 63.0 Q 861.7 63.8, 861.7 65.5 Q 861.7 67.2, 862.4 68.1 Q 863.1 69.0, 864.5 69.0 " fill="#FF0000"/>
<path class="atom-9" d="M 841.8 114.5 Q 841.8 112.5, 842.8 111.3 Q 843.8 110.2, 845.7 110.2 Q 847.6 110.2, 848.7 111.3 Q 849.7 112.5, 849.7 114.5 Q 849.7 116.6, 848.6 117.8 Q 847.6 119.0, 845.7 119.0 Q 843.8 119.0, 842.8 117.8 Q 841.8 116.6, 841.8 114.5 M 845.7 118.0 Q 847.0 118.0, 847.7 117.1 Q 848.5 116.3, 848.5 114.5 Q 848.5 112.8, 847.7 112.0 Q 847.0 111.1, 845.7 111.1 Q 844.4 111.1, 843.7 112.0 Q 843.0 112.8, 843.0 114.5 Q 843.0 116.3, 843.7 117.1 Q 844.4 118.0, 845.7 118.0 " fill="#FF0000"/>
<path class="atom-16" d="M 790.0 122.8 Q 790.0 120.8, 791.0 119.6 Q 792.0 118.5, 793.9 118.5 Q 795.8 118.5, 796.8 119.6 Q 797.9 120.8, 797.9 122.8 Q 797.9 124.9, 796.8 126.1 Q 795.8 127.3, 793.9 127.3 Q 792.0 127.3, 791.0 126.1 Q 790.0 124.9, 790.0 122.8 M 793.9 126.3 Q 795.2 126.3, 795.9 125.4 Q 796.7 124.5, 796.7 122.8 Q 796.7 121.1, 795.9 120.3 Q 795.2 119.4, 793.9 119.4 Q 792.6 119.4, 791.9 120.3 Q 791.2 121.1, 791.2 122.8 Q 791.2 124.6, 791.9 125.4 Q 792.6 126.3, 793.9 126.3 " fill="#FF0000"/>
<path class="atom-19" d="M 738.2 131.1 Q 738.2 129.1, 739.2 127.9 Q 740.2 126.8, 742.1 126.8 Q 744.0 126.8, 745.0 127.9 Q 746.1 129.1, 746.1 131.1 Q 746.1 133.2, 745.0 134.4 Q 744.0 135.6, 742.1 135.6 Q 740.2 135.6, 739.2 134.4 Q 738.2 133.2, 738.2 131.1 M 742.1 134.6 Q 743.4 134.6, 744.1 133.7 Q 744.8 132.8, 744.8 131.1 Q 744.8 129.4, 744.1 128.6 Q 743.4 127.7, 742.1 127.7 Q 740.8 127.7, 740.1 128.6 Q 739.4 129.4, 739.4 131.1 Q 739.4 132.9, 740.1 133.7 Q 740.8 134.6, 742.1 134.6 " fill="#FF0000"/>
<path class="atom-21" d="M 907.5 27.3 Q 907.5 25.2, 908.6 24.1 Q 909.6 22.9, 911.5 22.9 Q 913.4 22.9, 914.4 24.1 Q 915.4 25.2, 915.4 27.3 Q 915.4 29.4, 914.4 30.6 Q 913.4 31.8, 911.5 31.8 Q 909.6 31.8, 908.6 30.6 Q 907.5 29.4, 907.5 27.3 M 911.5 30.8 Q 912.8 30.8, 913.5 29.9 Q 914.2 29.0, 914.2 27.3 Q 914.2 25.6, 913.5 24.8 Q 912.8 23.9, 911.5 23.9 Q 910.2 23.9, 909.5 24.8 Q 908.8 25.6, 908.8 27.3 Q 908.8 29.0, 909.5 29.9 Q 910.2 30.8, 911.5 30.8 " fill="#FF0000"/>
<path class="legend" d="M 787.9 190.2 L 793.2 182.0 L 788.1 182.0 L 788.1 180.8 L 795.0 180.8 L 795.0 181.8 L 789.7 190.0 L 794.9 190.0 L 794.9 191.3 L 787.9 191.3 L 787.9 190.2 " fill="#000000"/>
<path class="legend" d="M 795.6 180.7 L 797.0 180.7 L 797.0 191.3 L 795.6 191.3 L 795.6 180.7 " fill="#000000"/>
<path class="legend" d="M 800.0 180.8 L 803.5 186.3 Q 803.8 186.9, 804.3 187.9 Q 804.9 188.9, 804.9 188.9 L 804.9 180.8 L 806.3 180.8 L 806.3 191.3 L 804.9 191.3 L 801.2 185.2 Q 800.7 184.5, 800.3 183.7 Q 799.8 182.8, 799.7 182.6 L 799.7 191.3 L 798.3 191.3 L 798.3 180.8 L 800.0 180.8 " fill="#000000"/>
<path class="legend" d="M 807.5 186.0 Q 807.5 183.4, 808.8 182.0 Q 810.0 180.6, 812.3 180.6 Q 814.5 180.6, 815.7 182.2 L 814.7 183.0 Q 813.8 181.9, 812.3 181.9 Q 810.7 181.9, 809.9 182.9 Q 809.1 184.0, 809.1 186.0 Q 809.1 188.1, 809.9 189.1 Q 810.8 190.2, 812.5 190.2 Q 813.7 190.2, 815.0 189.5 L 815.4 190.6 Q 814.9 191.0, 814.0 191.2 Q 813.2 191.4, 812.3 191.4 Q 810.0 191.4, 808.8 190.0 Q 807.5 188.6, 807.5 186.0 " fill="#000000"/>
<path class="legend" d="M 816.8 190.1 L 819.1 190.1 L 819.1 182.2 L 816.6 183.0 L 816.3 182.1 L 819.5 180.7 L 820.5 180.9 L 820.5 190.1 L 822.6 190.1 L 822.6 191.3 L 816.8 191.3 L 816.8 190.1 " fill="#000000"/>
<path class="legend" d="M 827.1 191.4 Q 825.1 191.4, 824.2 190.0 Q 823.2 188.5, 823.2 186.0 Q 823.2 183.5, 824.2 182.0 Q 825.1 180.6, 827.1 180.6 Q 829.0 180.6, 830.0 182.0 Q 830.9 183.5, 830.9 186.0 Q 830.9 188.5, 829.9 190.0 Q 829.0 191.4, 827.1 191.4 M 827.1 190.2 Q 828.2 190.2, 828.8 189.1 Q 829.4 188.1, 829.4 186.0 Q 829.4 183.9, 828.8 182.9 Q 828.2 181.8, 827.1 181.8 Q 825.9 181.8, 825.3 182.9 Q 824.7 183.9, 824.7 186.0 Q 824.7 188.1, 825.3 189.1 Q 825.9 190.2, 827.1 190.2 " fill="#000000"/>
<path class="legend" d="M 836.9 185.7 Q 838.0 186.0, 838.4 186.7 Q 838.9 187.4, 838.9 188.4 Q 838.9 189.3, 838.5 190.0 Q 838.1 190.7, 837.2 191.0 Q 836.4 191.4, 835.4 191.4 Q 834.2 191.4, 833.4 191.0 Q 832.5 190.6, 831.9 189.8 L 832.7 189.0 Q 833.4 189.7, 833.9 190.0 Q 834.5 190.2, 835.4 190.2 Q 836.3 190.2, 836.9 189.7 Q 837.5 189.2, 837.5 188.4 Q 837.5 187.3, 836.9 186.8 Q 836.3 186.3, 835.0 186.3 L 834.2 186.3 L 834.2 185.3 L 834.9 185.3 Q 836.0 185.3, 836.6 184.8 Q 837.2 184.3, 837.2 183.3 Q 837.2 182.6, 836.7 182.2 Q 836.2 181.8, 835.4 181.8 Q 834.5 181.8, 833.9 182.1 Q 833.4 182.5, 833.0 183.2 L 832.0 182.7 Q 832.3 181.8, 833.2 181.2 Q 834.1 180.6, 835.4 180.6 Q 836.9 180.6, 837.8 181.4 Q 838.7 182.1, 838.7 183.3 Q 838.7 184.2, 838.3 184.8 Q 837.8 185.4, 836.9 185.7 " fill="#000000"/>
<path class="legend" d="M 839.9 182.7 Q 840.2 181.8, 841.2 181.2 Q 842.1 180.6, 843.4 180.6 Q 844.9 180.6, 845.8 181.5 Q 846.7 182.4, 846.7 183.9 Q 846.7 185.5, 845.6 186.9 Q 844.4 188.4, 842.0 190.1 L 846.9 190.1 L 846.9 191.3 L 839.8 191.3 L 839.8 190.3 Q 841.8 188.9, 842.9 187.8 Q 844.1 186.8, 844.7 185.9 Q 845.2 184.9, 845.2 184.0 Q 845.2 183.0, 844.7 182.4 Q 844.2 181.8, 843.4 181.8 Q 842.5 181.8, 841.9 182.2 Q 841.4 182.5, 841.0 183.3 L 839.9 182.7 " fill="#000000"/>
<path class="legend" d="M 853.2 185.7 Q 854.1 186.1, 854.7 186.7 Q 855.2 187.4, 855.2 188.4 Q 855.2 189.3, 854.8 190.0 Q 854.3 190.7, 853.5 191.0 Q 852.7 191.4, 851.6 191.4 Q 849.8 191.4, 848.8 190.6 Q 847.8 189.8, 847.8 188.4 Q 847.8 187.5, 848.2 186.9 Q 848.7 186.2, 849.6 185.7 Q 848.9 185.4, 848.6 184.8 Q 848.2 184.2, 848.2 183.3 Q 848.2 182.1, 849.1 181.4 Q 850.0 180.6, 851.5 180.6 Q 853.0 180.6, 853.9 181.4 Q 854.8 182.1, 854.8 183.3 Q 854.8 184.1, 854.4 184.7 Q 854.0 185.2, 853.2 185.7 M 851.5 181.8 Q 850.6 181.8, 850.1 182.2 Q 849.7 182.6, 849.7 183.3 Q 849.7 183.9, 850.0 184.2 Q 850.3 184.6, 850.8 184.8 Q 851.3 185.0, 852.2 185.3 Q 852.8 184.9, 853.1 184.4 Q 853.4 183.9, 853.4 183.3 Q 853.4 182.6, 852.9 182.2 Q 852.4 181.8, 851.5 181.8 M 851.6 190.3 Q 852.5 190.3, 853.1 189.8 Q 853.7 189.3, 853.7 188.4 Q 853.7 187.8, 853.4 187.5 Q 853.1 187.1, 852.6 186.9 Q 852.2 186.7, 851.3 186.4 L 850.7 186.2 Q 849.9 186.6, 849.6 187.2 Q 849.3 187.7, 849.3 188.4 Q 849.3 189.3, 849.9 189.8 Q 850.5 190.3, 851.6 190.3 " fill="#000000"/>
<path class="legend" d="M 856.2 182.7 Q 856.6 181.8, 857.5 181.2 Q 858.4 180.6, 859.7 180.6 Q 861.3 180.6, 862.2 181.5 Q 863.1 182.4, 863.1 183.9 Q 863.1 185.5, 861.9 186.9 Q 860.8 188.4, 858.4 190.1 L 863.2 190.1 L 863.2 191.3 L 856.2 191.3 L 856.2 190.3 Q 858.1 188.9, 859.3 187.8 Q 860.5 186.8, 861.0 185.9 Q 861.6 184.9, 861.6 184.0 Q 861.6 183.0, 861.1 182.4 Q 860.6 181.8, 859.7 181.8 Q 858.8 181.8, 858.3 182.2 Q 857.7 182.5, 857.3 183.3 L 856.2 182.7 " fill="#000000"/>
<path class="legend" d="M 867.7 180.6 Q 869.5 180.6, 870.5 181.9 Q 871.4 183.2, 871.4 185.7 Q 871.4 188.5, 870.3 190.0 Q 869.1 191.4, 866.9 191.4 Q 866.2 191.4, 865.6 191.2 Q 865.1 191.1, 864.5 190.8 L 865.1 189.8 Q 865.9 190.2, 866.8 190.2 Q 868.3 190.2, 869.1 189.3 Q 869.8 188.3, 869.9 186.3 Q 869.4 186.8, 868.7 187.1 Q 868.0 187.3, 867.3 187.3 Q 866.4 187.3, 865.7 186.9 Q 864.9 186.5, 864.5 185.8 Q 864.1 185.1, 864.1 184.1 Q 864.1 183.1, 864.6 182.3 Q 865.0 181.5, 865.8 181.1 Q 866.6 180.6, 867.7 180.6 M 865.6 184.1 Q 865.6 185.1, 866.1 185.6 Q 866.7 186.1, 867.6 186.1 Q 868.2 186.1, 868.8 185.9 Q 869.5 185.6, 869.9 185.2 Q 869.9 183.4, 869.3 182.6 Q 868.8 181.9, 867.7 181.9 Q 867.1 181.9, 866.6 182.2 Q 866.2 182.5, 865.9 183.0 Q 865.6 183.5, 865.6 184.1 " fill="#000000"/>
<path class="legend" d="M 877.9 181.9 L 872.4 181.9 L 872.4 180.8 L 879.4 180.8 L 879.4 181.8 L 875.2 191.3 L 873.7 191.3 L 877.9 181.9 " fill="#000000"/>
<path class="legend" d="M 883.4 180.6 Q 885.3 180.6, 886.2 181.9 Q 887.1 183.2, 887.1 185.7 Q 887.1 188.5, 886.0 190.0 Q 884.8 191.4, 882.6 191.4 Q 881.9 191.4, 881.3 191.2 Q 880.8 191.1, 880.3 190.8 L 880.8 189.8 Q 881.6 190.2, 882.5 190.2 Q 884.0 190.2, 884.8 189.3 Q 885.5 188.3, 885.6 186.3 Q 885.1 186.8, 884.4 187.1 Q 883.8 187.3, 883.0 187.3 Q 882.1 187.3, 881.4 186.9 Q 880.6 186.5, 880.2 185.8 Q 879.8 185.1, 879.8 184.1 Q 879.8 183.1, 880.3 182.3 Q 880.8 181.5, 881.6 181.1 Q 882.4 180.6, 883.4 180.6 M 881.3 184.1 Q 881.3 185.1, 881.9 185.6 Q 882.4 186.1, 883.3 186.1 Q 883.9 186.1, 884.6 185.9 Q 885.2 185.6, 885.6 185.2 Q 885.6 183.4, 885.0 182.6 Q 884.5 181.9, 883.4 181.9 Q 882.8 181.9, 882.3 182.2 Q 881.9 182.5, 881.6 183.0 Q 881.3 183.5, 881.3 184.1 " fill="#000000"/>
<path class="legend" d="" fill="#000000"/>
<path class="legend" d="M 898.1 185.7 Q 899.2 186.0, 899.7 186.7 Q 900.2 187.4, 900.2 188.4 Q 900.2 189.3, 899.7 190.0 Q 899.3 190.7, 898.5 191.0 Q 897.6 191.4, 896.6 191.4 Q 895.4 191.4, 894.6 191.0 Q 893.8 190.6, 893.1 189.8 L 893.9 189.0 Q 894.6 189.7, 895.1 190.0 Q 895.7 190.2, 896.6 190.2 Q 897.5 190.2, 898.1 189.7 Q 898.7 189.2, 898.7 188.4 Q 898.7 187.3, 898.1 186.8 Q 897.5 186.3, 896.2 186.3 L 895.4 186.3 L 895.4 185.3 L 896.1 185.3 Q 897.2 185.3, 897.9 184.8 Q 898.5 184.3, 898.5 183.3 Q 898.5 182.6, 898.0 182.2 Q 897.5 181.8, 896.6 181.8 Q 895.7 181.8, 895.2 182.1 Q 894.6 182.5, 894.2 183.2 L 893.2 182.7 Q 893.6 181.8, 894.5 181.2 Q 895.3 180.6, 896.6 180.6 Q 898.1 180.6, 899.0 181.4 Q 899.9 182.1, 899.9 183.3 Q 899.9 184.2, 899.5 184.8 Q 899.0 185.4, 898.1 185.7 " fill="#000000"/>
<path class="legend" d="M 901.1 182.7 Q 901.5 181.8, 902.4 181.2 Q 903.3 180.6, 904.6 180.6 Q 906.2 180.6, 907.1 181.5 Q 908.0 182.4, 908.0 183.9 Q 908.0 185.5, 906.8 186.9 Q 905.6 188.4, 903.3 190.1 L 908.1 190.1 L 908.1 191.3 L 901.0 191.3 L 901.0 190.3 Q 903.0 188.9, 904.2 187.8 Q 905.3 186.8, 905.9 185.9 Q 906.5 184.9, 906.5 184.0 Q 906.5 183.0, 906.0 182.4 Q 905.5 181.8, 904.6 181.8 Q 903.7 181.8, 903.2 182.2 Q 902.6 182.5, 902.2 183.3 L 901.1 182.7 " fill="#000000"/>
<path class="legend" d="M 913.1 184.7 Q 914.1 184.7, 914.8 185.1 Q 915.5 185.5, 915.9 186.2 Q 916.3 187.0, 916.3 187.9 Q 916.3 188.9, 915.9 189.7 Q 915.4 190.5, 914.6 190.9 Q 913.8 191.4, 912.8 191.4 Q 910.9 191.4, 910.0 190.1 Q 909.0 188.9, 909.0 186.3 Q 909.0 183.5, 910.2 182.1 Q 911.4 180.6, 913.6 180.6 Q 914.2 180.6, 914.8 180.8 Q 915.4 180.9, 915.9 181.2 L 915.3 182.2 Q 914.5 181.8, 913.6 181.8 Q 912.1 181.8, 911.4 182.8 Q 910.6 183.7, 910.5 185.7 Q 911.1 185.2, 911.7 185.0 Q 912.4 184.7, 913.1 184.7 M 912.8 190.2 Q 913.4 190.2, 913.8 189.9 Q 914.3 189.6, 914.6 189.1 Q 914.8 188.5, 914.8 187.9 Q 914.8 187.0, 914.3 186.4 Q 913.8 185.9, 912.9 185.9 Q 912.2 185.9, 911.6 186.2 Q 911.0 186.4, 910.5 186.9 Q 910.6 188.6, 911.1 189.4 Q 911.7 190.2, 912.8 190.2 " fill="#000000"/>
<path class="legend" d="M 917.1 189.8 L 918.6 189.8 L 918.6 191.3 L 917.1 191.3 L 917.1 189.8 " fill="#000000"/>
<path class="legend" d="M 920.2 190.1 L 922.5 190.1 L 922.5 182.2 L 919.9 183.0 L 919.6 182.1 L 922.8 180.7 L 923.9 180.9 L 923.9 190.1 L 925.9 190.1 L 925.9 191.3 L 920.2 191.3 L 920.2 190.1 " fill="#000000"/>
<path class="legend" d="M 933.5 183.6 L 933.5 191.7 Q 933.5 195.0, 930.0 195.0 Q 928.3 195.0, 926.8 194.2 L 927.3 193.2 Q 928.1 193.6, 928.7 193.8 Q 929.3 193.9, 930.0 193.9 Q 931.1 193.9, 931.6 193.4 Q 932.1 192.9, 932.1 191.7 L 932.1 190.4 Q 931.3 191.4, 929.9 191.4 Q 928.3 191.4, 927.4 190.4 Q 926.5 189.4, 926.5 187.6 Q 926.5 185.7, 927.6 184.6 Q 928.6 183.5, 930.5 183.5 Q 931.4 183.5, 932.3 183.8 L 932.4 183.6 L 933.5 183.6 M 930.0 190.3 Q 930.8 190.3, 931.3 189.9 Q 931.9 189.4, 932.1 188.7 L 932.1 184.8 Q 931.3 184.6, 930.5 184.6 Q 929.3 184.6, 928.6 185.4 Q 928.0 186.2, 928.0 187.6 Q 928.0 188.9, 928.5 189.6 Q 929.0 190.3, 930.0 190.3 " fill="#000000"/>
<path class="legend" d="M 938.5 180.3 L 939.7 180.3 L 935.9 192.2 L 934.7 192.2 L 938.5 180.3 " fill="#000000"/>
<path class="legend" d="M 949.1 183.5 Q 950.4 183.5, 951.0 184.2 Q 951.7 184.9, 951.7 186.2 L 951.7 191.3 L 950.3 191.3 L 950.3 186.3 Q 950.3 185.4, 949.9 185.0 Q 949.6 184.6, 948.8 184.6 Q 948.1 184.6, 947.5 184.9 Q 947.0 185.2, 946.6 185.8 Q 946.7 185.9, 946.7 186.2 L 946.7 191.3 L 945.3 191.3 L 945.3 186.3 Q 945.3 185.4, 944.9 185.0 Q 944.6 184.6, 943.8 184.6 Q 943.1 184.6, 942.6 184.9 Q 942.0 185.2, 941.6 185.8 L 941.6 191.3 L 940.2 191.3 L 940.2 183.6 L 941.4 183.6 L 941.5 184.7 Q 942.5 183.5, 944.1 183.5 Q 945.9 183.5, 946.4 184.8 Q 947.4 183.5, 949.1 183.5 " fill="#000000"/>
<path class="legend" d="M 952.8 187.4 Q 952.8 185.6, 953.7 184.5 Q 954.7 183.5, 956.4 183.5 Q 958.2 183.5, 959.1 184.5 Q 960.0 185.6, 960.0 187.4 Q 960.0 189.3, 959.1 190.4 Q 958.2 191.4, 956.4 191.4 Q 954.7 191.4, 953.7 190.4 Q 952.8 189.3, 952.8 187.4 M 954.2 187.4 Q 954.2 188.8, 954.8 189.6 Q 955.4 190.3, 956.4 190.3 Q 957.5 190.3, 958.0 189.6 Q 958.6 188.8, 958.6 187.4 Q 958.6 186.0, 958.0 185.3 Q 957.5 184.6, 956.4 184.6 Q 955.4 184.6, 954.8 185.3 Q 954.2 186.0, 954.2 187.4 " fill="#000000"/>
<path class="legend" d="M 960.7 180.0 L 962.1 180.0 L 962.1 191.3 L 960.7 191.3 L 960.7 180.0 " fill="#000000"/>
</svg>