<svg xmlns="http://www.w3.org/2000/svg" xmlns:rdkit="http://www.rdkit.org/xml" xmlns:xlink="http://www.w3.org/1999/xlink" version="1.1" baseProfile="full" xml:space="preserve" width="1400px" height="400px" viewBox="0 0 1400 400">
<!-- END OF HEADER -->
<rect style="opacity:1.0;fill:#FFFFFF;stroke:none" width="1400.0" height="400.0" x="0.0" y="0.0"> </rect>
<path class="bond-0 atom-0 atom-1" d="M 139.3,119.4 L 155.3,110.1" style="fill:none;fill-rule:evenodd;stroke:#191919;stroke-width:2.0px;stroke-linecap:butt;stroke-linejoin:miter;stroke-opacity:1"/>
<path class="bond-0 atom-0 atom-1" d="M 155.3,110.1 L 171.4,100.9" style="fill:none;fill-rule:evenodd;stroke:#0000FF;stroke-width:2.0px;stroke-linecap:butt;stroke-linejoin:miter;stroke-opacity:1"/>
<path class="bond-1 atom-1 atom-2" d="M 185.8,100.9 L 198.3,108.1" style="fill:none;fill-rule:evenodd;stroke:#0000FF;stroke-width:2.0px;stroke-linecap:butt;stroke-linejoin:miter;stroke-opacity:1"/>
<path class="bond-1 atom-1 atom-2" d="M 198.3,108.1 L 210.7,115.3" style="fill:none;fill-rule:evenodd;stroke:#191919;stroke-width:2.0px;stroke-linecap:butt;stroke-linejoin:miter;stroke-opacity:1"/>
<path class="atom-0" d="M 127.0 120.4 Q 127.9 120.4, 128.6 120.8 Q 129.3 121.1, 129.6 121.8 Q 130.0 122.5, 130.0 123.4 Q 130.0 124.4, 129.6 125.1 Q 129.1 125.8, 128.3 126.2 Q 127.5 126.5, 126.6 126.5 Q 125.7 126.5, 124.9 126.2 Q 124.1 125.9, 123.6 125.3 L 124.4 124.4 Q 124.8 124.9, 125.4 125.2 Q 126.0 125.4, 126.7 125.4 Q 127.5 125.4, 128.1 124.9 Q 128.7 124.4, 128.7 123.4 Q 128.7 122.4, 128.1 121.9 Q 127.5 121.4, 126.6 121.4 Q 125.7 121.4, 124.8 121.8 L 124.1 121.5 L 124.5 116.8 L 129.4 116.8 L 129.3 117.9 L 125.6 117.9 L 125.3 120.8 Q 126.2 120.4, 127.0 120.4 " fill="#191919"/>
<path class="atom-0" d="M 131.4 120.7 L 133.5 118.6 L 130.7 118.0 L 131.1 116.5 L 133.7 117.9 L 133.4 115.0 L 134.9 115.0 L 134.5 117.8 L 137.1 116.6 L 137.6 118.0 L 134.7 118.5 L 136.7 120.7 L 135.5 121.6 L 134.1 118.9 L 132.6 121.6 L 131.4 120.7 " fill="#191919"/>
<path class="atom-1" d="M 175.4 89.4 L 180.1 97.1 Q 180.6 97.9, 181.4 99.3 Q 182.1 100.7, 182.2 100.7 L 182.2 89.4 L 184.1 89.4 L 184.1 104.0 L 182.1 104.0 L 177.0 95.6 Q 176.4 94.6, 175.7 93.4 Q 175.1 92.3, 174.9 92.0 L 174.9 104.0 L 173.1 104.0 L 173.1 89.4 L 175.4 89.4 " fill="#0000FF"/>
<path class="atom-1" d="M 172.9 73.5 L 174.9 73.5 L 174.9 79.6 L 182.3 79.6 L 182.3 73.5 L 184.3 73.5 L 184.3 88.0 L 182.3 88.0 L 182.3 81.3 L 174.9 81.3 L 174.9 88.0 L 172.9 88.0 L 172.9 73.5 " fill="#0000FF"/>
<path class="atom-2" d="M 215.9 120.4 Q 216.8 120.4, 217.4 120.8 Q 218.1 121.1, 218.5 121.8 Q 218.9 122.5, 218.9 123.4 Q 218.9 124.4, 218.4 125.1 Q 218.0 125.8, 217.2 126.2 Q 216.4 126.5, 215.5 126.5 Q 214.6 126.5, 213.8 126.2 Q 213.0 125.9, 212.4 125.3 L 213.2 124.4 Q 213.7 124.9, 214.3 125.2 Q 214.9 125.4, 215.5 125.4 Q 216.4 125.4, 217.0 124.9 Q 217.6 124.4, 217.6 123.4 Q 217.6 122.4, 217.0 121.9 Q 216.4 121.4, 215.5 121.4 Q 214.6 121.4, 213.7 121.8 L 212.9 121.5 L 213.4 116.8 L 218.3 116.8 L 218.2 117.9 L 214.5 117.9 L 214.2 120.8 Q 215.1 120.4, 215.9 120.4 " fill="#191919"/>
<path class="atom-2" d="M 220.3 120.7 L 222.4 118.6 L 219.6 118.0 L 220.0 116.5 L 222.6 117.9 L 222.2 115.0 L 223.8 115.0 L 223.3 117.8 L 226.0 116.6 L 226.4 118.0 L 223.6 118.5 L 225.6 120.7 L 224.4 121.6 L 223.0 118.9 L 221.5 121.6 L 220.3 120.7 " fill="#191919"/>
<path class="bond-0 atom-0 atom-1" d="M 458.6,102.5 L 479.7,93.5" style="fill:none;fill-rule:evenodd;stroke:#191919;stroke-width:2.0px;stroke-linecap:butt;stroke-linejoin:miter;stroke-opacity:1"/>
<path class="bond-0 atom-0 atom-1" d="M 479.7,93.5 L 500.7,84.6" style="fill:none;fill-rule:evenodd;stroke:#000000;stroke-width:2.0px;stroke-linecap:butt;stroke-linejoin:miter;stroke-opacity:1"/>
<path class="bond-1 atom-1 atom-2" d="M 500.7,84.6 L 541.7,115.4" style="fill:none;fill-rule:evenodd;stroke:#000000;stroke-width:2.0px;stroke-linecap:butt;stroke-linejoin:miter;stroke-opacity:1"/>
<path class="bond-2 atom-2 atom-3" d="M 541.7,115.4 L 561.1,107.2" style="fill:none;fill-rule:evenodd;stroke:#000000;stroke-width:2.0px;stroke-linecap:butt;stroke-linejoin:miter;stroke-opacity:1"/>
<path class="bond-2 atom-2 atom-3" d="M 561.1,107.2 L 580.6,98.9" style="fill:none;fill-rule:evenodd;stroke:#FF0000;stroke-width:2.0px;stroke-linecap:butt;stroke-linejoin:miter;stroke-opacity:1"/>
<path class="atom-0" d="M 448.2 105.4 L 449.4 105.4 L 449.4 106.5 L 448.2 106.5 L 448.2 108.7 L 447.0 108.7 L 447.0 106.5 L 442.0 106.5 L 442.0 105.7 L 446.2 99.1 L 448.2 99.1 L 448.2 105.4 M 443.6 105.4 L 447.0 105.4 L 447.0 100.0 L 443.6 105.4 " fill="#191919"/>
<path class="atom-0" d="M 450.7 103.0 L 452.9 100.9 L 450.1 100.3 L 450.5 98.8 L 453.1 100.2 L 452.7 97.3 L 454.3 97.3 L 453.8 100.1 L 456.5 98.9 L 456.9 100.3 L 454.1 100.8 L 456.1 103.0 L 454.9 103.9 L 453.4 101.2 L 452.0 103.9 L 450.7 103.0 " fill="#191919"/>
<path class="atom-3" d="M 582.3 95.4 Q 582.3 91.9, 584.0 89.9 Q 585.7 88.0, 588.9 88.0 Q 592.2 88.0, 593.9 89.9 Q 595.6 91.9, 595.6 95.4 Q 595.6 98.9, 593.9 100.9 Q 592.1 102.9, 588.9 102.9 Q 585.7 102.9, 584.0 100.9 Q 582.3 98.9, 582.3 95.4 M 588.9 101.3 Q 591.1 101.3, 592.3 99.8 Q 593.5 98.3, 593.5 95.4 Q 593.5 92.5, 592.3 91.1 Q 591.1 89.6, 588.9 89.6 Q 586.7 89.6, 585.5 91.1 Q 584.3 92.5, 584.3 95.4 Q 584.3 98.3, 585.5 99.8 Q 586.7 101.3, 588.9 101.3 " fill="#FF0000"/>
<path class="atom-3" d="M 596.6 88.1 L 598.6 88.1 L 598.6 94.3 L 606.0 94.3 L 606.0 88.1 L 608.0 88.1 L 608.0 102.7 L 606.0 102.7 L 606.0 96.0 L 598.6 96.0 L 598.6 102.7 L 596.6 102.7 L 596.6 88.1 " fill="#FF0000"/>
<path class="bond-0 atom-0 atom-1" d="M 870.8,165.8 L 870.8,144.7" style="fill:none;fill-rule:evenodd;stroke:#191919;stroke-width:2.0px;stroke-linecap:butt;stroke-linejoin:miter;stroke-opacity:1"/>
<path class="bond-0 atom-0 atom-1" d="M 870.8,144.7 L 870.8,123.6" style="fill:none;fill-rule:evenodd;stroke:#000000;stroke-width:2.0px;stroke-linecap:butt;stroke-linejoin:miter;stroke-opacity:1"/>
<path class="bond-1 atom-1 atom-2" d="M 870.8,123.6 L 826.4,97.9" style="fill:none;fill-rule:evenodd;stroke:#000000;stroke-width:2.0px;stroke-linecap:butt;stroke-linejoin:miter;stroke-opacity:1"/>
<path class="bond-1 atom-1 atom-2" d="M 869.3,110.8 L 838.2,92.9" style="fill:none;fill-rule:evenodd;stroke:#000000;stroke-width:2.0px;stroke-linecap:butt;stroke-linejoin:miter;stroke-opacity:1"/>
<path class="bond-2 atom-2 atom-3" d="M 826.4,97.9 L 782.0,123.6" style="fill:none;fill-rule:evenodd;stroke:#000000;stroke-width:2.0px;stroke-linecap:butt;stroke-linejoin:miter;stroke-opacity:1"/>
<path class="bond-3 atom-2 atom-4" d="M 826.4,97.9 L 826.4,46.6" style="fill:none;fill-rule:evenodd;stroke:#000000;stroke-width:2.0px;stroke-linecap:butt;stroke-linejoin:miter;stroke-opacity:1"/>
<path class="bond-4 atom-4 atom-5" d="M 826.4,46.6 L 870.8,20.9" style="fill:none;fill-rule:evenodd;stroke:#000000;stroke-width:2.0px;stroke-linecap:butt;stroke-linejoin:miter;stroke-opacity:1"/>
<path class="bond-4 atom-4 atom-5" d="M 838.2,51.6 L 869.3,33.7" style="fill:none;fill-rule:evenodd;stroke:#000000;stroke-width:2.0px;stroke-linecap:butt;stroke-linejoin:miter;stroke-opacity:1"/>
<path class="bond-5 atom-5 atom-6" d="M 870.8,20.9 L 915.3,46.6" style="fill:none;fill-rule:evenodd;stroke:#000000;stroke-width:2.0px;stroke-linecap:butt;stroke-linejoin:miter;stroke-opacity:1"/>
<path class="bond-6 atom-6 atom-7" d="M 915.3,46.6 L 915.3,97.9" style="fill:none;fill-rule:evenodd;stroke:#000000;stroke-width:2.0px;stroke-linecap:butt;stroke-linejoin:miter;stroke-opacity:1"/>
<path class="bond-6 atom-6 atom-7" d="M 905.0,54.3 L 905.0,90.2" style="fill:none;fill-rule:evenodd;stroke:#000000;stroke-width:2.0px;stroke-linecap:butt;stroke-linejoin:miter;stroke-opacity:1"/>
<path class="bond-7 atom-7 atom-8" d="M 915.3,97.9 L 933.9,108.6" style="fill:none;fill-rule:evenodd;stroke:#000000;stroke-width:2.0px;stroke-linecap:butt;stroke-linejoin:miter;stroke-opacity:1"/>
<path class="bond-7 atom-7 atom-8" d="M 933.9,108.6 L 952.4,119.4" style="fill:none;fill-rule:evenodd;stroke:#00CC00;stroke-width:2.0px;stroke-linecap:butt;stroke-linejoin:miter;stroke-opacity:1"/>
<path class="bond-8 atom-7 atom-1" d="M 915.3,97.9 L 870.8,123.6" style="fill:none;fill-rule:evenodd;stroke:#000000;stroke-width:2.0px;stroke-linecap:butt;stroke-linejoin:miter;stroke-opacity:1"/>
<path class="atom-0" d="M 854.2 177.9 L 856.3 177.9 L 856.3 170.7 L 854.0 171.4 L 853.7 170.6 L 856.6 169.3 L 857.6 169.5 L 857.6 177.9 L 859.4 177.9 L 859.4 178.9 L 854.2 178.9 L 854.2 177.9 " fill="#191919"/>
<path class="atom-0" d="M 863.8 173.0 Q 864.6 173.0, 865.3 173.3 Q 865.9 173.7, 866.3 174.4 Q 866.7 175.0, 866.7 175.9 Q 866.7 176.8, 866.2 177.5 Q 865.8 178.2, 865.1 178.6 Q 864.4 179.1, 863.4 179.1 Q 861.7 179.1, 860.9 177.9 Q 860.0 176.7, 860.0 174.4 Q 860.0 171.9, 861.1 170.6 Q 862.1 169.2, 864.2 169.2 Q 864.8 169.2, 865.3 169.4 Q 865.8 169.5, 866.3 169.8 L 865.8 170.7 Q 865.0 170.3, 864.2 170.3 Q 862.8 170.3, 862.1 171.2 Q 861.5 172.1, 861.4 173.9 Q 861.9 173.4, 862.5 173.2 Q 863.1 173.0, 863.8 173.0 M 863.5 177.9 Q 864.0 177.9, 864.4 177.7 Q 864.8 177.4, 865.1 176.9 Q 865.3 176.5, 865.3 175.9 Q 865.3 175.0, 864.8 174.5 Q 864.4 174.0, 863.5 174.0 Q 862.9 174.0, 862.4 174.3 Q 861.8 174.5, 861.4 174.9 Q 861.4 176.5, 861.9 177.2 Q 862.4 177.9, 863.5 177.9 " fill="#191919"/>
<path class="atom-0" d="M 868.1 173.3 L 870.2 171.1 L 867.4 170.5 L 867.8 169.1 L 870.4 170.4 L 870.1 167.5 L 871.6 167.5 L 871.2 170.3 L 873.8 169.1 L 874.3 170.5 L 871.4 171.0 L 873.5 173.2 L 872.2 174.1 L 870.8 171.4 L 869.4 174.1 L 868.1 173.3 " fill="#191919"/>
<path class="atom-8" d="M 954.1 124.1 Q 954.1 120.5, 955.8 118.6 Q 957.5 116.7, 960.7 116.7 Q 963.7 116.7, 965.3 118.8 L 964.0 119.9 Q 962.8 118.3, 960.7 118.3 Q 958.5 118.3, 957.4 119.8 Q 956.2 121.3, 956.2 124.1 Q 956.2 126.9, 957.4 128.4 Q 958.6 129.9, 961.0 129.9 Q 962.6 129.9, 964.4 128.9 L 965.0 130.5 Q 964.2 131.0, 963.1 131.3 Q 961.9 131.5, 960.7 131.5 Q 957.5 131.5, 955.8 129.6 Q 954.1 127.7, 954.1 124.1 " fill="#00CC00"/>
<path class="atom-8" d="M 966.1 115.8 L 968.0 115.8 L 968.0 131.4 L 966.1 131.4 L 966.1 115.8 " fill="#00CC00"/>
<path class="bond-0 atom-0 atom-1" d="M 1289.6,98.0 L 1273.7,98.0" style="fill:none;fill-rule:evenodd;stroke:#191919;stroke-width:2.0px;stroke-linecap:butt;stroke-linejoin:miter;stroke-opacity:1"/>
<path class="bond-0 atom-0 atom-1" d="M 1273.7,98.0 L 1257.9,98.0" style="fill:none;fill-rule:evenodd;stroke:#000000;stroke-width:2.0px;stroke-linecap:butt;stroke-linejoin:miter;stroke-opacity:1"/>
<path class="bond-1 atom-1 atom-2" d="M 1257.9,98.0 L 1232.2,142.4" style="fill:none;fill-rule:evenodd;stroke:#000000;stroke-width:2.0px;stroke-linecap:butt;stroke-linejoin:miter;stroke-opacity:1"/>
<path class="bond-1 atom-1 atom-2" d="M 1245.1,99.5 L 1227.2,130.6" style="fill:none;fill-rule:evenodd;stroke:#000000;stroke-width:2.0px;stroke-linecap:butt;stroke-linejoin:miter;stroke-opacity:1"/>
<path class="bond-2 atom-2 atom-3" d="M 1232.2,142.4 L 1180.9,142.4" style="fill:none;fill-rule:evenodd;stroke:#000000;stroke-width:2.0px;stroke-linecap:butt;stroke-linejoin:miter;stroke-opacity:1"/>
<path class="bond-3 atom-3 atom-4" d="M 1180.9,142.4 L 1170.6,160.2" style="fill:none;fill-rule:evenodd;stroke:#000000;stroke-width:2.0px;stroke-linecap:butt;stroke-linejoin:miter;stroke-opacity:1"/>
<path class="bond-3 atom-3 atom-4" d="M 1170.6,160.2 L 1160.4,178.0" style="fill:none;fill-rule:evenodd;stroke:#191919;stroke-width:2.0px;stroke-linecap:butt;stroke-linejoin:miter;stroke-opacity:1"/>
<path class="bond-4 atom-3 atom-5" d="M 1180.9,142.4 L 1170.6,124.7" style="fill:none;fill-rule:evenodd;stroke:#000000;stroke-width:2.0px;stroke-linecap:butt;stroke-linejoin:miter;stroke-opacity:1"/>
<path class="bond-4 atom-3 atom-5" d="M 1170.6,124.7 L 1160.4,106.9" style="fill:none;fill-rule:evenodd;stroke:#0000FF;stroke-width:2.0px;stroke-linecap:butt;stroke-linejoin:miter;stroke-opacity:1"/>
<path class="bond-4 atom-3 atom-5" d="M 1186.7,132.0 L 1179.5,119.5" style="fill:none;fill-rule:evenodd;stroke:#000000;stroke-width:2.0px;stroke-linecap:butt;stroke-linejoin:miter;stroke-opacity:1"/>
<path class="bond-4 atom-3 atom-5" d="M 1179.5,119.5 L 1172.4,107.1" style="fill:none;fill-rule:evenodd;stroke:#0000FF;stroke-width:2.0px;stroke-linecap:butt;stroke-linejoin:miter;stroke-opacity:1"/>
<path class="bond-5 atom-5 atom-6" d="M 1160.4,89.0 L 1170.6,71.3" style="fill:none;fill-rule:evenodd;stroke:#0000FF;stroke-width:2.0px;stroke-linecap:butt;stroke-linejoin:miter;stroke-opacity:1"/>
<path class="bond-5 atom-5 atom-6" d="M 1170.6,71.3 L 1180.9,53.5" style="fill:none;fill-rule:evenodd;stroke:#000000;stroke-width:2.0px;stroke-linecap:butt;stroke-linejoin:miter;stroke-opacity:1"/>
<path class="bond-6 atom-6 atom-7" d="M 1180.9,53.5 L 1155.2,9.1" style="fill:none;fill-rule:evenodd;stroke:#000000;stroke-width:2.0px;stroke-linecap:butt;stroke-linejoin:miter;stroke-opacity:1"/>
<path class="bond-7 atom-6 atom-8" d="M 1180.9,53.5 L 1202.9,53.5" style="fill:none;fill-rule:evenodd;stroke:#000000;stroke-width:2.0px;stroke-linecap:butt;stroke-linejoin:miter;stroke-opacity:1"/>
<path class="bond-7 atom-6 atom-8" d="M 1202.9,53.5 L 1225.0,53.5" style="fill:none;fill-rule:evenodd;stroke:#0000FF;stroke-width:2.0px;stroke-linecap:butt;stroke-linejoin:miter;stroke-opacity:1"/>
<path class="bond-7 atom-6 atom-8" d="M 1187.5,63.8 L 1202.9,63.8" style="fill:none;fill-rule:evenodd;stroke:#000000;stroke-width:2.0px;stroke-linecap:butt;stroke-linejoin:miter;stroke-opacity:1"/>
<path class="bond-7 atom-6 atom-8" d="M 1202.9,63.8 L 1218.4,63.8" style="fill:none;fill-rule:evenodd;stroke:#0000FF;stroke-width:2.0px;stroke-linecap:butt;stroke-linejoin:miter;stroke-opacity:1"/>
<path class="bond-8 atom-8 atom-1" d="M 1237.4,62.5 L 1247.6,80.2" style="fill:none;fill-rule:evenodd;stroke:#0000FF;stroke-width:2.0px;stroke-linecap:butt;stroke-linejoin:miter;stroke-opacity:1"/>
<path class="bond-8 atom-8 atom-1" d="M 1247.6,80.2 L 1257.9,98.0" style="fill:none;fill-rule:evenodd;stroke:#000000;stroke-width:2.0px;stroke-linecap:butt;stroke-linejoin:miter;stroke-opacity:1"/>
<path class="atom-0" d="M 1291.9 100.9 L 1294.0 100.9 L 1294.0 93.8 L 1291.6 94.5 L 1291.3 93.7 L 1294.3 92.4 L 1295.2 92.5 L 1295.2 100.9 L 1297.1 100.9 L 1297.1 102.0 L 1291.9 102.0 L 1291.9 100.9 " fill="#191919"/>
<path class="atom-0" d="M 1303.9 98.7 L 1305.1 98.7 L 1305.1 99.8 L 1303.9 99.8 L 1303.9 102.0 L 1302.6 102.0 L 1302.6 99.8 L 1297.7 99.8 L 1297.7 99.0 L 1301.9 92.4 L 1303.9 92.4 L 1303.9 98.7 M 1299.3 98.7 L 1302.6 98.7 L 1302.6 93.3 L 1299.3 98.7 " fill="#191919"/>
<path class="atom-0" d="M 1306.4 96.3 L 1308.6 94.2 L 1305.7 93.6 L 1306.2 92.1 L 1308.8 93.5 L 1308.4 90.6 L 1309.9 90.6 L 1309.5 93.4 L 1312.2 92.2 L 1312.6 93.6 L 1309.7 94.1 L 1311.8 96.3 L 1310.5 97.2 L 1309.1 94.5 L 1307.7 97.2 L 1306.4 96.3 " fill="#191919"/>
<path class="atom-4" d="M 1137.9 189.8 L 1140.0 189.8 L 1140.0 182.7 L 1137.7 183.4 L 1137.4 182.6 L 1140.3 181.3 L 1141.3 181.4 L 1141.3 189.8 L 1143.2 189.8 L 1143.2 190.9 L 1137.9 190.9 L 1137.9 189.8 " fill="#191919"/>
<path class="atom-4" d="M 1150.0 187.6 L 1151.1 187.6 L 1151.1 188.7 L 1150.0 188.7 L 1150.0 190.9 L 1148.7 190.9 L 1148.7 188.7 L 1143.7 188.7 L 1143.7 187.8 L 1147.9 181.3 L 1150.0 181.3 L 1150.0 187.6 M 1145.3 187.6 L 1148.7 187.6 L 1148.7 182.2 L 1145.3 187.6 " fill="#191919"/>
<path class="atom-4" d="M 1152.5 185.2 L 1154.6 183.0 L 1151.8 182.5 L 1152.2 181.0 L 1154.8 182.3 L 1154.5 179.5 L 1156.0 179.5 L 1155.6 182.3 L 1158.2 181.1 L 1158.7 182.5 L 1155.8 183.0 L 1157.8 185.2 L 1156.6 186.1 L 1155.2 183.4 L 1153.7 186.1 L 1152.5 185.2 " fill="#191919"/>
<path class="atom-5" d="M 1152.0 90.7 L 1156.8 98.4 Q 1157.3 99.2, 1158.0 100.5 Q 1158.8 101.9, 1158.8 102.0 L 1158.8 90.7 L 1160.7 90.7 L 1160.7 105.2 L 1158.8 105.2 L 1153.6 96.8 Q 1153.0 95.8, 1152.4 94.7 Q 1151.8 93.6, 1151.6 93.2 L 1151.6 105.2 L 1149.7 105.2 L 1149.7 90.7 L 1152.0 90.7 " fill="#0000FF"/>
<path class="atom-8" d="M 1229.0 46.3 L 1233.7 54.0 Q 1234.2 54.7, 1235.0 56.1 Q 1235.7 57.5, 1235.8 57.6 L 1235.8 46.3 L 1237.7 46.3 L 1237.7 60.8 L 1235.7 60.8 L 1230.6 52.4 Q 1230.0 51.4, 1229.4 50.3 Q 1228.8 49.1, 1228.6 48.8 L 1228.6 60.8 L 1226.7 60.8 L 1226.7 46.3 L 1229.0 46.3 " fill="#0000FF"/>
<path class="bond-0 atom-0 atom-1" d="M 138.9,337.1 L 158.5,325.8" style="fill:none;fill-rule:evenodd;stroke:#191919;stroke-width:2.0px;stroke-linecap:butt;stroke-linejoin:miter;stroke-opacity:1"/>
<path class="bond-0 atom-0 atom-1" d="M 158.5,325.8 L 178.2,314.4" style="fill:none;fill-rule:evenodd;stroke:#000000;stroke-width:2.0px;stroke-linecap:butt;stroke-linejoin:miter;stroke-opacity:1"/>
<path class="bond-1 atom-1 atom-2" d="M 178.2,314.4 L 194.1,323.6" style="fill:none;fill-rule:evenodd;stroke:#000000;stroke-width:2.0px;stroke-linecap:butt;stroke-linejoin:miter;stroke-opacity:1"/>
<path class="bond-1 atom-1 atom-2" d="M 194.1,323.6 L 210.1,332.8" style="fill:none;fill-rule:evenodd;stroke:#191919;stroke-width:2.0px;stroke-linecap:butt;stroke-linejoin:miter;stroke-opacity:1"/>
<path class="bond-2 atom-1 atom-3" d="M 173.0,314.4 L 173.0,293.4" style="fill:none;fill-rule:evenodd;stroke:#000000;stroke-width:2.0px;stroke-linecap:butt;stroke-linejoin:miter;stroke-opacity:1"/>
<path class="bond-2 atom-1 atom-3" d="M 173.0,293.4 L 173.0,272.4" style="fill:none;fill-rule:evenodd;stroke:#FF0000;stroke-width:2.0px;stroke-linecap:butt;stroke-linejoin:miter;stroke-opacity:1"/>
<path class="bond-2 atom-1 atom-3" d="M 183.3,314.4 L 183.3,293.4" style="fill:none;fill-rule:evenodd;stroke:#000000;stroke-width:2.0px;stroke-linecap:butt;stroke-linejoin:miter;stroke-opacity:1"/>
<path class="bond-2 atom-1 atom-3" d="M 183.3,293.4 L 183.3,272.4" style="fill:none;fill-rule:evenodd;stroke:#FF0000;stroke-width:2.0px;stroke-linecap:butt;stroke-linejoin:miter;stroke-opacity:1"/>
<path class="atom-0" d="M 124.5 343.1 L 126.6 343.1 L 126.6 335.9 L 124.3 336.6 L 123.9 335.8 L 126.9 334.5 L 127.8 334.7 L 127.8 343.1 L 129.7 343.1 L 129.7 344.1 L 124.5 344.1 L 124.5 343.1 " fill="#191919"/>
<path class="atom-0" d="M 131.0 338.5 L 133.1 336.3 L 130.3 335.7 L 130.7 334.2 L 133.3 335.6 L 133.0 332.7 L 134.5 332.7 L 134.1 335.5 L 136.7 334.3 L 137.2 335.7 L 134.3 336.2 L 136.4 338.4 L 135.1 339.3 L 133.7 336.6 L 132.3 339.3 L 131.0 338.5 " fill="#191919"/>
<path class="atom-2" d="M 215.5 338.1 Q 216.4 338.1, 217.0 338.5 Q 217.7 338.9, 218.1 339.5 Q 218.4 340.2, 218.4 341.0 Q 218.4 342.0, 218.0 342.7 Q 217.6 343.4, 216.9 343.8 Q 216.1 344.2, 215.2 344.2 Q 213.5 344.2, 212.6 343.1 Q 211.8 341.9, 211.8 339.6 Q 211.8 337.1, 212.8 335.8 Q 213.9 334.4, 216.0 334.4 Q 216.5 334.4, 217.1 334.6 Q 217.6 334.7, 218.1 335.0 L 217.5 335.9 Q 216.8 335.5, 216.0 335.5 Q 214.6 335.5, 213.9 336.4 Q 213.2 337.3, 213.1 339.1 Q 213.6 338.6, 214.2 338.4 Q 214.9 338.1, 215.5 338.1 M 215.2 343.1 Q 215.7 343.1, 216.2 342.9 Q 216.6 342.6, 216.8 342.1 Q 217.1 341.6, 217.1 341.1 Q 217.1 340.2, 216.6 339.7 Q 216.1 339.2, 215.3 339.2 Q 214.7 339.2, 214.1 339.5 Q 213.6 339.7, 213.1 340.1 Q 213.2 341.7, 213.7 342.4 Q 214.2 343.1, 215.2 343.1 " fill="#191919"/>
<path class="atom-2" d="M 219.9 338.5 L 222.0 336.3 L 219.2 335.7 L 219.6 334.2 L 222.2 335.6 L 221.8 332.7 L 223.4 332.7 L 223.0 335.5 L 225.6 334.3 L 226.1 335.7 L 223.2 336.2 L 225.2 338.4 L 224.0 339.3 L 222.6 336.6 L 221.1 339.3 L 219.9 338.5 " fill="#191919"/>
<path class="atom-3" d="M 171.5 263.1 Q 171.5 259.7, 173.2 257.7 Q 175.0 255.8, 178.2 255.8 Q 181.4 255.8, 183.1 257.7 Q 184.8 259.7, 184.8 263.1 Q 184.8 266.7, 183.1 268.7 Q 181.4 270.7, 178.2 270.7 Q 175.0 270.7, 173.2 268.7 Q 171.5 266.7, 171.5 263.1 M 178.2 269.0 Q 180.4 269.0, 181.6 267.6 Q 182.8 266.1, 182.8 263.1 Q 182.8 260.3, 181.6 258.9 Q 180.4 257.4, 178.2 257.4 Q 176.0 257.4, 174.7 258.8 Q 173.6 260.3, 173.6 263.1 Q 173.6 266.1, 174.7 267.6 Q 176.0 269.0, 178.2 269.0 " fill="#FF0000"/>
<path class="bond-0 atom-0 atom-1" d="M 618.9,300.0 L 603.0,300.0" style="fill:none;fill-rule:evenodd;stroke:#191919;stroke-width:2.0px;stroke-linecap:butt;stroke-linejoin:miter;stroke-opacity:1"/>
<path class="bond-0 atom-0 atom-1" d="M 603.0,300.0 L 587.1,300.0" style="fill:none;fill-rule:evenodd;stroke:#0000FF;stroke-width:2.0px;stroke-linecap:butt;stroke-linejoin:miter;stroke-opacity:1"/>
<path class="bond-1 atom-1 atom-2" d="M 574.7,309.0 L 564.5,326.7" style="fill:none;fill-rule:evenodd;stroke:#0000FF;stroke-width:2.0px;stroke-linecap:butt;stroke-linejoin:miter;stroke-opacity:1"/>
<path class="bond-1 atom-1 atom-2" d="M 564.5,326.7 L 554.2,344.4" style="fill:none;fill-rule:evenodd;stroke:#000000;stroke-width:2.0px;stroke-linecap:butt;stroke-linejoin:miter;stroke-opacity:1"/>
<path class="bond-2 atom-2 atom-3" d="M 554.2,344.4 L 502.9,344.4" style="fill:none;fill-rule:evenodd;stroke:#000000;stroke-width:2.0px;stroke-linecap:butt;stroke-linejoin:miter;stroke-opacity:1"/>
<path class="bond-3 atom-3 atom-4" d="M 502.9,344.4 L 492.7,326.7" style="fill:none;fill-rule:evenodd;stroke:#000000;stroke-width:2.0px;stroke-linecap:butt;stroke-linejoin:miter;stroke-opacity:1"/>
<path class="bond-3 atom-3 atom-4" d="M 492.7,326.7 L 482.4,309.0" style="fill:none;fill-rule:evenodd;stroke:#0000FF;stroke-width:2.0px;stroke-linecap:butt;stroke-linejoin:miter;stroke-opacity:1"/>
<path class="bond-4 atom-4 atom-5" d="M 470.1,300.0 L 450.6,300.0" style="fill:none;fill-rule:evenodd;stroke:#0000FF;stroke-width:2.0px;stroke-linecap:butt;stroke-linejoin:miter;stroke-opacity:1"/>
<path class="bond-4 atom-4 atom-5" d="M 450.6,300.0 L 431.1,300.0" style="fill:none;fill-rule:evenodd;stroke:#191919;stroke-width:2.0px;stroke-linecap:butt;stroke-linejoin:miter;stroke-opacity:1"/>
<path class="bond-5 atom-4 atom-6" d="M 482.4,291.0 L 492.7,273.3" style="fill:none;fill-rule:evenodd;stroke:#0000FF;stroke-width:2.0px;stroke-linecap:butt;stroke-linejoin:miter;stroke-opacity:1"/>
<path class="bond-5 atom-4 atom-6" d="M 492.7,273.3 L 502.9,255.6" style="fill:none;fill-rule:evenodd;stroke:#000000;stroke-width:2.0px;stroke-linecap:butt;stroke-linejoin:miter;stroke-opacity:1"/>
<path class="bond-6 atom-6 atom-7" d="M 502.9,255.6 L 554.2,255.6" style="fill:none;fill-rule:evenodd;stroke:#000000;stroke-width:2.0px;stroke-linecap:butt;stroke-linejoin:miter;stroke-opacity:1"/>
<path class="bond-7 atom-7 atom-1" d="M 554.2,255.6 L 564.5,273.3" style="fill:none;fill-rule:evenodd;stroke:#000000;stroke-width:2.0px;stroke-linecap:butt;stroke-linejoin:miter;stroke-opacity:1"/>
<path class="bond-7 atom-7 atom-1" d="M 564.5,273.3 L 574.7,291.0" style="fill:none;fill-rule:evenodd;stroke:#0000FF;stroke-width:2.0px;stroke-linecap:butt;stroke-linejoin:miter;stroke-opacity:1"/>
<path class="atom-0" d="M 624.1 298.1 Q 624.9 298.1, 625.6 298.4 Q 626.3 298.8, 626.7 299.5 Q 627.1 300.1, 627.1 301.0 Q 627.1 302.0, 626.6 302.7 Q 626.1 303.4, 625.4 303.8 Q 624.6 304.2, 623.7 304.2 Q 622.8 304.2, 622.0 303.8 Q 621.2 303.5, 620.6 302.9 L 621.4 302.1 Q 621.9 302.5, 622.5 302.8 Q 623.1 303.1, 623.7 303.1 Q 624.6 303.1, 625.2 302.5 Q 625.8 302.0, 625.8 301.1 Q 625.8 300.0, 625.2 299.6 Q 624.6 299.1, 623.6 299.1 Q 622.8 299.1, 621.9 299.4 L 621.1 299.1 L 621.6 294.5 L 626.5 294.5 L 626.4 295.6 L 622.7 295.6 L 622.4 298.4 Q 623.3 298.1, 624.1 298.1 " fill="#191919"/>
<path class="atom-0" d="M 628.5 298.4 L 630.6 296.2 L 627.8 295.6 L 628.2 294.2 L 630.8 295.5 L 630.4 292.6 L 632.0 292.6 L 631.5 295.5 L 634.2 294.2 L 634.6 295.6 L 631.8 296.2 L 633.8 298.4 L 632.6 299.3 L 631.1 296.6 L 629.7 299.3 L 628.5 298.4 " fill="#191919"/>
<path class="atom-1" d="M 576.7 292.7 L 581.4 300.4 Q 581.9 301.2, 582.7 302.6 Q 583.4 303.9, 583.5 304.0 L 583.5 292.7 L 585.4 292.7 L 585.4 307.3 L 583.4 307.3 L 578.3 298.9 Q 577.7 297.9, 577.1 296.7 Q 576.4 295.6, 576.3 295.3 L 576.3 307.3 L 574.4 307.3 L 574.4 292.7 L 576.7 292.7 " fill="#0000FF"/>
<path class="atom-4" d="M 474.0 292.7 L 478.8 300.4 Q 479.3 301.2, 480.0 302.6 Q 480.8 303.9, 480.8 304.0 L 480.8 292.7 L 482.8 292.7 L 482.8 307.3 L 480.8 307.3 L 475.7 298.9 Q 475.1 297.9, 474.4 296.7 Q 473.8 295.6, 473.6 295.3 L 473.6 307.3 L 471.7 307.3 L 471.7 292.7 L 474.0 292.7 " fill="#0000FF"/>
<path class="atom-5" d="M 418.8 298.1 Q 419.7 298.1, 420.4 298.4 Q 421.1 298.8, 421.5 299.5 Q 421.9 300.1, 421.9 301.0 Q 421.9 302.0, 421.4 302.7 Q 420.9 303.4, 420.1 303.8 Q 419.3 304.2, 418.4 304.2 Q 417.5 304.2, 416.7 303.8 Q 415.9 303.5, 415.4 302.9 L 416.2 302.1 Q 416.6 302.5, 417.2 302.8 Q 417.8 303.1, 418.5 303.1 Q 419.3 303.1, 419.9 302.5 Q 420.5 302.0, 420.5 301.1 Q 420.5 300.0, 419.9 299.6 Q 419.3 299.1, 418.4 299.1 Q 417.5 299.1, 416.6 299.4 L 415.9 299.1 L 416.3 294.5 L 421.3 294.5 L 421.1 295.6 L 417.4 295.6 L 417.2 298.4 Q 418.0 298.1, 418.8 298.1 " fill="#191919"/>
<path class="atom-5" d="M 423.2 298.4 L 425.3 296.2 L 422.5 295.6 L 422.9 294.2 L 425.5 295.5 L 425.2 292.6 L 426.7 292.6 L 426.3 295.5 L 428.9 294.2 L 429.4 295.6 L 426.5 296.2 L 428.6 298.4 L 427.3 299.3 L 425.9 296.6 L 424.5 299.3 L 423.2 298.4 " fill="#191919"/>
<path class="bond-0 atom-0 atom-1" d="M 953.0,318.6 L 938.3,313.9" style="fill:none;fill-rule:evenodd;stroke:#191919;stroke-width:2.0px;stroke-linecap:butt;stroke-linejoin:miter;stroke-opacity:1"/>
<path class="bond-0 atom-0 atom-1" d="M 938.3,313.9 L 923.7,309.1" style="fill:none;fill-rule:evenodd;stroke:#000000;stroke-width:2.0px;stroke-linecap:butt;stroke-linejoin:miter;stroke-opacity:1"/>
<path class="bond-1 atom-1 atom-2" d="M 923.7,309.1 L 907.9,260.3" style="fill:none;fill-rule:evenodd;stroke:#000000;stroke-width:2.0px;stroke-linecap:butt;stroke-linejoin:miter;stroke-opacity:1"/>
<path class="bond-1 atom-1 atom-2" d="M 911.6,305.0 L 900.5,270.8" style="fill:none;fill-rule:evenodd;stroke:#000000;stroke-width:2.0px;stroke-linecap:butt;stroke-linejoin:miter;stroke-opacity:1"/>
<path class="bond-2 atom-2 atom-3" d="M 907.9,260.3 L 885.8,260.3" style="fill:none;fill-rule:evenodd;stroke:#000000;stroke-width:2.0px;stroke-linecap:butt;stroke-linejoin:miter;stroke-opacity:1"/>
<path class="bond-2 atom-2 atom-3" d="M 885.8,260.3 L 863.7,260.3" style="fill:none;fill-rule:evenodd;stroke:#0000FF;stroke-width:2.0px;stroke-linecap:butt;stroke-linejoin:miter;stroke-opacity:1"/>
<path class="bond-3 atom-3 atom-4" d="M 853.6,269.3 L 847.2,289.2" style="fill:none;fill-rule:evenodd;stroke:#0000FF;stroke-width:2.0px;stroke-linecap:butt;stroke-linejoin:miter;stroke-opacity:1"/>
<path class="bond-3 atom-3 atom-4" d="M 847.2,289.2 L 840.7,309.1" style="fill:none;fill-rule:evenodd;stroke:#000000;stroke-width:2.0px;stroke-linecap:butt;stroke-linejoin:miter;stroke-opacity:1"/>
<path class="bond-3 atom-3 atom-4" d="M 861.5,278.4 L 856.9,292.4" style="fill:none;fill-rule:evenodd;stroke:#0000FF;stroke-width:2.0px;stroke-linecap:butt;stroke-linejoin:miter;stroke-opacity:1"/>
<path class="bond-3 atom-3 atom-4" d="M 856.9,292.4 L 852.4,306.3" style="fill:none;fill-rule:evenodd;stroke:#000000;stroke-width:2.0px;stroke-linecap:butt;stroke-linejoin:miter;stroke-opacity:1"/>
<path class="bond-4 atom-4 atom-5" d="M 840.7,309.1 L 818.9,316.2" style="fill:none;fill-rule:evenodd;stroke:#000000;stroke-width:2.0px;stroke-linecap:butt;stroke-linejoin:miter;stroke-opacity:1"/>
<path class="bond-4 atom-4 atom-5" d="M 818.9,316.2 L 797.0,323.3" style="fill:none;fill-rule:evenodd;stroke:#191919;stroke-width:2.0px;stroke-linecap:butt;stroke-linejoin:miter;stroke-opacity:1"/>
<path class="bond-5 atom-4 atom-6" d="M 840.7,309.1 L 858.3,321.9" style="fill:none;fill-rule:evenodd;stroke:#000000;stroke-width:2.0px;stroke-linecap:butt;stroke-linejoin:miter;stroke-opacity:1"/>
<path class="bond-5 atom-4 atom-6" d="M 858.3,321.9 L 875.8,334.7" style="fill:none;fill-rule:evenodd;stroke:#CCCC00;stroke-width:2.0px;stroke-linecap:butt;stroke-linejoin:miter;stroke-opacity:1"/>
<path class="bond-6 atom-6 atom-1" d="M 888.6,334.7 L 906.1,321.9" style="fill:none;fill-rule:evenodd;stroke:#CCCC00;stroke-width:2.0px;stroke-linecap:butt;stroke-linejoin:miter;stroke-opacity:1"/>
<path class="bond-6 atom-6 atom-1" d="M 906.1,321.9 L 923.7,309.1" style="fill:none;fill-rule:evenodd;stroke:#000000;stroke-width:2.0px;stroke-linecap:butt;stroke-linejoin:miter;stroke-opacity:1"/>
<path class="atom-0" d="M 955.2 328.0 L 957.3 328.0 L 957.3 320.8 L 955.0 321.5 L 954.7 320.7 L 957.6 319.4 L 958.6 319.6 L 958.6 328.0 L 960.5 328.0 L 960.5 329.1 L 955.2 329.1 L 955.2 328.0 " fill="#191919"/>
<path class="atom-0" d="M 967.3 325.8 L 968.4 325.8 L 968.4 326.8 L 967.3 326.8 L 967.3 329.1 L 966.0 329.1 L 966.0 326.8 L 961.0 326.8 L 961.0 326.0 L 965.2 319.5 L 967.3 319.5 L 967.3 325.8 M 962.6 325.8 L 966.0 325.8 L 966.0 320.3 L 962.6 325.8 " fill="#191919"/>
<path class="atom-0" d="M 969.8 323.4 L 971.9 321.2 L 969.1 320.6 L 969.5 319.2 L 972.1 320.5 L 971.7 317.6 L 973.3 317.6 L 972.9 320.5 L 975.5 319.2 L 976.0 320.6 L 973.1 321.2 L 975.1 323.4 L 973.9 324.3 L 972.5 321.5 L 971.0 324.3 L 969.8 323.4 " fill="#191919"/>
<path class="atom-3" d="M 853.3 253.1 L 858.1 260.8 Q 858.6 261.5, 859.3 262.9 Q 860.1 264.3, 860.1 264.4 L 860.1 253.1 L 862.1 253.1 L 862.1 267.6 L 860.1 267.6 L 855.0 259.2 Q 854.4 258.2, 853.7 257.1 Q 853.1 255.9, 852.9 255.6 L 852.9 267.6 L 851.0 267.6 L 851.0 253.1 L 853.3 253.1 " fill="#0000FF"/>
<path class="atom-5" d="M 774.6 328.0 L 776.7 328.0 L 776.7 320.8 L 774.4 321.5 L 774.0 320.7 L 777.0 319.4 L 777.9 319.6 L 777.9 328.0 L 779.8 328.0 L 779.8 329.1 L 774.6 329.1 L 774.6 328.0 " fill="#191919"/>
<path class="atom-5" d="M 786.6 325.8 L 787.8 325.8 L 787.8 326.8 L 786.6 326.8 L 786.6 329.1 L 785.4 329.1 L 785.4 326.8 L 780.4 326.8 L 780.4 326.0 L 784.6 319.5 L 786.6 319.5 L 786.6 325.8 M 782.0 325.8 L 785.4 325.8 L 785.4 320.3 L 782.0 325.8 " fill="#191919"/>
<path class="atom-5" d="M 789.1 323.4 L 791.3 321.2 L 788.4 320.6 L 788.9 319.2 L 791.5 320.5 L 791.1 317.6 L 792.7 317.6 L 792.2 320.5 L 794.9 319.2 L 795.3 320.6 L 792.4 321.2 L 794.5 323.4 L 793.2 324.3 L 791.8 321.5 L 790.4 324.3 L 789.1 323.4 " fill="#191919"/>
<path class="atom-6" d="M 878.1 344.3 Q 878.3 344.3, 878.9 344.6 Q 879.6 344.9, 880.4 345.1 Q 881.1 345.3, 881.9 345.3 Q 883.2 345.3, 884.0 344.6 Q 884.8 343.9, 884.8 342.8 Q 884.8 342.0, 884.4 341.5 Q 884.0 341.0, 883.4 340.7 Q 882.8 340.4, 881.8 340.1 Q 880.5 339.7, 879.7 339.4 Q 878.9 339.0, 878.4 338.2 Q 877.8 337.4, 877.8 336.1 Q 877.8 334.3, 879.1 333.2 Q 880.3 332.1, 882.8 332.1 Q 884.5 332.1, 886.4 332.9 L 885.9 334.4 Q 884.2 333.7, 882.9 333.7 Q 881.4 333.7, 880.7 334.3 Q 879.9 334.9, 879.9 335.9 Q 879.9 336.7, 880.3 337.1 Q 880.7 337.6, 881.3 337.9 Q 881.9 338.1, 882.9 338.5 Q 884.2 338.9, 885.0 339.3 Q 885.7 339.7, 886.3 340.5 Q 886.9 341.3, 886.9 342.8 Q 886.9 344.8, 885.5 345.9 Q 884.2 346.9, 881.9 346.9 Q 880.6 346.9, 879.7 346.6 Q 878.7 346.4, 877.5 345.9 L 878.1 344.3 " fill="#CCCC00"/>
</svg>