<svg xmlns="http://www.w3.org/2000/svg" xmlns:rdkit="http://www.rdkit.org/xml" xmlns:xlink="http://www.w3.org/1999/xlink" version="1.1" baseProfile="full" xml:space="preserve" width="1050px" height="200px" viewBox="0 0 1050 200">
<!-- END OF HEADER -->
<rect style="opacity:1.0;fill:#FFFFFF;stroke:none" width="1050.0" height="200.0" x="0.0" y="0.0"> </rect>
<path class="bond-3 atom-3 atom-4" d="M 230.2,122.9 L 253.2,113.3" style="fill:none;fill-rule:evenodd;stroke:#FF7F7F;stroke-width:5.3px;stroke-linecap:butt;stroke-linejoin:miter;stroke-opacity:1"/>
<path class="bond-4 atom-4 atom-5" d="M 253.2,113.3 L 256.4,88.5" style="fill:none;fill-rule:evenodd;stroke:#FF7F7F;stroke-width:5.3px;stroke-linecap:butt;stroke-linejoin:miter;stroke-opacity:1"/>
<path class="bond-21 atom-4 atom-12" d="M 253.2,113.3 L 273.1,128.4" style="fill:none;fill-rule:evenodd;stroke:#FF7F7F;stroke-width:5.3px;stroke-linecap:butt;stroke-linejoin:miter;stroke-opacity:1"/>
<path class="bond-5 atom-5 atom-6" d="M 256.4,88.5 L 279.4,78.9" style="fill:none;fill-rule:evenodd;stroke:#FF7F7F;stroke-width:5.3px;stroke-linecap:butt;stroke-linejoin:miter;stroke-opacity:1"/>
<path class="bond-6 atom-6 atom-7" d="M 279.4,78.9 L 282.5,54.1" style="fill:none;fill-rule:evenodd;stroke:#FF7F7F;stroke-width:5.3px;stroke-linecap:butt;stroke-linejoin:miter;stroke-opacity:1"/>
<path class="bond-8 atom-6 atom-9" d="M 279.4,78.9 L 299.2,93.9" style="fill:none;fill-rule:evenodd;stroke:#FF7F7F;stroke-width:5.3px;stroke-linecap:butt;stroke-linejoin:miter;stroke-opacity:1"/>
<path class="bond-7 atom-7 atom-8" d="M 282.5,54.1 L 262.6,39.0" style="fill:none;fill-rule:evenodd;stroke:#FF7F7F;stroke-width:5.3px;stroke-linecap:butt;stroke-linejoin:miter;stroke-opacity:1"/>
<path class="bond-9 atom-9 atom-10" d="M 299.2,93.9 L 322.2,84.3" style="fill:none;fill-rule:evenodd;stroke:#FF7F7F;stroke-width:5.3px;stroke-linecap:butt;stroke-linejoin:miter;stroke-opacity:1"/>
<path class="bond-10 atom-9 atom-11" d="M 299.2,93.9 L 296.1,118.7" style="fill:none;fill-rule:evenodd;stroke:#FF7F7F;stroke-width:5.3px;stroke-linecap:butt;stroke-linejoin:miter;stroke-opacity:1"/>
<path class="bond-11 atom-11 atom-12" d="M 296.1,118.7 L 273.1,128.4" style="fill:none;fill-rule:evenodd;stroke:#FF7F7F;stroke-width:5.3px;stroke-linecap:butt;stroke-linejoin:miter;stroke-opacity:1"/>
<ellipse cx="230.2" cy="122.9" rx="5.0" ry="5.0" class="atom-3" style="fill:#FF7F7F;fill-rule:evenodd;stroke:#FF7F7F;stroke-width:1.0px;stroke-linecap:butt;stroke-linejoin:miter;stroke-opacity:1"/>
<ellipse cx="253.2" cy="113.3" rx="5.0" ry="5.0" class="atom-4" style="fill:#FF7F7F;fill-rule:evenodd;stroke:#FF7F7F;stroke-width:1.0px;stroke-linecap:butt;stroke-linejoin:miter;stroke-opacity:1"/>
<ellipse cx="256.4" cy="88.5" rx="5.0" ry="5.0" class="atom-5" style="fill:#FF7F7F;fill-rule:evenodd;stroke:#FF7F7F;stroke-width:1.0px;stroke-linecap:butt;stroke-linejoin:miter;stroke-opacity:1"/>
<ellipse cx="279.4" cy="78.9" rx="5.0" ry="5.0" class="atom-6" style="fill:#FF7F7F;fill-rule:evenodd;stroke:#FF7F7F;stroke-width:1.0px;stroke-linecap:butt;stroke-linejoin:miter;stroke-opacity:1"/>
<ellipse cx="282.5" cy="54.2" rx="5.0" ry="5.1" class="atom-7" style="fill:#FF7F7F;fill-rule:evenodd;stroke:#FF7F7F;stroke-width:1.0px;stroke-linecap:butt;stroke-linejoin:miter;stroke-opacity:1"/>
<ellipse cx="262.6" cy="39.0" rx="5.0" ry="5.0" class="atom-8" style="fill:#FF7F7F;fill-rule:evenodd;stroke:#FF7F7F;stroke-width:1.0px;stroke-linecap:butt;stroke-linejoin:miter;stroke-opacity:1"/>
<ellipse cx="299.2" cy="93.9" rx="5.0" ry="5.0" class="atom-9" style="fill:#FF7F7F;fill-rule:evenodd;stroke:#FF7F7F;stroke-width:1.0px;stroke-linecap:butt;stroke-linejoin:miter;stroke-opacity:1"/>
<ellipse cx="325.2" cy="84.3" rx="8.8" ry="5.1" class="atom-10" style="fill:#FF7F7F;fill-rule:evenodd;stroke:#FF7F7F;stroke-width:1.0px;stroke-linecap:butt;stroke-linejoin:miter;stroke-opacity:1"/>
<ellipse cx="296.1" cy="118.7" rx="5.0" ry="5.0" class="atom-11" style="fill:#FF7F7F;fill-rule:evenodd;stroke:#FF7F7F;stroke-width:1.0px;stroke-linecap:butt;stroke-linejoin:miter;stroke-opacity:1"/>
<ellipse cx="273.1" cy="128.4" rx="5.0" ry="5.0" class="atom-12" style="fill:#FF7F7F;fill-rule:evenodd;stroke:#FF7F7F;stroke-width:1.0px;stroke-linecap:butt;stroke-linejoin:miter;stroke-opacity:1"/>
<path class="bond-0 atom-0 atom-1" d="M 182.3,137.6 L 183.6,127.4" style="fill:none;fill-rule:evenodd;stroke:#FF0000;stroke-width:2.0px;stroke-linecap:butt;stroke-linejoin:miter;stroke-opacity:1"/>
<path class="bond-0 atom-0 atom-1" d="M 183.6,127.4 L 184.9,117.2" style="fill:none;fill-rule:evenodd;stroke:#000000;stroke-width:2.0px;stroke-linecap:butt;stroke-linejoin:miter;stroke-opacity:1"/>
<path class="bond-0 atom-0 atom-1" d="M 187.3,138.2 L 188.6,128.0" style="fill:none;fill-rule:evenodd;stroke:#FF0000;stroke-width:2.0px;stroke-linecap:butt;stroke-linejoin:miter;stroke-opacity:1"/>
<path class="bond-0 atom-0 atom-1" d="M 188.6,128.0 L 189.8,117.8" style="fill:none;fill-rule:evenodd;stroke:#000000;stroke-width:2.0px;stroke-linecap:butt;stroke-linejoin:miter;stroke-opacity:1"/>
<path class="bond-1 atom-1 atom-2" d="M 187.4,117.5 L 197.1,113.4" style="fill:none;fill-rule:evenodd;stroke:#000000;stroke-width:2.0px;stroke-linecap:butt;stroke-linejoin:miter;stroke-opacity:1"/>
<path class="bond-1 atom-1 atom-2" d="M 197.1,113.4 L 206.9,109.3" style="fill:none;fill-rule:evenodd;stroke:#0000FF;stroke-width:2.0px;stroke-linecap:butt;stroke-linejoin:miter;stroke-opacity:1"/>
<path class="bond-2 atom-2 atom-3" d="M 213.9,110.5 L 222.1,116.7" style="fill:none;fill-rule:evenodd;stroke:#0000FF;stroke-width:2.0px;stroke-linecap:butt;stroke-linejoin:miter;stroke-opacity:1"/>
<path class="bond-2 atom-2 atom-3" d="M 222.1,116.7 L 230.2,122.9" style="fill:none;fill-rule:evenodd;stroke:#000000;stroke-width:2.0px;stroke-linecap:butt;stroke-linejoin:miter;stroke-opacity:1"/>
<path class="bond-3 atom-3 atom-4" d="M 230.2,122.9 L 253.2,113.3" style="fill:none;fill-rule:evenodd;stroke:#000000;stroke-width:2.0px;stroke-linecap:butt;stroke-linejoin:miter;stroke-opacity:1"/>
<path class="bond-4 atom-4 atom-5" d="M 253.2,113.3 L 256.4,88.5" style="fill:none;fill-rule:evenodd;stroke:#000000;stroke-width:2.0px;stroke-linecap:butt;stroke-linejoin:miter;stroke-opacity:1"/>
<path class="bond-4 atom-4 atom-5" d="M 258.7,110.2 L 260.8,92.9" style="fill:none;fill-rule:evenodd;stroke:#000000;stroke-width:2.0px;stroke-linecap:butt;stroke-linejoin:miter;stroke-opacity:1"/>
<path class="bond-5 atom-5 atom-6" d="M 256.4,88.5 L 279.4,78.9" style="fill:none;fill-rule:evenodd;stroke:#000000;stroke-width:2.0px;stroke-linecap:butt;stroke-linejoin:miter;stroke-opacity:1"/>
<path class="bond-6 atom-6 atom-7" d="M 279.4,78.9 L 280.6,68.7" style="fill:none;fill-rule:evenodd;stroke:#000000;stroke-width:2.0px;stroke-linecap:butt;stroke-linejoin:miter;stroke-opacity:1"/>
<path class="bond-6 atom-6 atom-7" d="M 280.6,68.7 L 281.9,58.6" style="fill:none;fill-rule:evenodd;stroke:#FF0000;stroke-width:2.0px;stroke-linecap:butt;stroke-linejoin:miter;stroke-opacity:1"/>
<path class="bond-7 atom-7 atom-8" d="M 278.4,51.0 L 270.5,45.0" style="fill:none;fill-rule:evenodd;stroke:#FF0000;stroke-width:2.0px;stroke-linecap:butt;stroke-linejoin:miter;stroke-opacity:1"/>
<path class="bond-7 atom-7 atom-8" d="M 270.5,45.0 L 262.6,39.0" style="fill:none;fill-rule:evenodd;stroke:#000000;stroke-width:2.0px;stroke-linecap:butt;stroke-linejoin:miter;stroke-opacity:1"/>
<path class="bond-8 atom-6 atom-9" d="M 279.4,78.9 L 299.2,93.9" style="fill:none;fill-rule:evenodd;stroke:#000000;stroke-width:2.0px;stroke-linecap:butt;stroke-linejoin:miter;stroke-opacity:1"/>
<path class="bond-8 atom-6 atom-9" d="M 279.3,85.1 L 293.2,95.7" style="fill:none;fill-rule:evenodd;stroke:#000000;stroke-width:2.0px;stroke-linecap:butt;stroke-linejoin:miter;stroke-opacity:1"/>
<path class="bond-9 atom-9 atom-10" d="M 299.2,93.9 L 308.7,90.0" style="fill:none;fill-rule:evenodd;stroke:#000000;stroke-width:2.0px;stroke-linecap:butt;stroke-linejoin:miter;stroke-opacity:1"/>
<path class="bond-9 atom-9 atom-10" d="M 308.7,90.0 L 318.2,86.0" style="fill:none;fill-rule:evenodd;stroke:#FF0000;stroke-width:2.0px;stroke-linecap:butt;stroke-linejoin:miter;stroke-opacity:1"/>
<path class="bond-10 atom-9 atom-11" d="M 299.2,93.9 L 296.1,118.7" style="fill:none;fill-rule:evenodd;stroke:#000000;stroke-width:2.0px;stroke-linecap:butt;stroke-linejoin:miter;stroke-opacity:1"/>
<path class="bond-11 atom-11 atom-12" d="M 296.1,118.7 L 273.1,128.4" style="fill:none;fill-rule:evenodd;stroke:#000000;stroke-width:2.0px;stroke-linecap:butt;stroke-linejoin:miter;stroke-opacity:1"/>
<path class="bond-11 atom-11 atom-12" d="M 290.7,115.5 L 274.6,122.3" style="fill:none;fill-rule:evenodd;stroke:#000000;stroke-width:2.0px;stroke-linecap:butt;stroke-linejoin:miter;stroke-opacity:1"/>
<path class="bond-12 atom-1 atom-13" d="M 187.4,117.5 L 167.5,102.4" style="fill:none;fill-rule:evenodd;stroke:#000000;stroke-width:2.0px;stroke-linecap:butt;stroke-linejoin:miter;stroke-opacity:1"/>
<path class="bond-13 atom-13 atom-14" d="M 167.5,102.4 L 144.5,112.1" style="fill:none;fill-rule:evenodd;stroke:#000000;stroke-width:2.0px;stroke-linecap:butt;stroke-linejoin:miter;stroke-opacity:1"/>
<path class="bond-14 atom-14 atom-15" d="M 144.5,112.1 L 124.6,97.0" style="fill:none;fill-rule:evenodd;stroke:#000000;stroke-width:2.0px;stroke-linecap:butt;stroke-linejoin:miter;stroke-opacity:1"/>
<path class="bond-15 atom-15 atom-16" d="M 124.6,97.0 L 101.6,106.7" style="fill:none;fill-rule:evenodd;stroke:#000000;stroke-width:2.0px;stroke-linecap:butt;stroke-linejoin:miter;stroke-opacity:1"/>
<path class="bond-16 atom-16 atom-17" d="M 101.6,106.7 L 81.8,91.6" style="fill:none;fill-rule:evenodd;stroke:#000000;stroke-width:2.0px;stroke-linecap:butt;stroke-linejoin:miter;stroke-opacity:1"/>
<path class="bond-17 atom-17 atom-18" d="M 81.8,91.6 L 58.8,101.3" style="fill:none;fill-rule:evenodd;stroke:#000000;stroke-width:2.0px;stroke-linecap:butt;stroke-linejoin:miter;stroke-opacity:1"/>
<path class="bond-17 atom-17 atom-18" d="M 80.3,97.7 L 64.2,104.4" style="fill:none;fill-rule:evenodd;stroke:#000000;stroke-width:2.0px;stroke-linecap:butt;stroke-linejoin:miter;stroke-opacity:1"/>
<path class="bond-18 atom-18 atom-19" d="M 58.8,101.3 L 38.9,86.2" style="fill:none;fill-rule:evenodd;stroke:#000000;stroke-width:2.0px;stroke-linecap:butt;stroke-linejoin:miter;stroke-opacity:1"/>
<path class="bond-19 atom-19 atom-20" d="M 38.9,86.2 L 15.9,95.9" style="fill:none;fill-rule:evenodd;stroke:#000000;stroke-width:2.0px;stroke-linecap:butt;stroke-linejoin:miter;stroke-opacity:1"/>
<path class="bond-20 atom-19 atom-21" d="M 38.9,86.2 L 42.0,61.4" style="fill:none;fill-rule:evenodd;stroke:#000000;stroke-width:2.0px;stroke-linecap:butt;stroke-linejoin:miter;stroke-opacity:1"/>
<path class="bond-21 atom-12 atom-4" d="M 273.1,128.4 L 253.2,113.3" style="fill:none;fill-rule:evenodd;stroke:#000000;stroke-width:2.0px;stroke-linecap:butt;stroke-linejoin:miter;stroke-opacity:1"/>
<path class="atom-0" d="M 181.0 142.3 Q 181.0 140.6, 181.8 139.7 Q 182.7 138.7, 184.2 138.7 Q 185.8 138.7, 186.7 139.7 Q 187.5 140.6, 187.5 142.3 Q 187.5 144.0, 186.6 145.0 Q 185.8 146.0, 184.2 146.0 Q 182.7 146.0, 181.8 145.0 Q 181.0 144.0, 181.0 142.3 M 184.2 145.2 Q 185.3 145.2, 185.9 144.4 Q 186.5 143.7, 186.5 142.3 Q 186.5 140.9, 185.9 140.2 Q 185.3 139.5, 184.2 139.5 Q 183.2 139.5, 182.6 140.2 Q 182.0 140.9, 182.0 142.3 Q 182.0 143.7, 182.6 144.4 Q 183.2 145.2, 184.2 145.2 " fill="#FF0000"/>
<path class="atom-2" d="M 208.8 104.3 L 211.1 108.1 Q 211.4 108.4, 211.7 109.1 Q 212.1 109.8, 212.1 109.8 L 212.1 104.3 L 213.1 104.3 L 213.1 111.4 L 212.1 111.4 L 209.6 107.3 Q 209.3 106.8, 209.0 106.3 Q 208.7 105.7, 208.6 105.6 L 208.6 111.4 L 207.7 111.4 L 207.7 104.3 L 208.8 104.3 " fill="#0000FF"/>
<path class="atom-2" d="M 207.6 96.6 L 208.6 96.6 L 208.6 99.6 L 212.2 99.6 L 212.2 96.6 L 213.1 96.6 L 213.1 103.6 L 212.2 103.6 L 212.2 100.4 L 208.6 100.4 L 208.6 103.6 L 207.6 103.6 L 207.6 96.6 " fill="#0000FF"/>
<path class="atom-7" d="M 279.2 54.1 Q 279.2 52.4, 280.1 51.5 Q 280.9 50.5, 282.5 50.5 Q 284.1 50.5, 284.9 51.5 Q 285.7 52.4, 285.7 54.1 Q 285.7 55.9, 284.9 56.8 Q 284.0 57.8, 282.5 57.8 Q 280.9 57.8, 280.1 56.8 Q 279.2 55.9, 279.2 54.1 M 282.5 57.0 Q 283.6 57.0, 284.1 56.3 Q 284.7 55.6, 284.7 54.1 Q 284.7 52.7, 284.1 52.1 Q 283.6 51.3, 282.5 51.3 Q 281.4 51.3, 280.8 52.0 Q 280.2 52.7, 280.2 54.1 Q 280.2 55.6, 280.8 56.3 Q 281.4 57.0, 282.5 57.0 " fill="#FF0000"/>
<path class="atom-10" d="M 319.0 84.3 Q 319.0 82.6, 319.8 81.7 Q 320.7 80.7, 322.2 80.7 Q 323.8 80.7, 324.6 81.7 Q 325.5 82.6, 325.5 84.3 Q 325.5 86.0, 324.6 87.0 Q 323.8 88.0, 322.2 88.0 Q 320.7 88.0, 319.8 87.0 Q 319.0 86.0, 319.0 84.3 M 322.2 87.2 Q 323.3 87.2, 323.9 86.4 Q 324.5 85.7, 324.5 84.3 Q 324.5 82.9, 323.9 82.2 Q 323.3 81.5, 322.2 81.5 Q 321.2 81.5, 320.6 82.2 Q 320.0 82.9, 320.0 84.3 Q 320.0 85.7, 320.6 86.4 Q 321.2 87.2, 322.2 87.2 " fill="#FF0000"/>
<path class="atom-10" d="M 326.0 80.8 L 326.9 80.8 L 326.9 83.8 L 330.5 83.8 L 330.5 80.8 L 331.5 80.8 L 331.5 87.9 L 330.5 87.9 L 330.5 84.6 L 326.9 84.6 L 326.9 87.9 L 326.0 87.9 L 326.0 80.8 " fill="#FF0000"/>
<path class="legend" d="M 171.8 194.9 L 170.4 194.9 L 169.2 185.6 L 166.1 194.9 L 164.6 194.9 L 161.5 185.6 L 160.4 194.9 L 158.9 194.9 L 160.3 183.5 L 162.2 183.5 L 165.4 192.7 L 168.5 183.5 L 170.4 183.5 L 171.8 194.9 " fill="#000000"/>
<path class="legend" d="M 172.9 190.7 Q 172.9 188.7, 173.9 187.6 Q 174.9 186.5, 176.8 186.5 Q 178.7 186.5, 179.7 187.6 Q 180.7 188.7, 180.7 190.7 Q 180.7 192.7, 179.7 193.9 Q 178.7 195.0, 176.8 195.0 Q 174.9 195.0, 173.9 193.9 Q 172.9 192.7, 172.9 190.7 M 174.4 190.7 Q 174.4 192.2, 175.0 193.0 Q 175.6 193.8, 176.8 193.8 Q 177.9 193.8, 178.5 193.0 Q 179.2 192.2, 179.2 190.7 Q 179.2 189.2, 178.5 188.5 Q 177.9 187.7, 176.8 187.7 Q 175.6 187.7, 175.0 188.5 Q 174.4 189.2, 174.4 190.7 " fill="#000000"/>
<path class="legend" d="M 181.4 182.7 L 182.9 182.7 L 182.9 194.9 L 181.4 194.9 L 181.4 182.7 " fill="#000000"/>
<path class="legend" d="M 184.9 193.6 L 187.4 193.6 L 187.4 185.1 L 184.6 186.0 L 184.3 185.0 L 187.7 183.5 L 188.9 183.7 L 188.9 193.6 L 191.1 193.6 L 191.1 194.9 L 184.9 194.9 L 184.9 193.6 " fill="#000000"/>
<path class="bond-11 atom-11 atom-12" d="M 566.2,123.3 L 589.8,115.1" style="fill:none;fill-rule:evenodd;stroke:#FF7F7F;stroke-width:5.3px;stroke-linecap:butt;stroke-linejoin:miter;stroke-opacity:1"/>
<path class="bond-12 atom-12 atom-13" d="M 589.8,115.1 L 594.5,90.7" style="fill:none;fill-rule:evenodd;stroke:#FF7F7F;stroke-width:5.3px;stroke-linecap:butt;stroke-linejoin:miter;stroke-opacity:1"/>
<path class="bond-20 atom-12 atom-17" d="M 589.8,115.1 L 608.6,131.5" style="fill:none;fill-rule:evenodd;stroke:#FF7F7F;stroke-width:5.3px;stroke-linecap:butt;stroke-linejoin:miter;stroke-opacity:1"/>
<path class="bond-13 atom-13 atom-14" d="M 594.5,90.7 L 618.1,82.5" style="fill:none;fill-rule:evenodd;stroke:#FF7F7F;stroke-width:5.3px;stroke-linecap:butt;stroke-linejoin:miter;stroke-opacity:1"/>
<path class="bond-14 atom-14 atom-15" d="M 618.1,82.5 L 636.9,98.8" style="fill:none;fill-rule:evenodd;stroke:#FF7F7F;stroke-width:5.3px;stroke-linecap:butt;stroke-linejoin:miter;stroke-opacity:1"/>
<path class="bond-18 atom-14 atom-19" d="M 618.1,82.5 L 622.8,58.0" style="fill:none;fill-rule:evenodd;stroke:#FF7F7F;stroke-width:5.3px;stroke-linecap:butt;stroke-linejoin:miter;stroke-opacity:1"/>
<path class="bond-15 atom-15 atom-16" d="M 636.9,98.8 L 632.2,123.3" style="fill:none;fill-rule:evenodd;stroke:#FF7F7F;stroke-width:5.3px;stroke-linecap:butt;stroke-linejoin:miter;stroke-opacity:1"/>
<path class="bond-17 atom-15 atom-18" d="M 636.9,98.8 L 660.5,90.7" style="fill:none;fill-rule:evenodd;stroke:#FF7F7F;stroke-width:5.3px;stroke-linecap:butt;stroke-linejoin:miter;stroke-opacity:1"/>
<path class="bond-16 atom-16 atom-17" d="M 632.2,123.3 L 608.6,131.5" style="fill:none;fill-rule:evenodd;stroke:#FF7F7F;stroke-width:5.3px;stroke-linecap:butt;stroke-linejoin:miter;stroke-opacity:1"/>
<path class="bond-19 atom-19 atom-20" d="M 622.8,58.0 L 603.9,41.7" style="fill:none;fill-rule:evenodd;stroke:#FF7F7F;stroke-width:5.3px;stroke-linecap:butt;stroke-linejoin:miter;stroke-opacity:1"/>
<ellipse cx="566.2" cy="123.3" rx="5.0" ry="5.0" class="atom-11" style="fill:#FF7F7F;fill-rule:evenodd;stroke:#FF7F7F;stroke-width:1.0px;stroke-linecap:butt;stroke-linejoin:miter;stroke-opacity:1"/>
<ellipse cx="589.8" cy="115.1" rx="5.0" ry="5.0" class="atom-12" style="fill:#FF7F7F;fill-rule:evenodd;stroke:#FF7F7F;stroke-width:1.0px;stroke-linecap:butt;stroke-linejoin:miter;stroke-opacity:1"/>
<ellipse cx="594.5" cy="90.7" rx="5.0" ry="5.0" class="atom-13" style="fill:#FF7F7F;fill-rule:evenodd;stroke:#FF7F7F;stroke-width:1.0px;stroke-linecap:butt;stroke-linejoin:miter;stroke-opacity:1"/>
<ellipse cx="618.1" cy="82.5" rx="5.0" ry="5.0" class="atom-14" style="fill:#FF7F7F;fill-rule:evenodd;stroke:#FF7F7F;stroke-width:1.0px;stroke-linecap:butt;stroke-linejoin:miter;stroke-opacity:1"/>
<ellipse cx="636.9" cy="98.8" rx="5.0" ry="5.0" class="atom-15" style="fill:#FF7F7F;fill-rule:evenodd;stroke:#FF7F7F;stroke-width:1.0px;stroke-linecap:butt;stroke-linejoin:miter;stroke-opacity:1"/>
<ellipse cx="632.2" cy="123.3" rx="5.0" ry="5.0" class="atom-16" style="fill:#FF7F7F;fill-rule:evenodd;stroke:#FF7F7F;stroke-width:1.0px;stroke-linecap:butt;stroke-linejoin:miter;stroke-opacity:1"/>
<ellipse cx="608.6" cy="131.5" rx="5.0" ry="5.0" class="atom-17" style="fill:#FF7F7F;fill-rule:evenodd;stroke:#FF7F7F;stroke-width:1.0px;stroke-linecap:butt;stroke-linejoin:miter;stroke-opacity:1"/>
<ellipse cx="663.5" cy="90.7" rx="8.8" ry="5.1" class="atom-18" style="fill:#FF7F7F;fill-rule:evenodd;stroke:#FF7F7F;stroke-width:1.0px;stroke-linecap:butt;stroke-linejoin:miter;stroke-opacity:1"/>
<ellipse cx="622.8" cy="58.0" rx="5.0" ry="5.1" class="atom-19" style="fill:#FF7F7F;fill-rule:evenodd;stroke:#FF7F7F;stroke-width:1.0px;stroke-linecap:butt;stroke-linejoin:miter;stroke-opacity:1"/>
<ellipse cx="603.9" cy="41.7" rx="5.0" ry="5.0" class="atom-20" style="fill:#FF7F7F;fill-rule:evenodd;stroke:#FF7F7F;stroke-width:1.0px;stroke-linecap:butt;stroke-linejoin:miter;stroke-opacity:1"/>
<path class="bond-0 atom-0 atom-1" d="M 377.6,74.3 L 396.5,90.7" style="fill:none;fill-rule:evenodd;stroke:#000000;stroke-width:2.0px;stroke-linecap:butt;stroke-linejoin:miter;stroke-opacity:1"/>
<path class="bond-1 atom-1 atom-2" d="M 396.5,90.7 L 391.8,115.1" style="fill:none;fill-rule:evenodd;stroke:#000000;stroke-width:2.0px;stroke-linecap:butt;stroke-linejoin:miter;stroke-opacity:1"/>
<path class="bond-2 atom-1 atom-3" d="M 396.5,90.7 L 420.1,82.5" style="fill:none;fill-rule:evenodd;stroke:#000000;stroke-width:2.0px;stroke-linecap:butt;stroke-linejoin:miter;stroke-opacity:1"/>
<path class="bond-3 atom-3 atom-4" d="M 420.1,82.5 L 438.9,98.8" style="fill:none;fill-rule:evenodd;stroke:#000000;stroke-width:2.0px;stroke-linecap:butt;stroke-linejoin:miter;stroke-opacity:1"/>
<path class="bond-4 atom-4 atom-5" d="M 438.9,98.8 L 462.5,90.7" style="fill:none;fill-rule:evenodd;stroke:#000000;stroke-width:2.0px;stroke-linecap:butt;stroke-linejoin:miter;stroke-opacity:1"/>
<path class="bond-5 atom-5 atom-6" d="M 462.5,90.7 L 481.4,107.0" style="fill:none;fill-rule:evenodd;stroke:#000000;stroke-width:2.0px;stroke-linecap:butt;stroke-linejoin:miter;stroke-opacity:1"/>
<path class="bond-6 atom-6 atom-7" d="M 481.4,107.0 L 504.9,98.8" style="fill:none;fill-rule:evenodd;stroke:#000000;stroke-width:2.0px;stroke-linecap:butt;stroke-linejoin:miter;stroke-opacity:1"/>
<path class="bond-7 atom-7 atom-8" d="M 504.9,98.8 L 523.8,115.1" style="fill:none;fill-rule:evenodd;stroke:#000000;stroke-width:2.0px;stroke-linecap:butt;stroke-linejoin:miter;stroke-opacity:1"/>
<path class="bond-8 atom-8 atom-9" d="M 526.2,115.6 L 524.3,125.7" style="fill:none;fill-rule:evenodd;stroke:#000000;stroke-width:2.0px;stroke-linecap:butt;stroke-linejoin:miter;stroke-opacity:1"/>
<path class="bond-8 atom-8 atom-9" d="M 524.3,125.7 L 522.4,135.7" style="fill:none;fill-rule:evenodd;stroke:#FF0000;stroke-width:2.0px;stroke-linecap:butt;stroke-linejoin:miter;stroke-opacity:1"/>
<path class="bond-8 atom-8 atom-9" d="M 521.3,114.7 L 519.4,124.7" style="fill:none;fill-rule:evenodd;stroke:#000000;stroke-width:2.0px;stroke-linecap:butt;stroke-linejoin:miter;stroke-opacity:1"/>
<path class="bond-8 atom-8 atom-9" d="M 519.4,124.7 L 517.5,134.8" style="fill:none;fill-rule:evenodd;stroke:#FF0000;stroke-width:2.0px;stroke-linecap:butt;stroke-linejoin:miter;stroke-opacity:1"/>
<path class="bond-9 atom-8 atom-10" d="M 523.8,115.1 L 533.8,111.7" style="fill:none;fill-rule:evenodd;stroke:#000000;stroke-width:2.0px;stroke-linecap:butt;stroke-linejoin:miter;stroke-opacity:1"/>
<path class="bond-9 atom-8 atom-10" d="M 533.8,111.7 L 543.9,108.2" style="fill:none;fill-rule:evenodd;stroke:#0000FF;stroke-width:2.0px;stroke-linecap:butt;stroke-linejoin:miter;stroke-opacity:1"/>
<path class="bond-10 atom-10 atom-11" d="M 550.9,110.0 L 558.5,116.7" style="fill:none;fill-rule:evenodd;stroke:#0000FF;stroke-width:2.0px;stroke-linecap:butt;stroke-linejoin:miter;stroke-opacity:1"/>
<path class="bond-10 atom-10 atom-11" d="M 558.5,116.7 L 566.2,123.3" style="fill:none;fill-rule:evenodd;stroke:#000000;stroke-width:2.0px;stroke-linecap:butt;stroke-linejoin:miter;stroke-opacity:1"/>
<path class="bond-11 atom-11 atom-12" d="M 566.2,123.3 L 589.8,115.1" style="fill:none;fill-rule:evenodd;stroke:#000000;stroke-width:2.0px;stroke-linecap:butt;stroke-linejoin:miter;stroke-opacity:1"/>
<path class="bond-12 atom-12 atom-13" d="M 589.8,115.1 L 594.5,90.7" style="fill:none;fill-rule:evenodd;stroke:#000000;stroke-width:2.0px;stroke-linecap:butt;stroke-linejoin:miter;stroke-opacity:1"/>
<path class="bond-12 atom-12 atom-13" d="M 595.4,112.4 L 598.7,95.3" style="fill:none;fill-rule:evenodd;stroke:#000000;stroke-width:2.0px;stroke-linecap:butt;stroke-linejoin:miter;stroke-opacity:1"/>
<path class="bond-13 atom-13 atom-14" d="M 594.5,90.7 L 618.1,82.5" style="fill:none;fill-rule:evenodd;stroke:#000000;stroke-width:2.0px;stroke-linecap:butt;stroke-linejoin:miter;stroke-opacity:1"/>
<path class="bond-14 atom-14 atom-15" d="M 618.1,82.5 L 636.9,98.8" style="fill:none;fill-rule:evenodd;stroke:#000000;stroke-width:2.0px;stroke-linecap:butt;stroke-linejoin:miter;stroke-opacity:1"/>
<path class="bond-14 atom-14 atom-15" d="M 617.6,88.7 L 630.8,100.1" style="fill:none;fill-rule:evenodd;stroke:#000000;stroke-width:2.0px;stroke-linecap:butt;stroke-linejoin:miter;stroke-opacity:1"/>
<path class="bond-15 atom-15 atom-16" d="M 636.9,98.8 L 632.2,123.3" style="fill:none;fill-rule:evenodd;stroke:#000000;stroke-width:2.0px;stroke-linecap:butt;stroke-linejoin:miter;stroke-opacity:1"/>
<path class="bond-16 atom-16 atom-17" d="M 632.2,123.3 L 608.6,131.5" style="fill:none;fill-rule:evenodd;stroke:#000000;stroke-width:2.0px;stroke-linecap:butt;stroke-linejoin:miter;stroke-opacity:1"/>
<path class="bond-16 atom-16 atom-17" d="M 627.0,119.8 L 610.5,125.5" style="fill:none;fill-rule:evenodd;stroke:#000000;stroke-width:2.0px;stroke-linecap:butt;stroke-linejoin:miter;stroke-opacity:1"/>
<path class="bond-17 atom-15 atom-18" d="M 636.9,98.8 L 646.7,95.4" style="fill:none;fill-rule:evenodd;stroke:#000000;stroke-width:2.0px;stroke-linecap:butt;stroke-linejoin:miter;stroke-opacity:1"/>
<path class="bond-17 atom-15 atom-18" d="M 646.7,95.4 L 656.4,92.1" style="fill:none;fill-rule:evenodd;stroke:#FF0000;stroke-width:2.0px;stroke-linecap:butt;stroke-linejoin:miter;stroke-opacity:1"/>
<path class="bond-18 atom-14 atom-19" d="M 618.1,82.5 L 620.0,72.5" style="fill:none;fill-rule:evenodd;stroke:#000000;stroke-width:2.0px;stroke-linecap:butt;stroke-linejoin:miter;stroke-opacity:1"/>
<path class="bond-18 atom-14 atom-19" d="M 620.0,72.5 L 621.9,62.5" style="fill:none;fill-rule:evenodd;stroke:#FF0000;stroke-width:2.0px;stroke-linecap:butt;stroke-linejoin:miter;stroke-opacity:1"/>
<path class="bond-19 atom-19 atom-20" d="M 618.7,54.5 L 611.3,48.1" style="fill:none;fill-rule:evenodd;stroke:#FF0000;stroke-width:2.0px;stroke-linecap:butt;stroke-linejoin:miter;stroke-opacity:1"/>
<path class="bond-19 atom-19 atom-20" d="M 611.3,48.1 L 603.9,41.7" style="fill:none;fill-rule:evenodd;stroke:#000000;stroke-width:2.0px;stroke-linecap:butt;stroke-linejoin:miter;stroke-opacity:1"/>
<path class="bond-20 atom-17 atom-12" d="M 608.6,131.5 L 589.8,115.1" style="fill:none;fill-rule:evenodd;stroke:#000000;stroke-width:2.0px;stroke-linecap:butt;stroke-linejoin:miter;stroke-opacity:1"/>
<path class="atom-9" d="M 515.8 139.7 Q 515.8 138.0, 516.7 137.0 Q 517.5 136.1, 519.1 136.1 Q 520.6 136.1, 521.5 137.0 Q 522.3 138.0, 522.3 139.7 Q 522.3 141.4, 521.5 142.4 Q 520.6 143.3, 519.1 143.3 Q 517.5 143.3, 516.7 142.4 Q 515.8 141.4, 515.8 139.7 M 519.1 142.5 Q 520.1 142.5, 520.7 141.8 Q 521.3 141.1, 521.3 139.7 Q 521.3 138.3, 520.7 137.6 Q 520.1 136.9, 519.1 136.9 Q 518.0 136.9, 517.4 137.6 Q 516.8 138.3, 516.8 139.7 Q 516.8 141.1, 517.4 141.8 Q 518.0 142.5, 519.1 142.5 " fill="#FF0000"/>
<path class="atom-10" d="M 545.8 103.5 L 548.1 107.2 Q 548.3 107.6, 548.7 108.2 Q 549.1 108.9, 549.1 108.9 L 549.1 103.5 L 550.0 103.5 L 550.0 110.5 L 549.1 110.5 L 546.6 106.4 Q 546.3 105.9, 546.0 105.4 Q 545.7 104.8, 545.6 104.7 L 545.6 110.5 L 544.7 110.5 L 544.7 103.5 L 545.8 103.5 " fill="#0000FF"/>
<path class="atom-10" d="M 544.6 95.7 L 545.5 95.7 L 545.5 98.7 L 549.2 98.7 L 549.2 95.7 L 550.1 95.7 L 550.1 102.7 L 549.2 102.7 L 549.2 99.5 L 545.5 99.5 L 545.5 102.7 L 544.6 102.7 L 544.6 95.7 " fill="#0000FF"/>
<path class="atom-18" d="M 657.3 90.7 Q 657.3 89.0, 658.1 88.0 Q 658.9 87.1, 660.5 87.1 Q 662.1 87.1, 662.9 88.0 Q 663.7 89.0, 663.7 90.7 Q 663.7 92.4, 662.9 93.4 Q 662.0 94.3, 660.5 94.3 Q 658.9 94.3, 658.1 93.4 Q 657.3 92.4, 657.3 90.7 M 660.5 93.5 Q 661.6 93.5, 662.2 92.8 Q 662.7 92.1, 662.7 90.7 Q 662.7 89.3, 662.2 88.6 Q 661.6 87.9, 660.5 87.9 Q 659.4 87.9, 658.8 88.6 Q 658.3 89.3, 658.3 90.7 Q 658.3 92.1, 658.8 92.8 Q 659.4 93.5, 660.5 93.5 " fill="#FF0000"/>
<path class="atom-18" d="M 664.2 87.2 L 665.2 87.2 L 665.2 90.2 L 668.8 90.2 L 668.8 87.2 L 669.8 87.2 L 669.8 94.2 L 668.8 94.2 L 668.8 91.0 L 665.2 91.0 L 665.2 94.2 L 664.2 94.2 L 664.2 87.2 " fill="#FF0000"/>
<path class="atom-19" d="M 619.5 58.0 Q 619.5 56.3, 620.4 55.4 Q 621.2 54.4, 622.8 54.4 Q 624.4 54.4, 625.2 55.4 Q 626.0 56.3, 626.0 58.0 Q 626.0 59.7, 625.2 60.7 Q 624.3 61.7, 622.8 61.7 Q 621.2 61.7, 620.4 60.7 Q 619.5 59.7, 619.5 58.0 M 622.8 60.9 Q 623.9 60.9, 624.4 60.2 Q 625.0 59.4, 625.0 58.0 Q 625.0 56.6, 624.4 55.9 Q 623.9 55.2, 622.8 55.2 Q 621.7 55.2, 621.1 55.9 Q 620.5 56.6, 620.5 58.0 Q 620.5 59.4, 621.1 60.2 Q 621.7 60.9, 622.8 60.9 " fill="#FF0000"/>
<path class="legend" d="M 521.4 194.9 L 520.0 194.9 L 518.8 185.6 L 515.7 194.9 L 514.2 194.9 L 511.1 185.6 L 510.0 194.9 L 508.5 194.9 L 509.9 183.5 L 511.8 183.5 L 515.0 192.7 L 518.1 183.5 L 520.0 183.5 L 521.4 194.9 " fill="#000000"/>
<path class="legend" d="M 522.5 190.7 Q 522.5 188.7, 523.5 187.6 Q 524.5 186.5, 526.4 186.5 Q 528.3 186.5, 529.3 187.6 Q 530.3 188.7, 530.3 190.7 Q 530.3 192.7, 529.3 193.9 Q 528.3 195.0, 526.4 195.0 Q 524.5 195.0, 523.5 193.9 Q 522.5 192.7, 522.5 190.7 M 524.0 190.7 Q 524.0 192.2, 524.6 193.0 Q 525.2 193.8, 526.4 193.8 Q 527.5 193.8, 528.1 193.0 Q 528.8 192.2, 528.8 190.7 Q 528.8 189.2, 528.1 188.5 Q 527.5 187.7, 526.4 187.7 Q 525.2 187.7, 524.6 188.5 Q 524.0 189.2, 524.0 190.7 " fill="#000000"/>
<path class="legend" d="M 531.0 182.7 L 532.5 182.7 L 532.5 194.9 L 531.0 194.9 L 531.0 182.7 " fill="#000000"/>
<path class="legend" d="M 533.9 185.7 Q 534.3 184.6, 535.3 184.0 Q 536.3 183.4, 537.7 183.4 Q 539.4 183.4, 540.4 184.3 Q 541.3 185.3, 541.3 186.9 Q 541.3 188.6, 540.1 190.2 Q 538.8 191.7, 536.3 193.6 L 541.5 193.6 L 541.5 194.9 L 533.9 194.9 L 533.9 193.8 Q 536.0 192.3, 537.2 191.2 Q 538.5 190.1, 539.1 189.0 Q 539.7 188.0, 539.7 187.0 Q 539.7 185.9, 539.2 185.3 Q 538.6 184.7, 537.7 184.7 Q 536.8 184.7, 536.2 185.1 Q 535.6 185.4, 535.1 186.2 L 533.9 185.7 " fill="#000000"/>
<path class="bond-0 atom-0 atom-1" d="M 899.8,75.2 L 924.4,79.5" style="fill:none;fill-rule:evenodd;stroke:#FF7F7F;stroke-width:5.3px;stroke-linecap:butt;stroke-linejoin:miter;stroke-opacity:1"/>
<path class="bond-2 atom-0 atom-3" d="M 899.8,75.2 L 883.8,94.3" style="fill:none;fill-rule:evenodd;stroke:#FF7F7F;stroke-width:5.3px;stroke-linecap:butt;stroke-linejoin:miter;stroke-opacity:1"/>
<path class="bond-10 atom-0 atom-10" d="M 899.8,75.2 L 891.3,51.8" style="fill:none;fill-rule:evenodd;stroke:#FF7F7F;stroke-width:5.3px;stroke-linecap:butt;stroke-linejoin:miter;stroke-opacity:1"/>
<path class="bond-3 atom-3 atom-4" d="M 883.8,94.3 L 859.2,90.0" style="fill:none;fill-rule:evenodd;stroke:#FF7F7F;stroke-width:5.3px;stroke-linecap:butt;stroke-linejoin:miter;stroke-opacity:1"/>
<path class="bond-4 atom-4 atom-5" d="M 859.2,90.0 L 843.2,109.1" style="fill:none;fill-rule:evenodd;stroke:#FF7F7F;stroke-width:5.3px;stroke-linecap:butt;stroke-linejoin:miter;stroke-opacity:1"/>
<path class="bond-6 atom-4 atom-7" d="M 859.2,90.0 L 850.7,66.6" style="fill:none;fill-rule:evenodd;stroke:#FF7F7F;stroke-width:5.3px;stroke-linecap:butt;stroke-linejoin:miter;stroke-opacity:1"/>
<path class="bond-5 atom-5 atom-6" d="M 843.2,109.1 L 851.7,132.6" style="fill:none;fill-rule:evenodd;stroke:#FF7F7F;stroke-width:5.3px;stroke-linecap:butt;stroke-linejoin:miter;stroke-opacity:1"/>
<path class="bond-7 atom-7 atom-8" d="M 850.7,66.6 L 826.1,62.2" style="fill:none;fill-rule:evenodd;stroke:#FF7F7F;stroke-width:5.3px;stroke-linecap:butt;stroke-linejoin:miter;stroke-opacity:1"/>
<path class="bond-8 atom-7 atom-9" d="M 850.7,66.6 L 866.7,47.4" style="fill:none;fill-rule:evenodd;stroke:#FF7F7F;stroke-width:5.3px;stroke-linecap:butt;stroke-linejoin:miter;stroke-opacity:1"/>
<path class="bond-9 atom-9 atom-10" d="M 866.7,47.4 L 891.3,51.8" style="fill:none;fill-rule:evenodd;stroke:#FF7F7F;stroke-width:5.3px;stroke-linecap:butt;stroke-linejoin:miter;stroke-opacity:1"/>
<ellipse cx="899.8" cy="75.2" rx="5.0" ry="5.0" class="atom-0" style="fill:#FF7F7F;fill-rule:evenodd;stroke:#FF7F7F;stroke-width:1.0px;stroke-linecap:butt;stroke-linejoin:miter;stroke-opacity:1"/>
<ellipse cx="924.4" cy="79.5" rx="5.0" ry="5.0" class="atom-1" style="fill:#FF7F7F;fill-rule:evenodd;stroke:#FF7F7F;stroke-width:1.0px;stroke-linecap:butt;stroke-linejoin:miter;stroke-opacity:1"/>
<ellipse cx="883.8" cy="94.3" rx="5.0" ry="5.0" class="atom-3" style="fill:#FF7F7F;fill-rule:evenodd;stroke:#FF7F7F;stroke-width:1.0px;stroke-linecap:butt;stroke-linejoin:miter;stroke-opacity:1"/>
<ellipse cx="859.2" cy="90.0" rx="5.0" ry="5.0" class="atom-4" style="fill:#FF7F7F;fill-rule:evenodd;stroke:#FF7F7F;stroke-width:1.0px;stroke-linecap:butt;stroke-linejoin:miter;stroke-opacity:1"/>
<ellipse cx="843.2" cy="109.2" rx="5.0" ry="5.1" class="atom-5" style="fill:#FF7F7F;fill-rule:evenodd;stroke:#FF7F7F;stroke-width:1.0px;stroke-linecap:butt;stroke-linejoin:miter;stroke-opacity:1"/>
<ellipse cx="851.7" cy="132.6" rx="5.0" ry="5.0" class="atom-6" style="fill:#FF7F7F;fill-rule:evenodd;stroke:#FF7F7F;stroke-width:1.0px;stroke-linecap:butt;stroke-linejoin:miter;stroke-opacity:1"/>
<ellipse cx="850.7" cy="66.6" rx="5.0" ry="5.0" class="atom-7" style="fill:#FF7F7F;fill-rule:evenodd;stroke:#FF7F7F;stroke-width:1.0px;stroke-linecap:butt;stroke-linejoin:miter;stroke-opacity:1"/>
<ellipse cx="822.9" cy="62.3" rx="9.1" ry="5.1" class="atom-8" style="fill:#FF7F7F;fill-rule:evenodd;stroke:#FF7F7F;stroke-width:1.0px;stroke-linecap:butt;stroke-linejoin:miter;stroke-opacity:1"/>
<ellipse cx="866.7" cy="47.4" rx="5.0" ry="5.0" class="atom-9" style="fill:#FF7F7F;fill-rule:evenodd;stroke:#FF7F7F;stroke-width:1.0px;stroke-linecap:butt;stroke-linejoin:miter;stroke-opacity:1"/>
<ellipse cx="891.3" cy="51.8" rx="5.0" ry="5.0" class="atom-10" style="fill:#FF7F7F;fill-rule:evenodd;stroke:#FF7F7F;stroke-width:1.0px;stroke-linecap:butt;stroke-linejoin:miter;stroke-opacity:1"/>
<path class="bond-0 atom-0 atom-1" d="M 899.8,75.2 L 924.4,79.5" style="fill:none;fill-rule:evenodd;stroke:#000000;stroke-width:2.0px;stroke-linecap:butt;stroke-linejoin:miter;stroke-opacity:1"/>
<path class="bond-1 atom-1 atom-2" d="M 926.7,78.7 L 930.2,88.2" style="fill:none;fill-rule:evenodd;stroke:#000000;stroke-width:2.0px;stroke-linecap:butt;stroke-linejoin:miter;stroke-opacity:1"/>
<path class="bond-1 atom-1 atom-2" d="M 930.2,88.2 L 933.7,97.7" style="fill:none;fill-rule:evenodd;stroke:#FF0000;stroke-width:2.0px;stroke-linecap:butt;stroke-linejoin:miter;stroke-opacity:1"/>
<path class="bond-1 atom-1 atom-2" d="M 922.0,80.4 L 925.5,89.9" style="fill:none;fill-rule:evenodd;stroke:#000000;stroke-width:2.0px;stroke-linecap:butt;stroke-linejoin:miter;stroke-opacity:1"/>
<path class="bond-1 atom-1 atom-2" d="M 925.5,89.9 L 929.0,99.4" style="fill:none;fill-rule:evenodd;stroke:#FF0000;stroke-width:2.0px;stroke-linecap:butt;stroke-linejoin:miter;stroke-opacity:1"/>
<path class="bond-2 atom-0 atom-3" d="M 899.8,75.2 L 883.8,94.3" style="fill:none;fill-rule:evenodd;stroke:#000000;stroke-width:2.0px;stroke-linecap:butt;stroke-linejoin:miter;stroke-opacity:1"/>
<path class="bond-2 atom-0 atom-3" d="M 893.6,74.9 L 882.4,88.3" style="fill:none;fill-rule:evenodd;stroke:#000000;stroke-width:2.0px;stroke-linecap:butt;stroke-linejoin:miter;stroke-opacity:1"/>
<path class="bond-3 atom-3 atom-4" d="M 883.8,94.3 L 859.2,90.0" style="fill:none;fill-rule:evenodd;stroke:#000000;stroke-width:2.0px;stroke-linecap:butt;stroke-linejoin:miter;stroke-opacity:1"/>
<path class="bond-4 atom-4 atom-5" d="M 859.2,90.0 L 853.0,97.4" style="fill:none;fill-rule:evenodd;stroke:#000000;stroke-width:2.0px;stroke-linecap:butt;stroke-linejoin:miter;stroke-opacity:1"/>
<path class="bond-4 atom-4 atom-5" d="M 853.0,97.4 L 846.9,104.7" style="fill:none;fill-rule:evenodd;stroke:#FF0000;stroke-width:2.0px;stroke-linecap:butt;stroke-linejoin:miter;stroke-opacity:1"/>
<path class="bond-5 atom-5 atom-6" d="M 844.8,113.6 L 848.3,123.1" style="fill:none;fill-rule:evenodd;stroke:#FF0000;stroke-width:2.0px;stroke-linecap:butt;stroke-linejoin:miter;stroke-opacity:1"/>
<path class="bond-5 atom-5 atom-6" d="M 848.3,123.1 L 851.7,132.6" style="fill:none;fill-rule:evenodd;stroke:#000000;stroke-width:2.0px;stroke-linecap:butt;stroke-linejoin:miter;stroke-opacity:1"/>
<path class="bond-6 atom-4 atom-7" d="M 859.2,90.0 L 850.7,66.6" style="fill:none;fill-rule:evenodd;stroke:#000000;stroke-width:2.0px;stroke-linecap:butt;stroke-linejoin:miter;stroke-opacity:1"/>
<path class="bond-6 atom-4 atom-7" d="M 862.6,84.8 L 856.7,68.4" style="fill:none;fill-rule:evenodd;stroke:#000000;stroke-width:2.0px;stroke-linecap:butt;stroke-linejoin:miter;stroke-opacity:1"/>
<path class="bond-7 atom-7 atom-8" d="M 850.7,66.6 L 840.4,64.8" style="fill:none;fill-rule:evenodd;stroke:#000000;stroke-width:2.0px;stroke-linecap:butt;stroke-linejoin:miter;stroke-opacity:1"/>
<path class="bond-7 atom-7 atom-8" d="M 840.4,64.8 L 830.2,62.9" style="fill:none;fill-rule:evenodd;stroke:#FF0000;stroke-width:2.0px;stroke-linecap:butt;stroke-linejoin:miter;stroke-opacity:1"/>
<path class="bond-8 atom-7 atom-9" d="M 850.7,66.6 L 866.7,47.4" style="fill:none;fill-rule:evenodd;stroke:#000000;stroke-width:2.0px;stroke-linecap:butt;stroke-linejoin:miter;stroke-opacity:1"/>
<path class="bond-9 atom-9 atom-10" d="M 866.7,47.4 L 891.3,51.8" style="fill:none;fill-rule:evenodd;stroke:#000000;stroke-width:2.0px;stroke-linecap:butt;stroke-linejoin:miter;stroke-opacity:1"/>
<path class="bond-9 atom-9 atom-10" d="M 869.5,53.0 L 886.7,56.0" style="fill:none;fill-rule:evenodd;stroke:#000000;stroke-width:2.0px;stroke-linecap:butt;stroke-linejoin:miter;stroke-opacity:1"/>
<path class="bond-10 atom-10 atom-0" d="M 891.3,51.8 L 899.8,75.2" style="fill:none;fill-rule:evenodd;stroke:#000000;stroke-width:2.0px;stroke-linecap:butt;stroke-linejoin:miter;stroke-opacity:1"/>
<path class="atom-2" d="M 929.7 103.0 Q 929.7 101.3, 930.5 100.4 Q 931.4 99.4, 932.9 99.4 Q 934.5 99.4, 935.3 100.4 Q 936.2 101.3, 936.2 103.0 Q 936.2 104.7, 935.3 105.7 Q 934.5 106.7, 932.9 106.7 Q 931.4 106.7, 930.5 105.7 Q 929.7 104.7, 929.7 103.0 M 932.9 105.9 Q 934.0 105.9, 934.6 105.1 Q 935.2 104.4, 935.2 103.0 Q 935.2 101.6, 934.6 100.9 Q 934.0 100.2, 932.9 100.2 Q 931.8 100.2, 931.3 100.9 Q 930.7 101.6, 930.7 103.0 Q 930.7 104.4, 931.3 105.1 Q 931.8 105.9, 932.9 105.9 " fill="#FF0000"/>
<path class="atom-5" d="M 839.9 109.1 Q 839.9 107.4, 840.8 106.5 Q 841.6 105.5, 843.2 105.5 Q 844.8 105.5, 845.6 106.5 Q 846.4 107.4, 846.4 109.1 Q 846.4 110.8, 845.6 111.8 Q 844.7 112.8, 843.2 112.8 Q 841.6 112.8, 840.8 111.8 Q 839.9 110.9, 839.9 109.1 M 843.2 112.0 Q 844.3 112.0, 844.8 111.3 Q 845.4 110.5, 845.4 109.1 Q 845.4 107.7, 844.8 107.0 Q 844.3 106.3, 843.2 106.3 Q 842.1 106.3, 841.5 107.0 Q 840.9 107.7, 840.9 109.1 Q 840.9 110.6, 841.5 111.3 Q 842.1 112.0, 843.2 112.0 " fill="#FF0000"/>
<path class="atom-8" d="M 816.5 58.7 L 817.5 58.7 L 817.5 61.7 L 821.1 61.7 L 821.1 58.7 L 822.0 58.7 L 822.0 65.8 L 821.1 65.8 L 821.1 62.5 L 817.5 62.5 L 817.5 65.8 L 816.5 65.8 L 816.5 58.7 " fill="#FF0000"/>
<path class="atom-8" d="M 822.9 62.3 Q 822.9 60.6, 823.7 59.6 Q 824.5 58.7, 826.1 58.7 Q 827.7 58.7, 828.5 59.6 Q 829.4 60.6, 829.4 62.3 Q 829.4 64.0, 828.5 64.9 Q 827.7 65.9, 826.1 65.9 Q 824.6 65.9, 823.7 64.9 Q 822.9 64.0, 822.9 62.3 M 826.1 65.1 Q 827.2 65.1, 827.8 64.4 Q 828.4 63.7, 828.4 62.3 Q 828.4 60.9, 827.8 60.2 Q 827.2 59.5, 826.1 59.5 Q 825.0 59.5, 824.4 60.2 Q 823.9 60.9, 823.9 62.3 Q 823.9 63.7, 824.4 64.4 Q 825.0 65.1, 826.1 65.1 " fill="#FF0000"/>
<path class="legend" d="M 871.4 194.8 L 870.0 194.8 L 868.8 185.6 L 865.8 194.8 L 864.2 194.8 L 861.1 185.6 L 860.0 194.8 L 858.5 194.8 L 859.9 183.5 L 861.8 183.5 L 865.0 192.6 L 868.1 183.5 L 870.0 183.5 L 871.4 194.8 " fill="#000000"/>
<path class="legend" d="M 872.5 190.7 Q 872.5 188.7, 873.5 187.6 Q 874.5 186.5, 876.4 186.5 Q 878.3 186.5, 879.3 187.6 Q 880.3 188.7, 880.3 190.7 Q 880.3 192.7, 879.3 193.8 Q 878.3 195.0, 876.4 195.0 Q 874.5 195.0, 873.5 193.8 Q 872.5 192.7, 872.5 190.7 M 874.0 190.7 Q 874.0 192.2, 874.6 193.0 Q 875.3 193.8, 876.4 193.8 Q 877.5 193.8, 878.1 193.0 Q 878.8 192.2, 878.8 190.7 Q 878.8 189.2, 878.1 188.4 Q 877.5 187.7, 876.4 187.7 Q 875.3 187.7, 874.6 188.4 Q 874.0 189.2, 874.0 190.7 " fill="#000000"/>
<path class="legend" d="M 881.0 182.7 L 882.5 182.7 L 882.5 194.8 L 881.0 194.8 L 881.0 182.7 " fill="#000000"/>
<path class="legend" d="M 889.3 188.9 Q 890.4 189.2, 891.0 189.9 Q 891.5 190.6, 891.5 191.7 Q 891.5 192.7, 891.0 193.4 Q 890.5 194.2, 889.7 194.6 Q 888.8 195.0, 887.6 195.0 Q 886.4 195.0, 885.5 194.6 Q 884.6 194.2, 883.9 193.3 L 884.8 192.4 Q 885.5 193.1, 886.1 193.4 Q 886.7 193.7, 887.6 193.7 Q 888.6 193.7, 889.3 193.2 Q 889.9 192.6, 889.9 191.7 Q 889.9 190.6, 889.2 190.1 Q 888.6 189.5, 887.2 189.5 L 886.4 189.5 L 886.4 188.4 L 887.1 188.4 Q 888.3 188.4, 889.0 187.8 Q 889.7 187.3, 889.7 186.3 Q 889.7 185.5, 889.1 185.1 Q 888.6 184.7, 887.6 184.7 Q 886.7 184.7, 886.1 185.0 Q 885.5 185.3, 885.1 186.2 L 884.0 185.6 Q 884.4 184.6, 885.3 184.0 Q 886.3 183.4, 887.6 183.4 Q 889.3 183.4, 890.3 184.2 Q 891.3 185.0, 891.3 186.3 Q 891.3 187.2, 890.8 187.8 Q 890.3 188.5, 889.3 188.9 " fill="#000000"/>
</svg>