<svg xmlns="http://www.w3.org/2000/svg" xmlns:rdkit="http://www.rdkit.org/xml" xmlns:xlink="http://www.w3.org/1999/xlink" version="1.1" baseProfile="full" xml:space="preserve" width="500px" height="500px" viewBox="0 0 500 500">
<!-- END OF HEADER -->
<rect style="opacity:1.0;fill:#FFFFFF;stroke:none" width="500.0" height="500.0" x="0.0" y="0.0"> </rect>
<path class="bond-2 atom-2 atom-3" d="M 146.0,260.3 L 43.3,260.3" style="fill:none;fill-rule:evenodd;stroke:#FF7F7F;stroke-width:21.9px;stroke-linecap:butt;stroke-linejoin:miter;stroke-opacity:1"/>
<path class="bond-3 atom-2 atom-4" d="M 146.0,260.3 L 197.3,171.3" style="fill:none;fill-rule:evenodd;stroke:#FF7F7F;stroke-width:21.9px;stroke-linecap:butt;stroke-linejoin:miter;stroke-opacity:1"/>
<path class="bond-4 atom-4 atom-5" d="M 197.3,171.3 L 300.0,171.3" style="fill:none;fill-rule:evenodd;stroke:#FF7F7F;stroke-width:21.9px;stroke-linecap:butt;stroke-linejoin:miter;stroke-opacity:1"/>
<path class="bond-5 atom-5 atom-6" d="M 300.0,171.3 L 351.4,260.3" style="fill:none;fill-rule:evenodd;stroke:#FF7F7F;stroke-width:21.9px;stroke-linecap:butt;stroke-linejoin:miter;stroke-opacity:1"/>
<path class="bond-6 atom-6 atom-7" d="M 351.4,260.3 L 454.1,260.3" style="fill:none;fill-rule:evenodd;stroke:#FF7F7F;stroke-width:21.9px;stroke-linecap:butt;stroke-linejoin:miter;stroke-opacity:1"/>
<ellipse cx="146.0" cy="260.3" rx="20.5" ry="20.5" class="atom-2" style="fill:#FF7F7F;fill-rule:evenodd;stroke:#FF7F7F;stroke-width:1.0px;stroke-linecap:butt;stroke-linejoin:miter;stroke-opacity:1"/>
<ellipse cx="43.3" cy="260.3" rx="20.5" ry="20.5" class="atom-3" style="fill:#FF7F7F;fill-rule:evenodd;stroke:#FF7F7F;stroke-width:1.0px;stroke-linecap:butt;stroke-linejoin:miter;stroke-opacity:1"/>
<ellipse cx="197.3" cy="171.3" rx="20.5" ry="20.5" class="atom-4" style="fill:#FF7F7F;fill-rule:evenodd;stroke:#FF7F7F;stroke-width:1.0px;stroke-linecap:butt;stroke-linejoin:miter;stroke-opacity:1"/>
<ellipse cx="300.0" cy="171.3" rx="20.5" ry="20.5" class="atom-5" style="fill:#FF7F7F;fill-rule:evenodd;stroke:#FF7F7F;stroke-width:1.0px;stroke-linecap:butt;stroke-linejoin:miter;stroke-opacity:1"/>
<ellipse cx="351.4" cy="260.3" rx="20.5" ry="20.5" class="atom-6" style="fill:#FF7F7F;fill-rule:evenodd;stroke:#FF7F7F;stroke-width:1.0px;stroke-linecap:butt;stroke-linejoin:miter;stroke-opacity:1"/>
<ellipse cx="456.7" cy="260.4" rx="20.5" ry="21.7" class="atom-7" style="fill:#FF7F7F;fill-rule:evenodd;stroke:#FF7F7F;stroke-width:1.0px;stroke-linecap:butt;stroke-linejoin:miter;stroke-opacity:1"/>
<path class="bond-0 atom-0 atom-1" d="M 300.0,349.2 L 197.3,349.2" style="fill:none;fill-rule:evenodd;stroke:#000000;stroke-width:2.0px;stroke-linecap:butt;stroke-linejoin:miter;stroke-opacity:1"/>
<path class="bond-0 atom-0 atom-1" d="M 284.6,328.7 L 212.7,328.7" style="fill:none;fill-rule:evenodd;stroke:#000000;stroke-width:2.0px;stroke-linecap:butt;stroke-linejoin:miter;stroke-opacity:1"/>
<path class="bond-1 atom-1 atom-2" d="M 197.3,349.2 L 146.0,260.3" style="fill:none;fill-rule:evenodd;stroke:#000000;stroke-width:2.0px;stroke-linecap:butt;stroke-linejoin:miter;stroke-opacity:1"/>
<path class="bond-2 atom-2 atom-3" d="M 146.0,260.3 L 100.5,260.3" style="fill:none;fill-rule:evenodd;stroke:#000000;stroke-width:2.0px;stroke-linecap:butt;stroke-linejoin:miter;stroke-opacity:1"/>
<path class="bond-2 atom-2 atom-3" d="M 100.5,260.3 L 55.1,260.3" style="fill:none;fill-rule:evenodd;stroke:#33CCCC;stroke-width:2.0px;stroke-linecap:butt;stroke-linejoin:miter;stroke-opacity:1"/>
<path class="bond-3 atom-2 atom-4" d="M 146.0,260.3 L 197.3,171.3" style="fill:none;fill-rule:evenodd;stroke:#000000;stroke-width:2.0px;stroke-linecap:butt;stroke-linejoin:miter;stroke-opacity:1"/>
<path class="bond-3 atom-2 atom-4" d="M 171.5,257.2 L 207.4,194.9" style="fill:none;fill-rule:evenodd;stroke:#000000;stroke-width:2.0px;stroke-linecap:butt;stroke-linejoin:miter;stroke-opacity:1"/>
<path class="bond-4 atom-4 atom-5" d="M 197.3,171.3 L 300.0,171.3" style="fill:none;fill-rule:evenodd;stroke:#000000;stroke-width:2.0px;stroke-linecap:butt;stroke-linejoin:miter;stroke-opacity:1"/>
<path class="bond-5 atom-5 atom-6" d="M 300.0,171.3 L 351.4,260.3" style="fill:none;fill-rule:evenodd;stroke:#000000;stroke-width:2.0px;stroke-linecap:butt;stroke-linejoin:miter;stroke-opacity:1"/>
<path class="bond-5 atom-5 atom-6" d="M 289.9,194.9 L 325.9,257.2" style="fill:none;fill-rule:evenodd;stroke:#000000;stroke-width:2.0px;stroke-linecap:butt;stroke-linejoin:miter;stroke-opacity:1"/>
<path class="bond-6 atom-6 atom-7" d="M 351.4,260.3 L 395.6,260.3" style="fill:none;fill-rule:evenodd;stroke:#000000;stroke-width:2.0px;stroke-linecap:butt;stroke-linejoin:miter;stroke-opacity:1"/>
<path class="bond-6 atom-6 atom-7" d="M 395.6,260.3 L 439.8,260.3" style="fill:none;fill-rule:evenodd;stroke:#00CC00;stroke-width:2.0px;stroke-linecap:butt;stroke-linejoin:miter;stroke-opacity:1"/>
<path class="bond-7 atom-6 atom-0" d="M 351.4,260.3 L 300.0,349.2" style="fill:none;fill-rule:evenodd;stroke:#000000;stroke-width:2.0px;stroke-linecap:butt;stroke-linejoin:miter;stroke-opacity:1"/>
<path class="atom-3" d="M 34.9 246.1 L 51.7 246.1 L 51.7 249.3 L 38.7 249.3 L 38.7 257.9 L 50.3 257.9 L 50.3 261.2 L 38.7 261.2 L 38.7 274.4 L 34.9 274.4 L 34.9 246.1 " fill="#33CCCC"/>
<path class="atom-7" d="M 443.1 261.2 Q 443.1 254.2, 446.4 250.5 Q 449.7 246.8, 456.0 246.8 Q 461.9 246.8, 465.0 250.9 L 462.3 253.1 Q 460.1 250.1, 456.0 250.1 Q 451.7 250.1, 449.5 253.0 Q 447.2 255.8, 447.2 261.2 Q 447.2 266.8, 449.5 269.7 Q 451.9 272.6, 456.5 272.6 Q 459.6 272.6, 463.2 270.7 L 464.3 273.7 Q 462.9 274.7, 460.6 275.2 Q 458.4 275.8, 455.9 275.8 Q 449.7 275.8, 446.4 272.0 Q 443.1 268.3, 443.1 261.2 " fill="#00CC00"/>
<path class="atom-7" d="M 466.6 245.1 L 470.3 245.1 L 470.3 275.4 L 466.6 275.4 L 466.6 245.1 " fill="#00CC00"/>
</svg>