<svg xmlns="http://www.w3.org/2000/svg" xmlns:rdkit="http://www.rdkit.org/xml" xmlns:xlink="http://www.w3.org/1999/xlink" version="1.1" baseProfile="full" xml:space="preserve" width="1400px" height="400px" viewBox="0 0 1400 400">
<!-- END OF HEADER -->
<rect style="opacity:1.0;fill:#FFFFFF;stroke:none" width="1400.0" height="400.0" x="0.0" y="0.0"> </rect>
<path class="bond-0 atom-0 atom-1" d="M 138.9,137.1 L 158.5,125.8" style="fill:none;fill-rule:evenodd;stroke:#191919;stroke-width:2.0px;stroke-linecap:butt;stroke-linejoin:miter;stroke-opacity:1"/>
<path class="bond-0 atom-0 atom-1" d="M 158.5,125.8 L 178.2,114.4" style="fill:none;fill-rule:evenodd;stroke:#000000;stroke-width:2.0px;stroke-linecap:butt;stroke-linejoin:miter;stroke-opacity:1"/>
<path class="bond-1 atom-1 atom-2" d="M 178.2,114.4 L 194.1,123.6" style="fill:none;fill-rule:evenodd;stroke:#000000;stroke-width:2.0px;stroke-linecap:butt;stroke-linejoin:miter;stroke-opacity:1"/>
<path class="bond-1 atom-1 atom-2" d="M 194.1,123.6 L 210.1,132.8" style="fill:none;fill-rule:evenodd;stroke:#191919;stroke-width:2.0px;stroke-linecap:butt;stroke-linejoin:miter;stroke-opacity:1"/>
<path class="bond-2 atom-1 atom-3" d="M 173.0,114.4 L 173.0,93.4" style="fill:none;fill-rule:evenodd;stroke:#000000;stroke-width:2.0px;stroke-linecap:butt;stroke-linejoin:miter;stroke-opacity:1"/>
<path class="bond-2 atom-1 atom-3" d="M 173.0,93.4 L 173.0,72.4" style="fill:none;fill-rule:evenodd;stroke:#FF0000;stroke-width:2.0px;stroke-linecap:butt;stroke-linejoin:miter;stroke-opacity:1"/>
<path class="bond-2 atom-1 atom-3" d="M 183.3,114.4 L 183.3,93.4" style="fill:none;fill-rule:evenodd;stroke:#000000;stroke-width:2.0px;stroke-linecap:butt;stroke-linejoin:miter;stroke-opacity:1"/>
<path class="bond-2 atom-1 atom-3" d="M 183.3,93.4 L 183.3,72.4" style="fill:none;fill-rule:evenodd;stroke:#FF0000;stroke-width:2.0px;stroke-linecap:butt;stroke-linejoin:miter;stroke-opacity:1"/>
<path class="atom-0" d="M 124.5 143.1 L 126.6 143.1 L 126.6 135.9 L 124.3 136.6 L 123.9 135.8 L 126.9 134.5 L 127.8 134.7 L 127.8 143.1 L 129.7 143.1 L 129.7 144.1 L 124.5 144.1 L 124.5 143.1 " fill="#191919"/>
<path class="atom-0" d="M 131.0 138.5 L 133.1 136.3 L 130.3 135.7 L 130.7 134.2 L 133.3 135.6 L 133.0 132.7 L 134.5 132.7 L 134.1 135.5 L 136.7 134.3 L 137.2 135.7 L 134.3 136.2 L 136.4 138.4 L 135.1 139.3 L 133.7 136.6 L 132.3 139.3 L 131.0 138.5 " fill="#191919"/>
<path class="atom-2" d="M 215.5 138.1 Q 216.4 138.1, 217.0 138.5 Q 217.7 138.9, 218.1 139.5 Q 218.4 140.2, 218.4 141.0 Q 218.4 142.0, 218.0 142.7 Q 217.6 143.4, 216.9 143.8 Q 216.1 144.2, 215.2 144.2 Q 213.5 144.2, 212.6 143.1 Q 211.8 141.9, 211.8 139.6 Q 211.8 137.1, 212.8 135.8 Q 213.9 134.4, 216.0 134.4 Q 216.5 134.4, 217.1 134.6 Q 217.6 134.7, 218.1 135.0 L 217.5 135.9 Q 216.8 135.5, 216.0 135.5 Q 214.6 135.5, 213.9 136.4 Q 213.2 137.3, 213.1 139.1 Q 213.6 138.6, 214.2 138.4 Q 214.9 138.1, 215.5 138.1 M 215.2 143.1 Q 215.7 143.1, 216.2 142.9 Q 216.6 142.6, 216.8 142.1 Q 217.1 141.6, 217.1 141.1 Q 217.1 140.2, 216.6 139.7 Q 216.1 139.2, 215.3 139.2 Q 214.7 139.2, 214.1 139.5 Q 213.6 139.7, 213.1 140.1 Q 213.2 141.7, 213.7 142.4 Q 214.2 143.1, 215.2 143.1 " fill="#191919"/>
<path class="atom-2" d="M 219.9 138.5 L 222.0 136.3 L 219.2 135.7 L 219.6 134.2 L 222.2 135.6 L 221.8 132.7 L 223.4 132.7 L 223.0 135.5 L 225.6 134.3 L 226.1 135.7 L 223.2 136.2 L 225.2 138.4 L 224.0 139.3 L 222.6 136.6 L 221.1 139.3 L 219.9 138.5 " fill="#191919"/>
<path class="atom-3" d="M 171.5 63.1 Q 171.5 59.7, 173.2 57.7 Q 175.0 55.8, 178.2 55.8 Q 181.4 55.8, 183.1 57.7 Q 184.8 59.7, 184.8 63.1 Q 184.8 66.7, 183.1 68.7 Q 181.4 70.7, 178.2 70.7 Q 175.0 70.7, 173.2 68.7 Q 171.5 66.7, 171.5 63.1 M 178.2 69.0 Q 180.4 69.0, 181.6 67.6 Q 182.8 66.1, 182.8 63.1 Q 182.8 60.3, 181.6 58.9 Q 180.4 57.4, 178.2 57.4 Q 176.0 57.4, 174.7 58.8 Q 173.6 60.3, 173.6 63.1 Q 173.6 66.1, 174.7 67.6 Q 176.0 69.0, 178.2 69.0 " fill="#FF0000"/>
<path class="bond-0 atom-0 atom-1" d="M 618.9,100.0 L 603.0,100.0" style="fill:none;fill-rule:evenodd;stroke:#191919;stroke-width:2.0px;stroke-linecap:butt;stroke-linejoin:miter;stroke-opacity:1"/>
<path class="bond-0 atom-0 atom-1" d="M 603.0,100.0 L 587.1,100.0" style="fill:none;fill-rule:evenodd;stroke:#0000FF;stroke-width:2.0px;stroke-linecap:butt;stroke-linejoin:miter;stroke-opacity:1"/>
<path class="bond-1 atom-1 atom-2" d="M 574.7,109.0 L 564.5,126.7" style="fill:none;fill-rule:evenodd;stroke:#0000FF;stroke-width:2.0px;stroke-linecap:butt;stroke-linejoin:miter;stroke-opacity:1"/>
<path class="bond-1 atom-1 atom-2" d="M 564.5,126.7 L 554.2,144.4" style="fill:none;fill-rule:evenodd;stroke:#000000;stroke-width:2.0px;stroke-linecap:butt;stroke-linejoin:miter;stroke-opacity:1"/>
<path class="bond-2 atom-2 atom-3" d="M 554.2,144.4 L 502.9,144.4" style="fill:none;fill-rule:evenodd;stroke:#000000;stroke-width:2.0px;stroke-linecap:butt;stroke-linejoin:miter;stroke-opacity:1"/>
<path class="bond-3 atom-3 atom-4" d="M 502.9,144.4 L 492.7,126.7" style="fill:none;fill-rule:evenodd;stroke:#000000;stroke-width:2.0px;stroke-linecap:butt;stroke-linejoin:miter;stroke-opacity:1"/>
<path class="bond-3 atom-3 atom-4" d="M 492.7,126.7 L 482.4,109.0" style="fill:none;fill-rule:evenodd;stroke:#0000FF;stroke-width:2.0px;stroke-linecap:butt;stroke-linejoin:miter;stroke-opacity:1"/>
<path class="bond-4 atom-4 atom-5" d="M 470.1,100.0 L 450.6,100.0" style="fill:none;fill-rule:evenodd;stroke:#0000FF;stroke-width:2.0px;stroke-linecap:butt;stroke-linejoin:miter;stroke-opacity:1"/>
<path class="bond-4 atom-4 atom-5" d="M 450.6,100.0 L 431.1,100.0" style="fill:none;fill-rule:evenodd;stroke:#191919;stroke-width:2.0px;stroke-linecap:butt;stroke-linejoin:miter;stroke-opacity:1"/>
<path class="bond-5 atom-4 atom-6" d="M 482.4,91.0 L 492.7,73.3" style="fill:none;fill-rule:evenodd;stroke:#0000FF;stroke-width:2.0px;stroke-linecap:butt;stroke-linejoin:miter;stroke-opacity:1"/>
<path class="bond-5 atom-4 atom-6" d="M 492.7,73.3 L 502.9,55.6" style="fill:none;fill-rule:evenodd;stroke:#000000;stroke-width:2.0px;stroke-linecap:butt;stroke-linejoin:miter;stroke-opacity:1"/>
<path class="bond-6 atom-6 atom-7" d="M 502.9,55.6 L 554.2,55.6" style="fill:none;fill-rule:evenodd;stroke:#000000;stroke-width:2.0px;stroke-linecap:butt;stroke-linejoin:miter;stroke-opacity:1"/>
<path class="bond-7 atom-7 atom-1" d="M 554.2,55.6 L 564.5,73.3" style="fill:none;fill-rule:evenodd;stroke:#000000;stroke-width:2.0px;stroke-linecap:butt;stroke-linejoin:miter;stroke-opacity:1"/>
<path class="bond-7 atom-7 atom-1" d="M 564.5,73.3 L 574.7,91.0" style="fill:none;fill-rule:evenodd;stroke:#0000FF;stroke-width:2.0px;stroke-linecap:butt;stroke-linejoin:miter;stroke-opacity:1"/>
<path class="atom-0" d="M 624.1 98.1 Q 624.9 98.1, 625.6 98.4 Q 626.3 98.8, 626.7 99.5 Q 627.1 100.1, 627.1 101.0 Q 627.1 102.0, 626.6 102.7 Q 626.1 103.4, 625.4 103.8 Q 624.6 104.2, 623.7 104.2 Q 622.8 104.2, 622.0 103.8 Q 621.2 103.5, 620.6 102.9 L 621.4 102.1 Q 621.9 102.5, 622.5 102.8 Q 623.1 103.1, 623.7 103.1 Q 624.6 103.1, 625.2 102.5 Q 625.8 102.0, 625.8 101.1 Q 625.8 100.0, 625.2 99.6 Q 624.6 99.1, 623.6 99.1 Q 622.8 99.1, 621.9 99.4 L 621.1 99.1 L 621.6 94.5 L 626.5 94.5 L 626.4 95.6 L 622.7 95.6 L 622.4 98.4 Q 623.3 98.1, 624.1 98.1 " fill="#191919"/>
<path class="atom-0" d="M 628.5 98.4 L 630.6 96.2 L 627.8 95.6 L 628.2 94.2 L 630.8 95.5 L 630.4 92.6 L 632.0 92.6 L 631.5 95.5 L 634.2 94.2 L 634.6 95.6 L 631.8 96.2 L 633.8 98.4 L 632.6 99.3 L 631.1 96.6 L 629.7 99.3 L 628.5 98.4 " fill="#191919"/>
<path class="atom-1" d="M 576.7 92.7 L 581.4 100.4 Q 581.9 101.2, 582.7 102.6 Q 583.4 103.9, 583.5 104.0 L 583.5 92.7 L 585.4 92.7 L 585.4 107.3 L 583.4 107.3 L 578.3 98.9 Q 577.7 97.9, 577.1 96.7 Q 576.4 95.6, 576.3 95.3 L 576.3 107.3 L 574.4 107.3 L 574.4 92.7 L 576.7 92.7 " fill="#0000FF"/>
<path class="atom-4" d="M 474.0 92.7 L 478.8 100.4 Q 479.3 101.2, 480.0 102.6 Q 480.8 103.9, 480.8 104.0 L 480.8 92.7 L 482.8 92.7 L 482.8 107.3 L 480.8 107.3 L 475.7 98.9 Q 475.1 97.9, 474.4 96.7 Q 473.8 95.6, 473.6 95.3 L 473.6 107.3 L 471.7 107.3 L 471.7 92.7 L 474.0 92.7 " fill="#0000FF"/>
<path class="atom-5" d="M 418.8 98.1 Q 419.7 98.1, 420.4 98.4 Q 421.1 98.8, 421.5 99.5 Q 421.9 100.1, 421.9 101.0 Q 421.9 102.0, 421.4 102.7 Q 420.9 103.4, 420.1 103.8 Q 419.3 104.2, 418.4 104.2 Q 417.5 104.2, 416.7 103.8 Q 415.9 103.5, 415.4 102.9 L 416.2 102.1 Q 416.6 102.5, 417.2 102.8 Q 417.8 103.1, 418.5 103.1 Q 419.3 103.1, 419.9 102.5 Q 420.5 102.0, 420.5 101.1 Q 420.5 100.0, 419.9 99.6 Q 419.3 99.1, 418.4 99.1 Q 417.5 99.1, 416.6 99.4 L 415.9 99.1 L 416.3 94.5 L 421.3 94.5 L 421.1 95.6 L 417.4 95.6 L 417.2 98.4 Q 418.0 98.1, 418.8 98.1 " fill="#191919"/>
<path class="atom-5" d="M 423.2 98.4 L 425.3 96.2 L 422.5 95.6 L 422.9 94.2 L 425.5 95.5 L 425.2 92.6 L 426.7 92.6 L 426.3 95.5 L 428.9 94.2 L 429.4 95.6 L 426.5 96.2 L 428.6 98.4 L 427.3 99.3 L 425.9 96.6 L 424.5 99.3 L 423.2 98.4 " fill="#191919"/>
<path class="bond-0 atom-0 atom-1" d="M 939.6,98.0 L 923.7,98.0" style="fill:none;fill-rule:evenodd;stroke:#191919;stroke-width:2.0px;stroke-linecap:butt;stroke-linejoin:miter;stroke-opacity:1"/>
<path class="bond-0 atom-0 atom-1" d="M 923.7,98.0 L 907.9,98.0" style="fill:none;fill-rule:evenodd;stroke:#000000;stroke-width:2.0px;stroke-linecap:butt;stroke-linejoin:miter;stroke-opacity:1"/>
<path class="bond-1 atom-1 atom-2" d="M 907.9,98.0 L 882.2,142.4" style="fill:none;fill-rule:evenodd;stroke:#000000;stroke-width:2.0px;stroke-linecap:butt;stroke-linejoin:miter;stroke-opacity:1"/>
<path class="bond-1 atom-1 atom-2" d="M 895.1,99.5 L 877.2,130.6" style="fill:none;fill-rule:evenodd;stroke:#000000;stroke-width:2.0px;stroke-linecap:butt;stroke-linejoin:miter;stroke-opacity:1"/>
<path class="bond-2 atom-2 atom-3" d="M 882.2,142.4 L 830.9,142.4" style="fill:none;fill-rule:evenodd;stroke:#000000;stroke-width:2.0px;stroke-linecap:butt;stroke-linejoin:miter;stroke-opacity:1"/>
<path class="bond-3 atom-3 atom-4" d="M 830.9,142.4 L 820.6,160.2" style="fill:none;fill-rule:evenodd;stroke:#000000;stroke-width:2.0px;stroke-linecap:butt;stroke-linejoin:miter;stroke-opacity:1"/>
<path class="bond-3 atom-3 atom-4" d="M 820.6,160.2 L 810.4,178.0" style="fill:none;fill-rule:evenodd;stroke:#191919;stroke-width:2.0px;stroke-linecap:butt;stroke-linejoin:miter;stroke-opacity:1"/>
<path class="bond-4 atom-3 atom-5" d="M 830.9,142.4 L 820.6,124.7" style="fill:none;fill-rule:evenodd;stroke:#000000;stroke-width:2.0px;stroke-linecap:butt;stroke-linejoin:miter;stroke-opacity:1"/>
<path class="bond-4 atom-3 atom-5" d="M 820.6,124.7 L 810.4,106.9" style="fill:none;fill-rule:evenodd;stroke:#0000FF;stroke-width:2.0px;stroke-linecap:butt;stroke-linejoin:miter;stroke-opacity:1"/>
<path class="bond-4 atom-3 atom-5" d="M 836.7,132.0 L 829.5,119.5" style="fill:none;fill-rule:evenodd;stroke:#000000;stroke-width:2.0px;stroke-linecap:butt;stroke-linejoin:miter;stroke-opacity:1"/>
<path class="bond-4 atom-3 atom-5" d="M 829.5,119.5 L 822.4,107.1" style="fill:none;fill-rule:evenodd;stroke:#0000FF;stroke-width:2.0px;stroke-linecap:butt;stroke-linejoin:miter;stroke-opacity:1"/>
<path class="bond-5 atom-5 atom-6" d="M 810.4,89.0 L 820.6,71.3" style="fill:none;fill-rule:evenodd;stroke:#0000FF;stroke-width:2.0px;stroke-linecap:butt;stroke-linejoin:miter;stroke-opacity:1"/>
<path class="bond-5 atom-5 atom-6" d="M 820.6,71.3 L 830.9,53.5" style="fill:none;fill-rule:evenodd;stroke:#000000;stroke-width:2.0px;stroke-linecap:butt;stroke-linejoin:miter;stroke-opacity:1"/>
<path class="bond-6 atom-6 atom-7" d="M 830.9,53.5 L 805.2,9.1" style="fill:none;fill-rule:evenodd;stroke:#000000;stroke-width:2.0px;stroke-linecap:butt;stroke-linejoin:miter;stroke-opacity:1"/>
<path class="bond-7 atom-6 atom-8" d="M 830.9,53.5 L 852.9,53.5" style="fill:none;fill-rule:evenodd;stroke:#000000;stroke-width:2.0px;stroke-linecap:butt;stroke-linejoin:miter;stroke-opacity:1"/>
<path class="bond-7 atom-6 atom-8" d="M 852.9,53.5 L 875.0,53.5" style="fill:none;fill-rule:evenodd;stroke:#0000FF;stroke-width:2.0px;stroke-linecap:butt;stroke-linejoin:miter;stroke-opacity:1"/>
<path class="bond-7 atom-6 atom-8" d="M 837.5,63.8 L 852.9,63.8" style="fill:none;fill-rule:evenodd;stroke:#000000;stroke-width:2.0px;stroke-linecap:butt;stroke-linejoin:miter;stroke-opacity:1"/>
<path class="bond-7 atom-6 atom-8" d="M 852.9,63.8 L 868.4,63.8" style="fill:none;fill-rule:evenodd;stroke:#0000FF;stroke-width:2.0px;stroke-linecap:butt;stroke-linejoin:miter;stroke-opacity:1"/>
<path class="bond-8 atom-8 atom-1" d="M 887.4,62.5 L 897.6,80.2" style="fill:none;fill-rule:evenodd;stroke:#0000FF;stroke-width:2.0px;stroke-linecap:butt;stroke-linejoin:miter;stroke-opacity:1"/>
<path class="bond-8 atom-8 atom-1" d="M 897.6,80.2 L 907.9,98.0" style="fill:none;fill-rule:evenodd;stroke:#000000;stroke-width:2.0px;stroke-linecap:butt;stroke-linejoin:miter;stroke-opacity:1"/>
<path class="atom-0" d="M 941.9 100.9 L 944.0 100.9 L 944.0 93.8 L 941.6 94.5 L 941.3 93.7 L 944.3 92.4 L 945.2 92.5 L 945.2 100.9 L 947.1 100.9 L 947.1 102.0 L 941.9 102.0 L 941.9 100.9 " fill="#191919"/>
<path class="atom-0" d="M 953.9 98.7 L 955.1 98.7 L 955.1 99.8 L 953.9 99.8 L 953.9 102.0 L 952.6 102.0 L 952.6 99.8 L 947.7 99.8 L 947.7 99.0 L 951.9 92.4 L 953.9 92.4 L 953.9 98.7 M 949.3 98.7 L 952.6 98.7 L 952.6 93.3 L 949.3 98.7 " fill="#191919"/>
<path class="atom-0" d="M 956.4 96.3 L 958.6 94.2 L 955.7 93.6 L 956.2 92.1 L 958.8 93.5 L 958.4 90.6 L 959.9 90.6 L 959.5 93.4 L 962.2 92.2 L 962.6 93.6 L 959.7 94.1 L 961.8 96.3 L 960.5 97.2 L 959.1 94.5 L 957.7 97.2 L 956.4 96.3 " fill="#191919"/>
<path class="atom-4" d="M 787.9 189.8 L 790.0 189.8 L 790.0 182.7 L 787.7 183.4 L 787.4 182.6 L 790.3 181.3 L 791.3 181.4 L 791.3 189.8 L 793.2 189.8 L 793.2 190.9 L 787.9 190.9 L 787.9 189.8 " fill="#191919"/>
<path class="atom-4" d="M 800.0 187.6 L 801.1 187.6 L 801.1 188.7 L 800.0 188.7 L 800.0 190.9 L 798.7 190.9 L 798.7 188.7 L 793.7 188.7 L 793.7 187.8 L 797.9 181.3 L 800.0 181.3 L 800.0 187.6 M 795.3 187.6 L 798.7 187.6 L 798.7 182.2 L 795.3 187.6 " fill="#191919"/>
<path class="atom-4" d="M 802.5 185.2 L 804.6 183.0 L 801.8 182.5 L 802.2 181.0 L 804.8 182.3 L 804.5 179.5 L 806.0 179.5 L 805.6 182.3 L 808.2 181.1 L 808.7 182.5 L 805.8 183.0 L 807.8 185.2 L 806.6 186.1 L 805.2 183.4 L 803.7 186.1 L 802.5 185.2 " fill="#191919"/>
<path class="atom-5" d="M 802.0 90.7 L 806.8 98.4 Q 807.3 99.2, 808.0 100.5 Q 808.8 101.9, 808.8 102.0 L 808.8 90.7 L 810.7 90.7 L 810.7 105.2 L 808.8 105.2 L 803.6 96.8 Q 803.0 95.8, 802.4 94.7 Q 801.8 93.6, 801.6 93.2 L 801.6 105.2 L 799.7 105.2 L 799.7 90.7 L 802.0 90.7 " fill="#0000FF"/>
<path class="atom-8" d="M 879.0 46.3 L 883.7 54.0 Q 884.2 54.7, 885.0 56.1 Q 885.7 57.5, 885.8 57.6 L 885.8 46.3 L 887.7 46.3 L 887.7 60.8 L 885.7 60.8 L 880.6 52.4 Q 880.0 51.4, 879.4 50.3 Q 878.8 49.1, 878.6 48.8 L 878.6 60.8 L 876.7 60.8 L 876.7 46.3 L 879.0 46.3 " fill="#0000FF"/>
<path class="bond-0 atom-0 atom-1" d="M 1303.0,118.6 L 1288.3,113.9" style="fill:none;fill-rule:evenodd;stroke:#191919;stroke-width:2.0px;stroke-linecap:butt;stroke-linejoin:miter;stroke-opacity:1"/>
<path class="bond-0 atom-0 atom-1" d="M 1288.3,113.9 L 1273.7,109.1" style="fill:none;fill-rule:evenodd;stroke:#000000;stroke-width:2.0px;stroke-linecap:butt;stroke-linejoin:miter;stroke-opacity:1"/>
<path class="bond-1 atom-1 atom-2" d="M 1273.7,109.1 L 1257.9,60.3" style="fill:none;fill-rule:evenodd;stroke:#000000;stroke-width:2.0px;stroke-linecap:butt;stroke-linejoin:miter;stroke-opacity:1"/>
<path class="bond-1 atom-1 atom-2" d="M 1261.6,105.0 L 1250.5,70.8" style="fill:none;fill-rule:evenodd;stroke:#000000;stroke-width:2.0px;stroke-linecap:butt;stroke-linejoin:miter;stroke-opacity:1"/>
<path class="bond-2 atom-2 atom-3" d="M 1257.9,60.3 L 1235.8,60.3" style="fill:none;fill-rule:evenodd;stroke:#000000;stroke-width:2.0px;stroke-linecap:butt;stroke-linejoin:miter;stroke-opacity:1"/>
<path class="bond-2 atom-2 atom-3" d="M 1235.8,60.3 L 1213.7,60.3" style="fill:none;fill-rule:evenodd;stroke:#0000FF;stroke-width:2.0px;stroke-linecap:butt;stroke-linejoin:miter;stroke-opacity:1"/>
<path class="bond-3 atom-3 atom-4" d="M 1203.6,69.3 L 1197.2,89.2" style="fill:none;fill-rule:evenodd;stroke:#0000FF;stroke-width:2.0px;stroke-linecap:butt;stroke-linejoin:miter;stroke-opacity:1"/>
<path class="bond-3 atom-3 atom-4" d="M 1197.2,89.2 L 1190.7,109.1" style="fill:none;fill-rule:evenodd;stroke:#000000;stroke-width:2.0px;stroke-linecap:butt;stroke-linejoin:miter;stroke-opacity:1"/>
<path class="bond-3 atom-3 atom-4" d="M 1211.5,78.4 L 1206.9,92.4" style="fill:none;fill-rule:evenodd;stroke:#0000FF;stroke-width:2.0px;stroke-linecap:butt;stroke-linejoin:miter;stroke-opacity:1"/>
<path class="bond-3 atom-3 atom-4" d="M 1206.9,92.4 L 1202.4,106.3" style="fill:none;fill-rule:evenodd;stroke:#000000;stroke-width:2.0px;stroke-linecap:butt;stroke-linejoin:miter;stroke-opacity:1"/>
<path class="bond-4 atom-4 atom-5" d="M 1190.7,109.1 L 1168.9,116.2" style="fill:none;fill-rule:evenodd;stroke:#000000;stroke-width:2.0px;stroke-linecap:butt;stroke-linejoin:miter;stroke-opacity:1"/>
<path class="bond-4 atom-4 atom-5" d="M 1168.9,116.2 L 1147.0,123.3" style="fill:none;fill-rule:evenodd;stroke:#191919;stroke-width:2.0px;stroke-linecap:butt;stroke-linejoin:miter;stroke-opacity:1"/>
<path class="bond-5 atom-4 atom-6" d="M 1190.7,109.1 L 1208.3,121.9" style="fill:none;fill-rule:evenodd;stroke:#000000;stroke-width:2.0px;stroke-linecap:butt;stroke-linejoin:miter;stroke-opacity:1"/>
<path class="bond-5 atom-4 atom-6" d="M 1208.3,121.9 L 1225.8,134.7" style="fill:none;fill-rule:evenodd;stroke:#CCCC00;stroke-width:2.0px;stroke-linecap:butt;stroke-linejoin:miter;stroke-opacity:1"/>
<path class="bond-6 atom-6 atom-1" d="M 1238.6,134.7 L 1256.1,121.9" style="fill:none;fill-rule:evenodd;stroke:#CCCC00;stroke-width:2.0px;stroke-linecap:butt;stroke-linejoin:miter;stroke-opacity:1"/>
<path class="bond-6 atom-6 atom-1" d="M 1256.1,121.9 L 1273.7,109.1" style="fill:none;fill-rule:evenodd;stroke:#000000;stroke-width:2.0px;stroke-linecap:butt;stroke-linejoin:miter;stroke-opacity:1"/>
<path class="atom-0" d="M 1305.2 128.0 L 1307.3 128.0 L 1307.3 120.8 L 1305.0 121.5 L 1304.7 120.7 L 1307.6 119.4 L 1308.6 119.6 L 1308.6 128.0 L 1310.5 128.0 L 1310.5 129.1 L 1305.2 129.1 L 1305.2 128.0 " fill="#191919"/>
<path class="atom-0" d="M 1317.3 125.8 L 1318.4 125.8 L 1318.4 126.8 L 1317.3 126.8 L 1317.3 129.1 L 1316.0 129.1 L 1316.0 126.8 L 1311.0 126.8 L 1311.0 126.0 L 1315.2 119.5 L 1317.3 119.5 L 1317.3 125.8 M 1312.6 125.8 L 1316.0 125.8 L 1316.0 120.3 L 1312.6 125.8 " fill="#191919"/>
<path class="atom-0" d="M 1319.8 123.4 L 1321.9 121.2 L 1319.1 120.6 L 1319.5 119.2 L 1322.1 120.5 L 1321.7 117.6 L 1323.3 117.6 L 1322.9 120.5 L 1325.5 119.2 L 1326.0 120.6 L 1323.1 121.2 L 1325.1 123.4 L 1323.9 124.3 L 1322.5 121.5 L 1321.0 124.3 L 1319.8 123.4 " fill="#191919"/>
<path class="atom-3" d="M 1203.3 53.1 L 1208.1 60.8 Q 1208.6 61.5, 1209.3 62.9 Q 1210.1 64.3, 1210.1 64.4 L 1210.1 53.1 L 1212.1 53.1 L 1212.1 67.6 L 1210.1 67.6 L 1205.0 59.2 Q 1204.4 58.2, 1203.7 57.1 Q 1203.1 55.9, 1202.9 55.6 L 1202.9 67.6 L 1201.0 67.6 L 1201.0 53.1 L 1203.3 53.1 " fill="#0000FF"/>
<path class="atom-5" d="M 1124.6 128.0 L 1126.7 128.0 L 1126.7 120.8 L 1124.4 121.5 L 1124.0 120.7 L 1127.0 119.4 L 1127.9 119.6 L 1127.9 128.0 L 1129.8 128.0 L 1129.8 129.1 L 1124.6 129.1 L 1124.6 128.0 " fill="#191919"/>
<path class="atom-5" d="M 1136.6 125.8 L 1137.8 125.8 L 1137.8 126.8 L 1136.6 126.8 L 1136.6 129.1 L 1135.4 129.1 L 1135.4 126.8 L 1130.4 126.8 L 1130.4 126.0 L 1134.6 119.5 L 1136.6 119.5 L 1136.6 125.8 M 1132.0 125.8 L 1135.4 125.8 L 1135.4 120.3 L 1132.0 125.8 " fill="#191919"/>
<path class="atom-5" d="M 1139.1 123.4 L 1141.3 121.2 L 1138.4 120.6 L 1138.9 119.2 L 1141.5 120.5 L 1141.1 117.6 L 1142.7 117.6 L 1142.2 120.5 L 1144.9 119.2 L 1145.3 120.6 L 1142.4 121.2 L 1144.5 123.4 L 1143.2 124.3 L 1141.8 121.5 L 1140.4 124.3 L 1139.1 123.4 " fill="#191919"/>
<path class="atom-6" d="M 1228.1 144.3 Q 1228.3 144.3, 1228.9 144.6 Q 1229.6 144.9, 1230.4 145.1 Q 1231.1 145.3, 1231.9 145.3 Q 1233.2 145.3, 1234.0 144.6 Q 1234.8 143.9, 1234.8 142.8 Q 1234.8 142.0, 1234.4 141.5 Q 1234.0 141.0, 1233.4 140.7 Q 1232.8 140.4, 1231.8 140.1 Q 1230.5 139.7, 1229.7 139.4 Q 1228.9 139.0, 1228.4 138.2 Q 1227.8 137.4, 1227.8 136.1 Q 1227.8 134.3, 1229.1 133.2 Q 1230.3 132.1, 1232.8 132.1 Q 1234.5 132.1, 1236.4 132.9 L 1235.9 134.4 Q 1234.2 133.7, 1232.9 133.7 Q 1231.4 133.7, 1230.7 134.3 Q 1229.9 134.9, 1229.9 135.9 Q 1229.9 136.7, 1230.3 137.1 Q 1230.7 137.6, 1231.3 137.9 Q 1231.9 138.1, 1232.9 138.5 Q 1234.2 138.9, 1235.0 139.3 Q 1235.7 139.7, 1236.3 140.5 Q 1236.9 141.3, 1236.9 142.8 Q 1236.9 144.8, 1235.5 145.9 Q 1234.2 146.9, 1231.9 146.9 Q 1230.6 146.9, 1229.7 146.6 Q 1228.7 146.4, 1227.5 145.9 L 1228.1 144.3 " fill="#CCCC00"/>
<path class="bond-0 atom-0 atom-1" d="M 108.6,302.5 L 129.7,293.5" style="fill:none;fill-rule:evenodd;stroke:#191919;stroke-width:2.0px;stroke-linecap:butt;stroke-linejoin:miter;stroke-opacity:1"/>
<path class="bond-0 atom-0 atom-1" d="M 129.7,293.5 L 150.7,284.6" style="fill:none;fill-rule:evenodd;stroke:#000000;stroke-width:2.0px;stroke-linecap:butt;stroke-linejoin:miter;stroke-opacity:1"/>
<path class="bond-1 atom-1 atom-2" d="M 150.7,284.6 L 191.7,315.4" style="fill:none;fill-rule:evenodd;stroke:#000000;stroke-width:2.0px;stroke-linecap:butt;stroke-linejoin:miter;stroke-opacity:1"/>
<path class="bond-2 atom-2 atom-3" d="M 191.7,315.4 L 211.1,307.2" style="fill:none;fill-rule:evenodd;stroke:#000000;stroke-width:2.0px;stroke-linecap:butt;stroke-linejoin:miter;stroke-opacity:1"/>
<path class="bond-2 atom-2 atom-3" d="M 211.1,307.2 L 230.6,298.9" style="fill:none;fill-rule:evenodd;stroke:#FF0000;stroke-width:2.0px;stroke-linecap:butt;stroke-linejoin:miter;stroke-opacity:1"/>
<path class="atom-0" d="M 98.2 305.4 L 99.4 305.4 L 99.4 306.5 L 98.2 306.5 L 98.2 308.7 L 97.0 308.7 L 97.0 306.5 L 92.0 306.5 L 92.0 305.7 L 96.2 299.1 L 98.2 299.1 L 98.2 305.4 M 93.6 305.4 L 97.0 305.4 L 97.0 300.0 L 93.6 305.4 " fill="#191919"/>
<path class="atom-0" d="M 100.7 303.0 L 102.9 300.9 L 100.1 300.3 L 100.5 298.8 L 103.1 300.2 L 102.7 297.3 L 104.3 297.3 L 103.8 300.1 L 106.5 298.9 L 106.9 300.3 L 104.1 300.8 L 106.1 303.0 L 104.9 303.9 L 103.4 301.2 L 102.0 303.9 L 100.7 303.0 " fill="#191919"/>
<path class="atom-3" d="M 232.3 295.4 Q 232.3 291.9, 234.0 289.9 Q 235.7 288.0, 238.9 288.0 Q 242.2 288.0, 243.9 289.9 Q 245.6 291.9, 245.6 295.4 Q 245.6 298.9, 243.9 300.9 Q 242.1 302.9, 238.9 302.9 Q 235.7 302.9, 234.0 300.9 Q 232.3 298.9, 232.3 295.4 M 238.9 301.3 Q 241.1 301.3, 242.3 299.8 Q 243.5 298.3, 243.5 295.4 Q 243.5 292.5, 242.3 291.1 Q 241.1 289.6, 238.9 289.6 Q 236.7 289.6, 235.5 291.1 Q 234.3 292.5, 234.3 295.4 Q 234.3 298.3, 235.5 299.8 Q 236.7 301.3, 238.9 301.3 " fill="#FF0000"/>
<path class="atom-3" d="M 246.6 288.1 L 248.6 288.1 L 248.6 294.3 L 256.0 294.3 L 256.0 288.1 L 258.0 288.1 L 258.0 302.7 L 256.0 302.7 L 256.0 296.0 L 248.6 296.0 L 248.6 302.7 L 246.6 302.7 L 246.6 288.1 " fill="#FF0000"/>
<path class="bond-0 atom-0 atom-1" d="M 520.8,365.8 L 520.8,344.7" style="fill:none;fill-rule:evenodd;stroke:#191919;stroke-width:2.0px;stroke-linecap:butt;stroke-linejoin:miter;stroke-opacity:1"/>
<path class="bond-0 atom-0 atom-1" d="M 520.8,344.7 L 520.8,323.6" style="fill:none;fill-rule:evenodd;stroke:#000000;stroke-width:2.0px;stroke-linecap:butt;stroke-linejoin:miter;stroke-opacity:1"/>
<path class="bond-1 atom-1 atom-2" d="M 520.8,323.6 L 476.4,297.9" style="fill:none;fill-rule:evenodd;stroke:#000000;stroke-width:2.0px;stroke-linecap:butt;stroke-linejoin:miter;stroke-opacity:1"/>
<path class="bond-1 atom-1 atom-2" d="M 519.3,310.8 L 488.2,292.9" style="fill:none;fill-rule:evenodd;stroke:#000000;stroke-width:2.0px;stroke-linecap:butt;stroke-linejoin:miter;stroke-opacity:1"/>
<path class="bond-2 atom-2 atom-3" d="M 476.4,297.9 L 432.0,323.6" style="fill:none;fill-rule:evenodd;stroke:#000000;stroke-width:2.0px;stroke-linecap:butt;stroke-linejoin:miter;stroke-opacity:1"/>
<path class="bond-3 atom-2 atom-4" d="M 476.4,297.9 L 476.4,246.6" style="fill:none;fill-rule:evenodd;stroke:#000000;stroke-width:2.0px;stroke-linecap:butt;stroke-linejoin:miter;stroke-opacity:1"/>
<path class="bond-4 atom-4 atom-5" d="M 476.4,246.6 L 520.8,220.9" style="fill:none;fill-rule:evenodd;stroke:#000000;stroke-width:2.0px;stroke-linecap:butt;stroke-linejoin:miter;stroke-opacity:1"/>
<path class="bond-4 atom-4 atom-5" d="M 488.2,251.6 L 519.3,233.7" style="fill:none;fill-rule:evenodd;stroke:#000000;stroke-width:2.0px;stroke-linecap:butt;stroke-linejoin:miter;stroke-opacity:1"/>
<path class="bond-5 atom-5 atom-6" d="M 520.8,220.9 L 565.3,246.6" style="fill:none;fill-rule:evenodd;stroke:#000000;stroke-width:2.0px;stroke-linecap:butt;stroke-linejoin:miter;stroke-opacity:1"/>
<path class="bond-6 atom-6 atom-7" d="M 565.3,246.6 L 565.3,297.9" style="fill:none;fill-rule:evenodd;stroke:#000000;stroke-width:2.0px;stroke-linecap:butt;stroke-linejoin:miter;stroke-opacity:1"/>
<path class="bond-6 atom-6 atom-7" d="M 555.0,254.3 L 555.0,290.2" style="fill:none;fill-rule:evenodd;stroke:#000000;stroke-width:2.0px;stroke-linecap:butt;stroke-linejoin:miter;stroke-opacity:1"/>
<path class="bond-7 atom-7 atom-8" d="M 565.3,297.9 L 583.9,308.6" style="fill:none;fill-rule:evenodd;stroke:#000000;stroke-width:2.0px;stroke-linecap:butt;stroke-linejoin:miter;stroke-opacity:1"/>
<path class="bond-7 atom-7 atom-8" d="M 583.9,308.6 L 602.4,319.4" style="fill:none;fill-rule:evenodd;stroke:#00CC00;stroke-width:2.0px;stroke-linecap:butt;stroke-linejoin:miter;stroke-opacity:1"/>
<path class="bond-8 atom-7 atom-1" d="M 565.3,297.9 L 520.8,323.6" style="fill:none;fill-rule:evenodd;stroke:#000000;stroke-width:2.0px;stroke-linecap:butt;stroke-linejoin:miter;stroke-opacity:1"/>
<path class="atom-0" d="M 504.2 377.9 L 506.3 377.9 L 506.3 370.7 L 504.0 371.4 L 503.7 370.6 L 506.6 369.3 L 507.6 369.5 L 507.6 377.9 L 509.4 377.9 L 509.4 378.9 L 504.2 378.9 L 504.2 377.9 " fill="#191919"/>
<path class="atom-0" d="M 513.8 373.0 Q 514.6 373.0, 515.3 373.3 Q 515.9 373.7, 516.3 374.4 Q 516.7 375.0, 516.7 375.9 Q 516.7 376.8, 516.2 377.5 Q 515.8 378.2, 515.1 378.6 Q 514.4 379.1, 513.4 379.1 Q 511.7 379.1, 510.9 377.9 Q 510.0 376.7, 510.0 374.4 Q 510.0 371.9, 511.1 370.6 Q 512.1 369.2, 514.2 369.2 Q 514.8 369.2, 515.3 369.4 Q 515.8 369.5, 516.3 369.8 L 515.8 370.7 Q 515.0 370.3, 514.2 370.3 Q 512.8 370.3, 512.1 371.2 Q 511.5 372.1, 511.4 373.9 Q 511.9 373.4, 512.5 373.2 Q 513.1 373.0, 513.8 373.0 M 513.5 377.9 Q 514.0 377.9, 514.4 377.7 Q 514.8 377.4, 515.1 376.9 Q 515.3 376.5, 515.3 375.9 Q 515.3 375.0, 514.8 374.5 Q 514.4 374.0, 513.5 374.0 Q 512.9 374.0, 512.4 374.3 Q 511.8 374.5, 511.4 374.9 Q 511.4 376.5, 511.9 377.2 Q 512.4 377.9, 513.5 377.9 " fill="#191919"/>
<path class="atom-0" d="M 518.1 373.3 L 520.2 371.1 L 517.4 370.5 L 517.8 369.1 L 520.4 370.4 L 520.1 367.5 L 521.6 367.5 L 521.2 370.3 L 523.8 369.1 L 524.3 370.5 L 521.4 371.0 L 523.5 373.2 L 522.2 374.1 L 520.8 371.4 L 519.4 374.1 L 518.1 373.3 " fill="#191919"/>
<path class="atom-8" d="M 604.1 324.1 Q 604.1 320.5, 605.8 318.6 Q 607.5 316.7, 610.7 316.7 Q 613.7 316.7, 615.3 318.8 L 614.0 319.9 Q 612.8 318.3, 610.7 318.3 Q 608.5 318.3, 607.4 319.8 Q 606.2 321.3, 606.2 324.1 Q 606.2 326.9, 607.4 328.4 Q 608.6 329.9, 611.0 329.9 Q 612.6 329.9, 614.4 328.9 L 615.0 330.5 Q 614.2 331.0, 613.1 331.3 Q 611.9 331.5, 610.7 331.5 Q 607.5 331.5, 605.8 329.6 Q 604.1 327.7, 604.1 324.1 " fill="#00CC00"/>
<path class="atom-8" d="M 616.1 315.8 L 618.0 315.8 L 618.0 331.4 L 616.1 331.4 L 616.1 315.8 " fill="#00CC00"/>
<path class="bond-0 atom-0 atom-1" d="M 839.3,319.4 L 855.3,310.1" style="fill:none;fill-rule:evenodd;stroke:#191919;stroke-width:2.0px;stroke-linecap:butt;stroke-linejoin:miter;stroke-opacity:1"/>
<path class="bond-0 atom-0 atom-1" d="M 855.3,310.1 L 871.4,300.9" style="fill:none;fill-rule:evenodd;stroke:#0000FF;stroke-width:2.0px;stroke-linecap:butt;stroke-linejoin:miter;stroke-opacity:1"/>
<path class="bond-1 atom-1 atom-2" d="M 885.8,300.9 L 898.3,308.1" style="fill:none;fill-rule:evenodd;stroke:#0000FF;stroke-width:2.0px;stroke-linecap:butt;stroke-linejoin:miter;stroke-opacity:1"/>
<path class="bond-1 atom-1 atom-2" d="M 898.3,308.1 L 910.7,315.3" style="fill:none;fill-rule:evenodd;stroke:#191919;stroke-width:2.0px;stroke-linecap:butt;stroke-linejoin:miter;stroke-opacity:1"/>
<path class="atom-0" d="M 827.0 320.4 Q 827.9 320.4, 828.6 320.8 Q 829.3 321.1, 829.6 321.8 Q 830.0 322.5, 830.0 323.4 Q 830.0 324.4, 829.6 325.1 Q 829.1 325.8, 828.3 326.2 Q 827.5 326.5, 826.6 326.5 Q 825.7 326.5, 824.9 326.2 Q 824.1 325.9, 823.6 325.3 L 824.4 324.4 Q 824.8 324.9, 825.4 325.2 Q 826.0 325.4, 826.7 325.4 Q 827.5 325.4, 828.1 324.9 Q 828.7 324.4, 828.7 323.4 Q 828.7 322.4, 828.1 321.9 Q 827.5 321.4, 826.6 321.4 Q 825.7 321.4, 824.8 321.8 L 824.1 321.5 L 824.5 316.8 L 829.4 316.8 L 829.3 317.9 L 825.6 317.9 L 825.3 320.8 Q 826.2 320.4, 827.0 320.4 " fill="#191919"/>
<path class="atom-0" d="M 831.4 320.7 L 833.5 318.6 L 830.7 318.0 L 831.1 316.5 L 833.7 317.9 L 833.4 315.0 L 834.9 315.0 L 834.5 317.8 L 837.1 316.6 L 837.6 318.0 L 834.7 318.5 L 836.7 320.7 L 835.5 321.6 L 834.1 318.9 L 832.6 321.6 L 831.4 320.7 " fill="#191919"/>
<path class="atom-1" d="M 875.4 289.4 L 880.1 297.1 Q 880.6 297.9, 881.4 299.3 Q 882.1 300.7, 882.2 300.7 L 882.2 289.4 L 884.1 289.4 L 884.1 304.0 L 882.1 304.0 L 877.0 295.6 Q 876.4 294.6, 875.7 293.4 Q 875.1 292.3, 874.9 292.0 L 874.9 304.0 L 873.1 304.0 L 873.1 289.4 L 875.4 289.4 " fill="#0000FF"/>
<path class="atom-1" d="M 872.9 273.5 L 874.9 273.5 L 874.9 279.6 L 882.3 279.6 L 882.3 273.5 L 884.3 273.5 L 884.3 288.0 L 882.3 288.0 L 882.3 281.3 L 874.9 281.3 L 874.9 288.0 L 872.9 288.0 L 872.9 273.5 " fill="#0000FF"/>
<path class="atom-2" d="M 915.9 320.4 Q 916.8 320.4, 917.4 320.8 Q 918.1 321.1, 918.5 321.8 Q 918.9 322.5, 918.9 323.4 Q 918.9 324.4, 918.4 325.1 Q 918.0 325.8, 917.2 326.2 Q 916.4 326.5, 915.5 326.5 Q 914.6 326.5, 913.8 326.2 Q 913.0 325.9, 912.4 325.3 L 913.2 324.4 Q 913.7 324.9, 914.3 325.2 Q 914.9 325.4, 915.5 325.4 Q 916.4 325.4, 917.0 324.9 Q 917.6 324.4, 917.6 323.4 Q 917.6 322.4, 917.0 321.9 Q 916.4 321.4, 915.5 321.4 Q 914.6 321.4, 913.7 321.8 L 912.9 321.5 L 913.4 316.8 L 918.3 316.8 L 918.2 317.9 L 914.5 317.9 L 914.2 320.8 Q 915.1 320.4, 915.9 320.4 " fill="#191919"/>
<path class="atom-2" d="M 920.3 320.7 L 922.4 318.6 L 919.6 318.0 L 920.0 316.5 L 922.6 317.9 L 922.2 315.0 L 923.8 315.0 L 923.3 317.8 L 926.0 316.6 L 926.4 318.0 L 923.6 318.5 L 925.6 320.7 L 924.4 321.6 L 923.0 318.9 L 921.5 321.6 L 920.3 320.7 " fill="#191919"/>
</svg>