<svg xmlns="http://www.w3.org/2000/svg" xmlns:rdkit="http://www.rdkit.org/xml" xmlns:xlink="http://www.w3.org/1999/xlink" version="1.1" baseProfile="full" xml:space="preserve" width="720px" height="360px" viewBox="0 0 720 360">
<!-- END OF HEADER -->
<rect style="opacity:1.0;fill:#FFFFFF;stroke:none" width="720.0" height="360.0" x="0.0" y="0.0"> </rect>
<path class="bond-0 atom-0 atom-1" d="M 32.5,80.9 L 37.3,87.0" style="fill:none;fill-rule:evenodd;stroke:#191919;stroke-width:2.0px;stroke-linecap:butt;stroke-linejoin:miter;stroke-opacity:1"/>
<path class="bond-0 atom-0 atom-1" d="M 37.3,87.0 L 42.1,93.0" style="fill:none;fill-rule:evenodd;stroke:#0000FF;stroke-width:2.0px;stroke-linecap:butt;stroke-linejoin:miter;stroke-opacity:1"/>
<path class="bond-1 atom-1 atom-2" d="M 49.4,97.1 L 60.5,95.4" style="fill:none;fill-rule:evenodd;stroke:#0000FF;stroke-width:2.0px;stroke-linecap:butt;stroke-linejoin:miter;stroke-opacity:1"/>
<path class="bond-1 atom-1 atom-2" d="M 60.5,95.4 L 71.7,93.8" style="fill:none;fill-rule:evenodd;stroke:#000000;stroke-width:2.0px;stroke-linecap:butt;stroke-linejoin:miter;stroke-opacity:1"/>
<path class="bond-2 atom-2 atom-3" d="M 71.7,93.8 L 81.4,69.4" style="fill:none;fill-rule:evenodd;stroke:#000000;stroke-width:2.0px;stroke-linecap:butt;stroke-linejoin:miter;stroke-opacity:1"/>
<path class="bond-2 atom-2 atom-3" d="M 76.2,93.1 L 84.2,73.0" style="fill:none;fill-rule:evenodd;stroke:#000000;stroke-width:2.0px;stroke-linecap:butt;stroke-linejoin:miter;stroke-opacity:1"/>
<path class="bond-3 atom-3 atom-4" d="M 81.4,69.4 L 107.3,65.6" style="fill:none;fill-rule:evenodd;stroke:#000000;stroke-width:2.0px;stroke-linecap:butt;stroke-linejoin:miter;stroke-opacity:1"/>
<path class="bond-4 atom-4 atom-5" d="M 107.3,65.6 L 123.6,86.2" style="fill:none;fill-rule:evenodd;stroke:#000000;stroke-width:2.0px;stroke-linecap:butt;stroke-linejoin:miter;stroke-opacity:1"/>
<path class="bond-4 atom-4 atom-5" d="M 105.7,69.8 L 119.1,86.9" style="fill:none;fill-rule:evenodd;stroke:#000000;stroke-width:2.0px;stroke-linecap:butt;stroke-linejoin:miter;stroke-opacity:1"/>
<path class="bond-5 atom-5 atom-6" d="M 123.6,86.2 L 134.9,84.6" style="fill:none;fill-rule:evenodd;stroke:#000000;stroke-width:2.0px;stroke-linecap:butt;stroke-linejoin:miter;stroke-opacity:1"/>
<path class="bond-5 atom-5 atom-6" d="M 134.9,84.6 L 146.2,82.9" style="fill:none;fill-rule:evenodd;stroke:#191919;stroke-width:2.0px;stroke-linecap:butt;stroke-linejoin:miter;stroke-opacity:1"/>
<path class="bond-6 atom-5 atom-7" d="M 123.6,86.2 L 113.9,110.6" style="fill:none;fill-rule:evenodd;stroke:#000000;stroke-width:2.0px;stroke-linecap:butt;stroke-linejoin:miter;stroke-opacity:1"/>
<path class="bond-7 atom-7 atom-8" d="M 113.9,110.6 L 87.9,114.4" style="fill:none;fill-rule:evenodd;stroke:#000000;stroke-width:2.0px;stroke-linecap:butt;stroke-linejoin:miter;stroke-opacity:1"/>
<path class="bond-7 atom-7 atom-8" d="M 111.1,107.0 L 89.6,110.2" style="fill:none;fill-rule:evenodd;stroke:#000000;stroke-width:2.0px;stroke-linecap:butt;stroke-linejoin:miter;stroke-opacity:1"/>
<path class="bond-8 atom-8 atom-2" d="M 87.9,114.4 L 71.7,93.8" style="fill:none;fill-rule:evenodd;stroke:#000000;stroke-width:2.0px;stroke-linecap:butt;stroke-linejoin:miter;stroke-opacity:1"/>
<path d="M 80.9,70.6 L 81.4,69.4 L 82.7,69.2" style="fill:none;stroke:#000000;stroke-width:2.0px;stroke-linecap:butt;stroke-linejoin:miter;stroke-opacity:1;"/>
<path d="M 106.0,65.8 L 107.3,65.6 L 108.1,66.6" style="fill:none;stroke:#000000;stroke-width:2.0px;stroke-linecap:butt;stroke-linejoin:miter;stroke-opacity:1;"/>
<path d="M 114.4,109.4 L 113.9,110.6 L 112.6,110.8" style="fill:none;stroke:#000000;stroke-width:2.0px;stroke-linecap:butt;stroke-linejoin:miter;stroke-opacity:1;"/>
<path d="M 89.2,114.2 L 87.9,114.4 L 87.1,113.4" style="fill:none;stroke:#000000;stroke-width:2.0px;stroke-linecap:butt;stroke-linejoin:miter;stroke-opacity:1;"/>
<path class="atom-0" d="M 17.9 80.7 L 16.1 77.7 L 16.1 77.7 L 14.9 77.7 L 14.9 80.7 L 13.9 80.7 L 13.9 73.3 L 16.1 73.3 Q 17.4 73.3, 18.0 73.9 Q 18.7 74.4, 18.7 75.5 Q 18.7 76.3, 18.3 76.8 Q 17.9 77.3, 17.2 77.5 L 19.0 80.7 L 17.9 80.7 M 14.9 76.8 L 16.1 76.8 Q 16.8 76.8, 17.2 76.5 Q 17.6 76.1, 17.6 75.5 Q 17.6 74.8, 17.2 74.5 Q 16.9 74.1, 16.1 74.1 L 14.9 74.1 L 14.9 76.8 " fill="#191919"/>
<path class="atom-0" d="M 20.1 79.9 L 21.7 79.9 L 21.7 74.3 L 19.9 74.9 L 19.7 74.3 L 21.9 73.3 L 22.7 73.4 L 22.7 79.9 L 24.1 79.9 L 24.1 80.7 L 20.1 80.7 L 20.1 79.9 " fill="#191919"/>
<path class="atom-0" d="M 25.0 79.5 L 26.0 79.5 L 26.0 80.6 L 25.0 80.6 L 25.0 79.5 M 25.0 75.9 L 26.0 75.9 L 26.0 76.9 L 25.0 76.9 L 25.0 75.9 " fill="#191919"/>
<path class="atom-0" d="M 27.6 79.9 L 29.2 79.9 L 29.2 74.3 L 27.4 74.9 L 27.2 74.3 L 29.5 73.3 L 30.2 73.4 L 30.2 79.9 L 31.7 79.9 L 31.7 80.7 L 27.6 80.7 L 27.6 79.9 " fill="#191919"/>
<path class="atom-1" d="M 35.6 93.9 L 36.6 93.9 L 36.6 97.0 L 40.4 97.0 L 40.4 93.9 L 41.4 93.9 L 41.4 101.3 L 40.4 101.3 L 40.4 97.9 L 36.6 97.9 L 36.6 101.3 L 35.6 101.3 L 35.6 93.9 " fill="#0000FF"/>
<path class="atom-1" d="M 44.1 93.9 L 46.5 97.8 Q 46.7 98.2, 47.1 98.9 Q 47.5 99.6, 47.5 99.6 L 47.5 93.9 L 48.5 93.9 L 48.5 101.3 L 47.5 101.3 L 44.9 97.0 Q 44.6 96.5, 44.3 95.9 Q 43.9 95.3, 43.8 95.2 L 43.8 101.3 L 42.9 101.3 L 42.9 93.9 L 44.1 93.9 " fill="#0000FF"/>
<path class="atom-6" d="M 151.0 86.2 L 149.2 83.1 L 149.2 83.1 L 148.0 83.1 L 148.0 86.2 L 147.0 86.2 L 147.0 78.7 L 149.2 78.7 Q 150.5 78.7, 151.1 79.3 Q 151.8 79.9, 151.8 80.9 Q 151.8 81.7, 151.4 82.2 Q 151.0 82.8, 150.3 83.0 L 152.1 86.2 L 151.0 86.2 M 148.0 82.3 L 149.2 82.3 Q 149.9 82.3, 150.3 81.9 Q 150.7 81.6, 150.7 80.9 Q 150.7 80.3, 150.3 79.9 Q 149.9 79.6, 149.2 79.6 L 148.0 79.6 L 148.0 82.3 " fill="#191919"/>
<path class="atom-6" d="M 152.8 80.1 Q 153.1 79.4, 153.7 79.1 Q 154.4 78.7, 155.3 78.7 Q 156.4 78.7, 157.0 79.3 Q 157.7 79.9, 157.7 81.0 Q 157.7 82.1, 156.8 83.1 Q 156.0 84.1, 154.4 85.3 L 157.8 85.3 L 157.8 86.2 L 152.8 86.2 L 152.8 85.5 Q 154.2 84.5, 155.0 83.7 Q 155.8 83.0, 156.2 82.3 Q 156.6 81.7, 156.6 81.0 Q 156.6 80.3, 156.3 79.9 Q 155.9 79.5, 155.3 79.5 Q 154.7 79.5, 154.3 79.7 Q 153.9 80.0, 153.6 80.5 L 152.8 80.1 " fill="#191919"/>
<path class="atom-6" d="M 158.8 84.9 L 159.9 84.9 L 159.9 86.0 L 158.8 86.0 L 158.8 84.9 M 158.8 81.3 L 159.9 81.3 L 159.9 82.4 L 158.8 82.4 L 158.8 81.3 " fill="#191919"/>
<path class="atom-6" d="M 161.1 80.1 Q 161.4 79.4, 162.0 79.1 Q 162.7 78.7, 163.6 78.7 Q 164.7 78.7, 165.3 79.3 Q 166.0 79.9, 166.0 81.0 Q 166.0 82.1, 165.1 83.1 Q 164.3 84.1, 162.6 85.3 L 166.1 85.3 L 166.1 86.2 L 161.1 86.2 L 161.1 85.5 Q 162.5 84.5, 163.3 83.7 Q 164.1 83.0, 164.5 82.3 Q 164.9 81.7, 164.9 81.0 Q 164.9 80.3, 164.5 79.9 Q 164.2 79.5, 163.6 79.5 Q 163.0 79.5, 162.6 79.7 Q 162.2 80.0, 161.9 80.5 L 161.1 80.1 " fill="#191919"/>
<path class="bond-0 atom-0 atom-1" d="M 300.5,109.1 L 277.8,96.0" style="fill:none;fill-rule:evenodd;stroke:#000000;stroke-width:2.0px;stroke-linecap:butt;stroke-linejoin:miter;stroke-opacity:1"/>
<path class="bond-1 atom-1 atom-2" d="M 279.7,97.1 L 279.7,85.8" style="fill:none;fill-rule:evenodd;stroke:#000000;stroke-width:2.0px;stroke-linecap:butt;stroke-linejoin:miter;stroke-opacity:1"/>
<path class="bond-1 atom-1 atom-2" d="M 279.7,85.8 L 279.7,74.5" style="fill:none;fill-rule:evenodd;stroke:#FF0000;stroke-width:2.0px;stroke-linecap:butt;stroke-linejoin:miter;stroke-opacity:1"/>
<path class="bond-1 atom-1 atom-2" d="M 275.8,97.1 L 275.8,85.8" style="fill:none;fill-rule:evenodd;stroke:#000000;stroke-width:2.0px;stroke-linecap:butt;stroke-linejoin:miter;stroke-opacity:1"/>
<path class="bond-1 atom-1 atom-2" d="M 275.8,85.8 L 275.8,74.5" style="fill:none;fill-rule:evenodd;stroke:#FF0000;stroke-width:2.0px;stroke-linecap:butt;stroke-linejoin:miter;stroke-opacity:1"/>
<path class="bond-2 atom-1 atom-3" d="M 277.8,96.0 L 267.9,101.6" style="fill:none;fill-rule:evenodd;stroke:#000000;stroke-width:2.0px;stroke-linecap:butt;stroke-linejoin:miter;stroke-opacity:1"/>
<path class="bond-2 atom-1 atom-3" d="M 267.9,101.6 L 258.1,107.3" style="fill:none;fill-rule:evenodd;stroke:#191919;stroke-width:2.0px;stroke-linecap:butt;stroke-linejoin:miter;stroke-opacity:1"/>
<path d="M 278.9,96.6 L 277.8,96.0 L 277.3,96.2" style="fill:none;stroke:#000000;stroke-width:2.0px;stroke-linecap:butt;stroke-linejoin:miter;stroke-opacity:1;"/>
<path class="atom-2" d="M 274.3 69.7 Q 274.3 67.9, 275.2 67.0 Q 276.1 66.0, 277.8 66.0 Q 279.4 66.0, 280.3 67.0 Q 281.2 67.9, 281.2 69.7 Q 281.2 71.5, 280.3 72.6 Q 279.4 73.6, 277.8 73.6 Q 276.1 73.6, 275.2 72.6 Q 274.3 71.5, 274.3 69.7 M 277.8 72.7 Q 278.9 72.7, 279.5 72.0 Q 280.1 71.2, 280.1 69.7 Q 280.1 68.3, 279.5 67.5 Q 278.9 66.8, 277.8 66.8 Q 276.6 66.8, 276.0 67.5 Q 275.4 68.3, 275.4 69.7 Q 275.4 71.2, 276.0 72.0 Q 276.6 72.7, 277.8 72.7 " fill="#FF0000"/>
<path class="atom-3" d="M 243.5 112.8 L 241.7 109.8 L 241.7 109.8 L 240.5 109.8 L 240.5 112.8 L 239.5 112.8 L 239.5 105.4 L 241.7 105.4 Q 243.0 105.4, 243.6 106.0 Q 244.3 106.5, 244.3 107.6 Q 244.3 108.4, 243.9 108.9 Q 243.5 109.4, 242.8 109.6 L 244.6 112.8 L 243.5 112.8 M 240.5 108.9 L 241.7 108.9 Q 242.4 108.9, 242.8 108.6 Q 243.2 108.2, 243.2 107.6 Q 243.2 106.9, 242.8 106.6 Q 242.4 106.2, 241.7 106.2 L 240.5 106.2 L 240.5 108.9 " fill="#191919"/>
<path class="atom-3" d="M 245.7 112.0 L 247.3 112.0 L 247.3 106.4 L 245.5 107.0 L 245.3 106.4 L 247.5 105.3 L 248.3 105.5 L 248.3 112.0 L 249.7 112.0 L 249.7 112.8 L 245.7 112.8 L 245.7 112.0 " fill="#191919"/>
<path class="atom-3" d="M 250.6 111.6 L 251.6 111.6 L 251.6 112.6 L 250.6 112.6 L 250.6 111.6 M 250.6 108.0 L 251.6 108.0 L 251.6 109.0 L 250.6 109.0 L 250.6 108.0 " fill="#191919"/>
<path class="atom-3" d="M 253.2 112.0 L 254.8 112.0 L 254.8 106.4 L 253.0 107.0 L 252.8 106.4 L 255.1 105.3 L 255.8 105.5 L 255.8 112.0 L 257.3 112.0 L 257.3 112.8 L 253.2 112.8 L 253.2 112.0 " fill="#191919"/>
<path class="bond-0 atom-1 atom-0" d="M 443.3,89.4 L 452.6,89.4" style="fill:none;fill-rule:evenodd;stroke:#191919;stroke-width:2.0px;stroke-linecap:butt;stroke-linejoin:miter;stroke-opacity:1"/>
<path class="bond-0 atom-1 atom-0" d="M 452.6,89.4 L 461.9,89.4" style="fill:none;fill-rule:evenodd;stroke:#FF0000;stroke-width:2.0px;stroke-linecap:butt;stroke-linejoin:miter;stroke-opacity:1"/>
<path class="atom-0" d="M 462.8 89.4 Q 462.8 87.6, 463.7 86.6 Q 464.6 85.6, 466.2 85.6 Q 467.9 85.6, 468.7 86.6 Q 469.6 87.6, 469.6 89.4 Q 469.6 91.2, 468.7 92.2 Q 467.8 93.2, 466.2 93.2 Q 464.6 93.2, 463.7 92.2 Q 462.8 91.2, 462.8 89.4 M 466.2 92.4 Q 467.3 92.4, 468.0 91.7 Q 468.6 90.9, 468.6 89.4 Q 468.6 87.9, 468.0 87.2 Q 467.3 86.5, 466.2 86.5 Q 465.1 86.5, 464.5 87.2 Q 463.8 87.9, 463.8 89.4 Q 463.8 90.9, 464.5 91.7 Q 465.1 92.4, 466.2 92.4 " fill="#FF0000"/>
<path class="atom-0" d="M 470.8 85.7 L 471.8 85.7 L 471.8 88.9 L 475.6 88.9 L 475.6 85.7 L 476.6 85.7 L 476.6 93.1 L 475.6 93.1 L 475.6 89.7 L 471.8 89.7 L 471.8 93.1 L 470.8 93.1 L 470.8 85.7 " fill="#FF0000"/>
<path class="atom-1" d="M 427.4 93.1 L 425.6 90.1 L 425.6 90.1 L 424.4 90.1 L 424.4 93.1 L 423.4 93.1 L 423.4 85.7 L 425.6 85.7 Q 426.9 85.7, 427.5 86.3 Q 428.2 86.8, 428.2 87.9 Q 428.2 88.7, 427.8 89.2 Q 427.4 89.7, 426.6 89.9 L 428.5 93.1 L 427.4 93.1 M 424.4 89.2 L 425.6 89.2 Q 426.3 89.2, 426.7 88.9 Q 427.1 88.5, 427.1 87.9 Q 427.1 87.2, 426.7 86.9 Q 426.3 86.5, 425.6 86.5 L 424.4 86.5 L 424.4 89.2 " fill="#191919"/>
<path class="atom-1" d="M 429.2 87.1 Q 429.5 86.4, 430.1 86.0 Q 430.8 85.6, 431.7 85.6 Q 432.8 85.6, 433.4 86.2 Q 434.1 86.8, 434.1 87.9 Q 434.1 89.0, 433.2 90.0 Q 432.4 91.1, 430.8 92.3 L 434.2 92.3 L 434.2 93.1 L 429.2 93.1 L 429.2 92.4 Q 430.6 91.4, 431.4 90.7 Q 432.2 90.0, 432.6 89.3 Q 433.0 88.7, 433.0 88.0 Q 433.0 87.3, 432.7 86.9 Q 432.3 86.5, 431.7 86.5 Q 431.1 86.5, 430.7 86.7 Q 430.3 86.9, 430.0 87.5 L 429.2 87.1 " fill="#191919"/>
<path class="atom-1" d="M 435.2 91.9 L 436.3 91.9 L 436.3 93.0 L 435.2 93.0 L 435.2 91.9 M 435.2 88.3 L 436.3 88.3 L 436.3 89.3 L 435.2 89.3 L 435.2 88.3 " fill="#191919"/>
<path class="atom-1" d="M 437.5 87.1 Q 437.8 86.4, 438.4 86.0 Q 439.1 85.6, 440.0 85.6 Q 441.1 85.6, 441.7 86.2 Q 442.3 86.8, 442.3 87.9 Q 442.3 89.0, 441.5 90.0 Q 440.7 91.1, 439.0 92.3 L 442.5 92.3 L 442.5 93.1 L 437.5 93.1 L 437.5 92.4 Q 438.8 91.4, 439.7 90.7 Q 440.5 90.0, 440.9 89.3 Q 441.3 88.7, 441.3 88.0 Q 441.3 87.3, 440.9 86.9 Q 440.6 86.5, 440.0 86.5 Q 439.4 86.5, 439.0 86.7 Q 438.6 86.9, 438.3 87.5 L 437.5 87.1 " fill="#191919"/>
<path class="bond-0 atom-0 atom-1" d="M 552.2,96.1 L 577.5,89.3" style="fill:none;fill-rule:evenodd;stroke:#000000;stroke-width:2.0px;stroke-linecap:butt;stroke-linejoin:miter;stroke-opacity:1"/>
<path class="bond-1 atom-1 atom-2" d="M 579.1,90.9 L 582.0,80.1" style="fill:none;fill-rule:evenodd;stroke:#000000;stroke-width:2.0px;stroke-linecap:butt;stroke-linejoin:miter;stroke-opacity:1"/>
<path class="bond-1 atom-1 atom-2" d="M 582.0,80.1 L 584.9,69.2" style="fill:none;fill-rule:evenodd;stroke:#FF0000;stroke-width:2.0px;stroke-linecap:butt;stroke-linejoin:miter;stroke-opacity:1"/>
<path class="bond-1 atom-1 atom-2" d="M 575.3,89.9 L 578.2,79.1" style="fill:none;fill-rule:evenodd;stroke:#000000;stroke-width:2.0px;stroke-linecap:butt;stroke-linejoin:miter;stroke-opacity:1"/>
<path class="bond-1 atom-1 atom-2" d="M 578.2,79.1 L 581.1,68.2" style="fill:none;fill-rule:evenodd;stroke:#FF0000;stroke-width:2.0px;stroke-linecap:butt;stroke-linejoin:miter;stroke-opacity:1"/>
<path class="bond-2 atom-1 atom-3" d="M 577.5,89.3 L 584.9,96.8" style="fill:none;fill-rule:evenodd;stroke:#000000;stroke-width:2.0px;stroke-linecap:butt;stroke-linejoin:miter;stroke-opacity:1"/>
<path class="bond-2 atom-1 atom-3" d="M 584.9,96.8 L 592.4,104.2" style="fill:none;fill-rule:evenodd;stroke:#0000FF;stroke-width:2.0px;stroke-linecap:butt;stroke-linejoin:miter;stroke-opacity:1"/>
<path class="bond-3 atom-3 atom-4" d="M 599.7,106.9 L 610.6,104.0" style="fill:none;fill-rule:evenodd;stroke:#0000FF;stroke-width:2.0px;stroke-linecap:butt;stroke-linejoin:miter;stroke-opacity:1"/>
<path class="bond-3 atom-3 atom-4" d="M 610.6,104.0 L 621.4,101.1" style="fill:none;fill-rule:evenodd;stroke:#000000;stroke-width:2.0px;stroke-linecap:butt;stroke-linejoin:miter;stroke-opacity:1"/>
<path class="bond-4 atom-4 atom-5" d="M 621.4,101.1 L 628.2,75.7" style="fill:none;fill-rule:evenodd;stroke:#000000;stroke-width:2.0px;stroke-linecap:butt;stroke-linejoin:miter;stroke-opacity:1"/>
<path class="bond-4 atom-4 atom-5" d="M 625.8,99.9 L 631.4,79.0" style="fill:none;fill-rule:evenodd;stroke:#000000;stroke-width:2.0px;stroke-linecap:butt;stroke-linejoin:miter;stroke-opacity:1"/>
<path class="bond-5 atom-5 atom-6" d="M 628.2,75.7 L 653.6,69.0" style="fill:none;fill-rule:evenodd;stroke:#000000;stroke-width:2.0px;stroke-linecap:butt;stroke-linejoin:miter;stroke-opacity:1"/>
<path class="bond-6 atom-6 atom-7" d="M 653.6,69.0 L 672.1,87.5" style="fill:none;fill-rule:evenodd;stroke:#000000;stroke-width:2.0px;stroke-linecap:butt;stroke-linejoin:miter;stroke-opacity:1"/>
<path class="bond-6 atom-6 atom-7" d="M 652.4,73.3 L 667.7,88.7" style="fill:none;fill-rule:evenodd;stroke:#000000;stroke-width:2.0px;stroke-linecap:butt;stroke-linejoin:miter;stroke-opacity:1"/>
<path class="bond-7 atom-7 atom-8" d="M 672.1,87.5 L 682.6,84.7" style="fill:none;fill-rule:evenodd;stroke:#000000;stroke-width:2.0px;stroke-linecap:butt;stroke-linejoin:miter;stroke-opacity:1"/>
<path class="bond-7 atom-7 atom-8" d="M 682.6,84.7 L 693.2,81.9" style="fill:none;fill-rule:evenodd;stroke:#FF0000;stroke-width:2.0px;stroke-linecap:butt;stroke-linejoin:miter;stroke-opacity:1"/>
<path class="bond-8 atom-7 atom-9" d="M 672.1,87.5 L 665.3,112.9" style="fill:none;fill-rule:evenodd;stroke:#000000;stroke-width:2.0px;stroke-linecap:butt;stroke-linejoin:miter;stroke-opacity:1"/>
<path class="bond-9 atom-9 atom-10" d="M 665.3,112.9 L 640.0,119.7" style="fill:none;fill-rule:evenodd;stroke:#000000;stroke-width:2.0px;stroke-linecap:butt;stroke-linejoin:miter;stroke-opacity:1"/>
<path class="bond-9 atom-9 atom-10" d="M 662.1,109.6 L 641.1,115.3" style="fill:none;fill-rule:evenodd;stroke:#000000;stroke-width:2.0px;stroke-linecap:butt;stroke-linejoin:miter;stroke-opacity:1"/>
<path class="bond-10 atom-10 atom-4" d="M 640.0,119.7 L 621.4,101.1" style="fill:none;fill-rule:evenodd;stroke:#000000;stroke-width:2.0px;stroke-linecap:butt;stroke-linejoin:miter;stroke-opacity:1"/>
<path d="M 576.2,89.7 L 577.5,89.3 L 577.9,89.7" style="fill:none;stroke:#000000;stroke-width:2.0px;stroke-linecap:butt;stroke-linejoin:miter;stroke-opacity:1;"/>
<path d="M 627.9,77.0 L 628.2,75.7 L 629.5,75.4" style="fill:none;stroke:#000000;stroke-width:2.0px;stroke-linecap:butt;stroke-linejoin:miter;stroke-opacity:1;"/>
<path d="M 652.3,69.3 L 653.6,69.0 L 654.5,69.9" style="fill:none;stroke:#000000;stroke-width:2.0px;stroke-linecap:butt;stroke-linejoin:miter;stroke-opacity:1;"/>
<path d="M 665.7,111.6 L 665.3,112.9 L 664.1,113.2" style="fill:none;stroke:#000000;stroke-width:2.0px;stroke-linecap:butt;stroke-linejoin:miter;stroke-opacity:1;"/>
<path d="M 641.2,119.3 L 640.0,119.7 L 639.0,118.7" style="fill:none;stroke:#000000;stroke-width:2.0px;stroke-linecap:butt;stroke-linejoin:miter;stroke-opacity:1;"/>
<path class="atom-2" d="M 580.9 64.0 Q 580.9 62.2, 581.8 61.2 Q 582.6 60.2, 584.3 60.2 Q 585.9 60.2, 586.8 61.2 Q 587.7 62.2, 587.7 64.0 Q 587.7 65.8, 586.8 66.8 Q 585.9 67.9, 584.3 67.9 Q 582.7 67.9, 581.8 66.8 Q 580.9 65.8, 580.9 64.0 M 584.3 67.0 Q 585.4 67.0, 586.0 66.3 Q 586.7 65.5, 586.7 64.0 Q 586.7 62.5, 586.0 61.8 Q 585.4 61.1, 584.3 61.1 Q 583.2 61.1, 582.5 61.8 Q 581.9 62.5, 581.9 64.0 Q 581.9 65.5, 582.5 66.3 Q 583.2 67.0, 584.3 67.0 " fill="#FF0000"/>
<path class="atom-3" d="M 594.4 104.2 L 596.9 108.1 Q 597.1 108.5, 597.5 109.2 Q 597.9 109.9, 597.9 109.9 L 597.9 104.2 L 598.9 104.2 L 598.9 111.6 L 597.9 111.6 L 595.2 107.3 Q 594.9 106.8, 594.6 106.2 Q 594.3 105.6, 594.2 105.5 L 594.2 111.6 L 593.2 111.6 L 593.2 104.2 L 594.4 104.2 " fill="#0000FF"/>
<path class="atom-3" d="M 593.2 112.3 L 594.2 112.3 L 594.2 115.5 L 598.0 115.5 L 598.0 112.3 L 599.0 112.3 L 599.0 119.8 L 598.0 119.8 L 598.0 116.3 L 594.2 116.3 L 594.2 119.8 L 593.2 119.8 L 593.2 112.3 " fill="#0000FF"/>
<path class="atom-8" d="M 694.1 80.7 Q 694.1 79.0, 694.9 78.0 Q 695.8 77.0, 697.5 77.0 Q 699.1 77.0, 700.0 78.0 Q 700.9 79.0, 700.9 80.7 Q 700.9 82.5, 700.0 83.6 Q 699.1 84.6, 697.5 84.6 Q 695.8 84.6, 694.9 83.6 Q 694.1 82.6, 694.1 80.7 M 697.5 83.8 Q 698.6 83.8, 699.2 83.0 Q 699.8 82.2, 699.8 80.7 Q 699.8 79.3, 699.2 78.5 Q 698.6 77.8, 697.5 77.8 Q 696.3 77.8, 695.7 78.5 Q 695.1 79.3, 695.1 80.7 Q 695.1 82.2, 695.7 83.0 Q 696.3 83.8, 697.5 83.8 " fill="#FF0000"/>
<path class="atom-8" d="M 702.0 77.0 L 703.0 77.0 L 703.0 80.2 L 706.8 80.2 L 706.8 77.0 L 707.8 77.0 L 707.8 84.5 L 706.8 84.5 L 706.8 81.0 L 703.0 81.0 L 703.0 84.5 L 702.0 84.5 L 702.0 77.0 " fill="#FF0000"/>
<path class="bond-0 atom-0 atom-1" d="M 32.5,260.9 L 37.3,267.0" style="fill:none;fill-rule:evenodd;stroke:#191919;stroke-width:2.0px;stroke-linecap:butt;stroke-linejoin:miter;stroke-opacity:1"/>
<path class="bond-0 atom-0 atom-1" d="M 37.3,267.0 L 42.1,273.0" style="fill:none;fill-rule:evenodd;stroke:#0000FF;stroke-width:2.0px;stroke-linecap:butt;stroke-linejoin:miter;stroke-opacity:1"/>
<path class="bond-1 atom-1 atom-2" d="M 49.4,277.1 L 60.5,275.4" style="fill:none;fill-rule:evenodd;stroke:#0000FF;stroke-width:2.0px;stroke-linecap:butt;stroke-linejoin:miter;stroke-opacity:1"/>
<path class="bond-1 atom-1 atom-2" d="M 60.5,275.4 L 71.7,273.8" style="fill:none;fill-rule:evenodd;stroke:#000000;stroke-width:2.0px;stroke-linecap:butt;stroke-linejoin:miter;stroke-opacity:1"/>
<path class="bond-2 atom-2 atom-3" d="M 71.7,273.8 L 81.4,249.4" style="fill:none;fill-rule:evenodd;stroke:#000000;stroke-width:2.0px;stroke-linecap:butt;stroke-linejoin:miter;stroke-opacity:1"/>
<path class="bond-2 atom-2 atom-3" d="M 76.2,273.1 L 84.2,253.0" style="fill:none;fill-rule:evenodd;stroke:#000000;stroke-width:2.0px;stroke-linecap:butt;stroke-linejoin:miter;stroke-opacity:1"/>
<path class="bond-3 atom-3 atom-4" d="M 81.4,249.4 L 107.3,245.6" style="fill:none;fill-rule:evenodd;stroke:#000000;stroke-width:2.0px;stroke-linecap:butt;stroke-linejoin:miter;stroke-opacity:1"/>
<path class="bond-4 atom-4 atom-5" d="M 107.3,245.6 L 123.6,266.2" style="fill:none;fill-rule:evenodd;stroke:#000000;stroke-width:2.0px;stroke-linecap:butt;stroke-linejoin:miter;stroke-opacity:1"/>
<path class="bond-4 atom-4 atom-5" d="M 105.7,249.8 L 119.1,266.9" style="fill:none;fill-rule:evenodd;stroke:#000000;stroke-width:2.0px;stroke-linecap:butt;stroke-linejoin:miter;stroke-opacity:1"/>
<path class="bond-5 atom-5 atom-6" d="M 123.6,266.2 L 134.9,264.6" style="fill:none;fill-rule:evenodd;stroke:#000000;stroke-width:2.0px;stroke-linecap:butt;stroke-linejoin:miter;stroke-opacity:1"/>
<path class="bond-5 atom-5 atom-6" d="M 134.9,264.6 L 146.2,262.9" style="fill:none;fill-rule:evenodd;stroke:#191919;stroke-width:2.0px;stroke-linecap:butt;stroke-linejoin:miter;stroke-opacity:1"/>
<path class="bond-6 atom-5 atom-7" d="M 123.6,266.2 L 113.9,290.6" style="fill:none;fill-rule:evenodd;stroke:#000000;stroke-width:2.0px;stroke-linecap:butt;stroke-linejoin:miter;stroke-opacity:1"/>
<path class="bond-7 atom-7 atom-8" d="M 113.9,290.6 L 87.9,294.4" style="fill:none;fill-rule:evenodd;stroke:#000000;stroke-width:2.0px;stroke-linecap:butt;stroke-linejoin:miter;stroke-opacity:1"/>
<path class="bond-7 atom-7 atom-8" d="M 111.1,287.0 L 89.6,290.2" style="fill:none;fill-rule:evenodd;stroke:#000000;stroke-width:2.0px;stroke-linecap:butt;stroke-linejoin:miter;stroke-opacity:1"/>
<path class="bond-8 atom-8 atom-2" d="M 87.9,294.4 L 71.7,273.8" style="fill:none;fill-rule:evenodd;stroke:#000000;stroke-width:2.0px;stroke-linecap:butt;stroke-linejoin:miter;stroke-opacity:1"/>
<path d="M 80.9,250.6 L 81.4,249.4 L 82.7,249.2" style="fill:none;stroke:#000000;stroke-width:2.0px;stroke-linecap:butt;stroke-linejoin:miter;stroke-opacity:1;"/>
<path d="M 106.0,245.8 L 107.3,245.6 L 108.1,246.6" style="fill:none;stroke:#000000;stroke-width:2.0px;stroke-linecap:butt;stroke-linejoin:miter;stroke-opacity:1;"/>
<path d="M 114.4,289.4 L 113.9,290.6 L 112.6,290.8" style="fill:none;stroke:#000000;stroke-width:2.0px;stroke-linecap:butt;stroke-linejoin:miter;stroke-opacity:1;"/>
<path d="M 89.2,294.2 L 87.9,294.4 L 87.1,293.4" style="fill:none;stroke:#000000;stroke-width:2.0px;stroke-linecap:butt;stroke-linejoin:miter;stroke-opacity:1;"/>
<path class="atom-0" d="M 17.9 260.7 L 16.1 257.7 L 16.1 257.7 L 14.9 257.7 L 14.9 260.7 L 13.9 260.7 L 13.9 253.3 L 16.1 253.3 Q 17.4 253.3, 18.0 253.9 Q 18.7 254.4, 18.7 255.5 Q 18.7 256.3, 18.3 256.8 Q 17.9 257.3, 17.2 257.5 L 19.0 260.7 L 17.9 260.7 M 14.9 256.8 L 16.1 256.8 Q 16.8 256.8, 17.2 256.5 Q 17.6 256.1, 17.6 255.5 Q 17.6 254.8, 17.2 254.5 Q 16.9 254.1, 16.1 254.1 L 14.9 254.1 L 14.9 256.8 " fill="#191919"/>
<path class="atom-0" d="M 20.1 259.9 L 21.7 259.9 L 21.7 254.3 L 19.9 254.9 L 19.7 254.3 L 21.9 253.3 L 22.7 253.4 L 22.7 259.9 L 24.1 259.9 L 24.1 260.7 L 20.1 260.7 L 20.1 259.9 " fill="#191919"/>
<path class="atom-0" d="M 25.0 259.5 L 26.0 259.5 L 26.0 260.6 L 25.0 260.6 L 25.0 259.5 M 25.0 255.9 L 26.0 255.9 L 26.0 256.9 L 25.0 256.9 L 25.0 255.9 " fill="#191919"/>
<path class="atom-0" d="M 27.6 259.9 L 29.2 259.9 L 29.2 254.3 L 27.4 254.9 L 27.2 254.3 L 29.5 253.3 L 30.2 253.4 L 30.2 259.9 L 31.7 259.9 L 31.7 260.7 L 27.6 260.7 L 27.6 259.9 " fill="#191919"/>
<path class="atom-1" d="M 35.6 273.9 L 36.6 273.9 L 36.6 277.0 L 40.4 277.0 L 40.4 273.9 L 41.4 273.9 L 41.4 281.3 L 40.4 281.3 L 40.4 277.9 L 36.6 277.9 L 36.6 281.3 L 35.6 281.3 L 35.6 273.9 " fill="#0000FF"/>
<path class="atom-1" d="M 44.1 273.9 L 46.5 277.8 Q 46.7 278.2, 47.1 278.9 Q 47.5 279.6, 47.5 279.6 L 47.5 273.9 L 48.5 273.9 L 48.5 281.3 L 47.5 281.3 L 44.9 277.0 Q 44.6 276.5, 44.3 275.9 Q 43.9 275.3, 43.8 275.2 L 43.8 281.3 L 42.9 281.3 L 42.9 273.9 L 44.1 273.9 " fill="#0000FF"/>
<path class="atom-6" d="M 151.0 266.2 L 149.2 263.1 L 149.2 263.1 L 148.0 263.1 L 148.0 266.2 L 147.0 266.2 L 147.0 258.7 L 149.2 258.7 Q 150.5 258.7, 151.1 259.3 Q 151.8 259.9, 151.8 260.9 Q 151.8 261.7, 151.4 262.2 Q 151.0 262.8, 150.3 263.0 L 152.1 266.2 L 151.0 266.2 M 148.0 262.3 L 149.2 262.3 Q 149.9 262.3, 150.3 261.9 Q 150.7 261.6, 150.7 260.9 Q 150.7 260.3, 150.3 259.9 Q 149.9 259.6, 149.2 259.6 L 148.0 259.6 L 148.0 262.3 " fill="#191919"/>
<path class="atom-6" d="M 152.8 260.1 Q 153.1 259.4, 153.7 259.1 Q 154.4 258.7, 155.3 258.7 Q 156.4 258.7, 157.0 259.3 Q 157.7 259.9, 157.7 261.0 Q 157.7 262.1, 156.8 263.1 Q 156.0 264.1, 154.4 265.3 L 157.8 265.3 L 157.8 266.2 L 152.8 266.2 L 152.8 265.5 Q 154.2 264.5, 155.0 263.7 Q 155.8 263.0, 156.2 262.3 Q 156.6 261.7, 156.6 261.0 Q 156.6 260.3, 156.3 259.9 Q 155.9 259.5, 155.3 259.5 Q 154.7 259.5, 154.3 259.7 Q 153.9 260.0, 153.6 260.5 L 152.8 260.1 " fill="#191919"/>
<path class="atom-6" d="M 158.8 264.9 L 159.9 264.9 L 159.9 266.0 L 158.8 266.0 L 158.8 264.9 M 158.8 261.3 L 159.9 261.3 L 159.9 262.4 L 158.8 262.4 L 158.8 261.3 " fill="#191919"/>
<path class="atom-6" d="M 161.1 260.1 Q 161.4 259.4, 162.0 259.1 Q 162.7 258.7, 163.6 258.7 Q 164.7 258.7, 165.3 259.3 Q 166.0 259.9, 166.0 261.0 Q 166.0 262.1, 165.1 263.1 Q 164.3 264.1, 162.6 265.3 L 166.1 265.3 L 166.1 266.2 L 161.1 266.2 L 161.1 265.5 Q 162.5 264.5, 163.3 263.7 Q 164.1 263.0, 164.5 262.3 Q 164.9 261.7, 164.9 261.0 Q 164.9 260.3, 164.5 259.9 Q 164.2 259.5, 163.6 259.5 Q 163.0 259.5, 162.6 259.7 Q 162.2 260.0, 161.9 260.5 L 161.1 260.1 " fill="#191919"/>
<path class="bond-0 atom-0 atom-1" d="M 300.5,274.1 L 277.8,261.0" style="fill:none;fill-rule:evenodd;stroke:#000000;stroke-width:2.0px;stroke-linecap:butt;stroke-linejoin:miter;stroke-opacity:1"/>
<path class="bond-1 atom-1 atom-2" d="M 277.8,261.0 L 267.9,266.6" style="fill:none;fill-rule:evenodd;stroke:#000000;stroke-width:2.0px;stroke-linecap:butt;stroke-linejoin:miter;stroke-opacity:1"/>
<path class="bond-1 atom-1 atom-2" d="M 267.9,266.6 L 258.1,272.3" style="fill:none;fill-rule:evenodd;stroke:#191919;stroke-width:2.0px;stroke-linecap:butt;stroke-linejoin:miter;stroke-opacity:1"/>
<path d="M 278.9,261.6 L 277.8,261.0 L 277.3,261.2" style="fill:none;stroke:#000000;stroke-width:2.0px;stroke-linecap:butt;stroke-linejoin:miter;stroke-opacity:1;"/>
<path class="atom-2" d="M 243.5 277.8 L 241.7 274.8 L 241.7 274.8 L 240.5 274.8 L 240.5 277.8 L 239.5 277.8 L 239.5 270.4 L 241.7 270.4 Q 243.0 270.4, 243.6 271.0 Q 244.3 271.5, 244.3 272.6 Q 244.3 273.4, 243.9 273.9 Q 243.5 274.4, 242.8 274.6 L 244.6 277.8 L 243.5 277.8 M 240.5 273.9 L 241.7 273.9 Q 242.4 273.9, 242.8 273.6 Q 243.2 273.2, 243.2 272.6 Q 243.2 271.9, 242.8 271.6 Q 242.4 271.2, 241.7 271.2 L 240.5 271.2 L 240.5 273.9 " fill="#191919"/>
<path class="atom-2" d="M 245.7 277.0 L 247.3 277.0 L 247.3 271.4 L 245.5 272.0 L 245.3 271.4 L 247.5 270.3 L 248.3 270.5 L 248.3 277.0 L 249.7 277.0 L 249.7 277.8 L 245.7 277.8 L 245.7 277.0 " fill="#191919"/>
<path class="atom-2" d="M 250.6 276.6 L 251.6 276.6 L 251.6 277.6 L 250.6 277.6 L 250.6 276.6 M 250.6 273.0 L 251.6 273.0 L 251.6 274.0 L 250.6 274.0 L 250.6 273.0 " fill="#191919"/>
<path class="atom-2" d="M 253.2 277.0 L 254.8 277.0 L 254.8 271.4 L 253.0 272.0 L 252.8 271.4 L 255.1 270.3 L 255.8 270.5 L 255.8 277.0 L 257.3 277.0 L 257.3 277.8 L 253.2 277.8 L 253.2 277.0 " fill="#191919"/>
<path class="bond-0 atom-0 atom-1" d="M 462.6,265.3 L 471.8,270.6" style="fill:none;fill-rule:evenodd;stroke:#FF0000;stroke-width:2.0px;stroke-linecap:butt;stroke-linejoin:miter;stroke-opacity:1"/>
<path class="bond-0 atom-0 atom-1" d="M 471.8,270.6 L 481.0,275.9" style="fill:none;fill-rule:evenodd;stroke:#000000;stroke-width:2.0px;stroke-linecap:butt;stroke-linejoin:miter;stroke-opacity:1"/>
<path class="bond-1 atom-2 atom-0" d="M 438.9,274.0 L 446.5,269.6" style="fill:none;fill-rule:evenodd;stroke:#191919;stroke-width:2.0px;stroke-linecap:butt;stroke-linejoin:miter;stroke-opacity:1"/>
<path class="bond-1 atom-2 atom-0" d="M 446.5,269.6 L 454.0,265.3" style="fill:none;fill-rule:evenodd;stroke:#FF0000;stroke-width:2.0px;stroke-linecap:butt;stroke-linejoin:miter;stroke-opacity:1"/>
<path class="atom-0" d="M 454.9 262.8 Q 454.9 261.1, 455.7 260.1 Q 456.6 259.1, 458.3 259.1 Q 459.9 259.1, 460.8 260.1 Q 461.7 261.1, 461.7 262.8 Q 461.7 264.6, 460.8 265.7 Q 459.9 266.7, 458.3 266.7 Q 456.6 266.7, 455.7 265.7 Q 454.9 264.7, 454.9 262.8 M 458.3 265.8 Q 459.4 265.8, 460.0 265.1 Q 460.6 264.3, 460.6 262.8 Q 460.6 261.4, 460.0 260.6 Q 459.4 259.9, 458.3 259.9 Q 457.1 259.9, 456.5 260.6 Q 455.9 261.4, 455.9 262.8 Q 455.9 264.3, 456.5 265.1 Q 457.1 265.8, 458.3 265.8 " fill="#FF0000"/>
<path class="atom-2" d="M 423.0 279.7 L 421.2 276.6 L 421.2 276.6 L 420.0 276.6 L 420.0 279.7 L 419.0 279.7 L 419.0 272.3 L 421.2 272.3 Q 422.5 272.3, 423.1 272.8 Q 423.7 273.4, 423.7 274.4 Q 423.7 275.2, 423.3 275.8 Q 423.0 276.3, 422.2 276.5 L 424.1 279.7 L 423.0 279.7 M 420.0 275.8 L 421.2 275.8 Q 421.9 275.8, 422.3 275.5 Q 422.7 275.1, 422.7 274.4 Q 422.7 273.8, 422.3 273.4 Q 421.9 273.1, 421.2 273.1 L 420.0 273.1 L 420.0 275.8 " fill="#191919"/>
<path class="atom-2" d="M 424.8 273.7 Q 425.1 273.0, 425.7 272.6 Q 426.4 272.2, 427.3 272.2 Q 428.4 272.2, 429.0 272.8 Q 429.6 273.4, 429.6 274.5 Q 429.6 275.6, 428.8 276.6 Q 428.0 277.6, 426.3 278.9 L 429.8 278.9 L 429.8 279.7 L 424.8 279.7 L 424.8 279.0 Q 426.1 278.0, 427.0 277.3 Q 427.8 276.5, 428.2 275.9 Q 428.6 275.2, 428.6 274.5 Q 428.6 273.8, 428.2 273.4 Q 427.9 273.0, 427.3 273.0 Q 426.7 273.0, 426.3 273.3 Q 425.9 273.5, 425.6 274.0 L 424.8 273.7 " fill="#191919"/>
<path class="atom-2" d="M 430.8 278.5 L 431.9 278.5 L 431.9 279.5 L 430.8 279.5 L 430.8 278.5 M 430.8 274.9 L 431.9 274.9 L 431.9 275.9 L 430.8 275.9 L 430.8 274.9 " fill="#191919"/>
<path class="atom-2" d="M 433.1 273.7 Q 433.3 273.0, 434.0 272.6 Q 434.6 272.2, 435.5 272.2 Q 436.7 272.2, 437.3 272.8 Q 437.9 273.4, 437.9 274.5 Q 437.9 275.6, 437.1 276.6 Q 436.3 277.6, 434.6 278.9 L 438.1 278.9 L 438.1 279.7 L 433.0 279.7 L 433.0 279.0 Q 434.4 278.0, 435.2 277.3 Q 436.1 276.5, 436.5 275.9 Q 436.9 275.2, 436.9 274.5 Q 436.9 273.8, 436.5 273.4 Q 436.2 273.0, 435.5 273.0 Q 434.9 273.0, 434.5 273.3 Q 434.1 273.5, 433.9 274.0 L 433.1 273.7 " fill="#191919"/>
<path class="bond-0 atom-0 atom-1" d="M 548.2,268.3 L 573.8,262.4" style="fill:none;fill-rule:evenodd;stroke:#000000;stroke-width:2.0px;stroke-linecap:butt;stroke-linejoin:miter;stroke-opacity:1"/>
<path class="bond-1 atom-1 atom-2" d="M 573.8,262.4 L 580.9,270.1" style="fill:none;fill-rule:evenodd;stroke:#000000;stroke-width:2.0px;stroke-linecap:butt;stroke-linejoin:miter;stroke-opacity:1"/>
<path class="bond-1 atom-1 atom-2" d="M 580.9,270.1 L 587.9,277.7" style="fill:none;fill-rule:evenodd;stroke:#0000FF;stroke-width:2.0px;stroke-linecap:butt;stroke-linejoin:miter;stroke-opacity:1"/>
<path class="bond-2 atom-2 atom-3" d="M 595.3,280.8 L 606.3,278.3" style="fill:none;fill-rule:evenodd;stroke:#0000FF;stroke-width:2.0px;stroke-linecap:butt;stroke-linejoin:miter;stroke-opacity:1"/>
<path class="bond-2 atom-2 atom-3" d="M 606.3,278.3 L 617.2,275.8" style="fill:none;fill-rule:evenodd;stroke:#000000;stroke-width:2.0px;stroke-linecap:butt;stroke-linejoin:miter;stroke-opacity:1"/>
<path class="bond-3 atom-3 atom-4" d="M 617.2,275.8 L 624.9,250.8" style="fill:none;fill-rule:evenodd;stroke:#000000;stroke-width:2.0px;stroke-linecap:butt;stroke-linejoin:miter;stroke-opacity:1"/>
<path class="bond-3 atom-3 atom-4" d="M 621.6,274.8 L 628.0,254.1" style="fill:none;fill-rule:evenodd;stroke:#000000;stroke-width:2.0px;stroke-linecap:butt;stroke-linejoin:miter;stroke-opacity:1"/>
<path class="bond-4 atom-4 atom-5" d="M 624.9,250.8 L 650.5,244.9" style="fill:none;fill-rule:evenodd;stroke:#000000;stroke-width:2.0px;stroke-linecap:butt;stroke-linejoin:miter;stroke-opacity:1"/>
<path class="bond-5 atom-5 atom-6" d="M 650.5,244.9 L 668.4,264.2" style="fill:none;fill-rule:evenodd;stroke:#000000;stroke-width:2.0px;stroke-linecap:butt;stroke-linejoin:miter;stroke-opacity:1"/>
<path class="bond-5 atom-5 atom-6" d="M 649.2,249.3 L 664.0,265.2" style="fill:none;fill-rule:evenodd;stroke:#000000;stroke-width:2.0px;stroke-linecap:butt;stroke-linejoin:miter;stroke-opacity:1"/>
<path class="bond-6 atom-6 atom-7" d="M 668.4,264.2 L 679.0,261.7" style="fill:none;fill-rule:evenodd;stroke:#000000;stroke-width:2.0px;stroke-linecap:butt;stroke-linejoin:miter;stroke-opacity:1"/>
<path class="bond-6 atom-6 atom-7" d="M 679.0,261.7 L 689.7,259.3" style="fill:none;fill-rule:evenodd;stroke:#FF0000;stroke-width:2.0px;stroke-linecap:butt;stroke-linejoin:miter;stroke-opacity:1"/>
<path class="bond-7 atom-7 atom-8" d="M 698.2,262.9 L 705.0,270.3" style="fill:none;fill-rule:evenodd;stroke:#FF0000;stroke-width:2.0px;stroke-linecap:butt;stroke-linejoin:miter;stroke-opacity:1"/>
<path class="bond-7 atom-7 atom-8" d="M 705.0,270.3 L 711.8,277.6" style="fill:none;fill-rule:evenodd;stroke:#000000;stroke-width:2.0px;stroke-linecap:butt;stroke-linejoin:miter;stroke-opacity:1"/>
<path class="bond-8 atom-6 atom-9" d="M 668.4,264.2 L 660.6,289.2" style="fill:none;fill-rule:evenodd;stroke:#000000;stroke-width:2.0px;stroke-linecap:butt;stroke-linejoin:miter;stroke-opacity:1"/>
<path class="bond-9 atom-9 atom-10" d="M 660.6,289.2 L 635.1,295.1" style="fill:none;fill-rule:evenodd;stroke:#000000;stroke-width:2.0px;stroke-linecap:butt;stroke-linejoin:miter;stroke-opacity:1"/>
<path class="bond-9 atom-9 atom-10" d="M 657.6,285.9 L 636.4,290.7" style="fill:none;fill-rule:evenodd;stroke:#000000;stroke-width:2.0px;stroke-linecap:butt;stroke-linejoin:miter;stroke-opacity:1"/>
<path class="bond-10 atom-10 atom-3" d="M 635.1,295.1 L 617.2,275.8" style="fill:none;fill-rule:evenodd;stroke:#000000;stroke-width:2.0px;stroke-linecap:butt;stroke-linejoin:miter;stroke-opacity:1"/>
<path d="M 572.5,262.7 L 573.8,262.4 L 574.1,262.8" style="fill:none;stroke:#000000;stroke-width:2.0px;stroke-linecap:butt;stroke-linejoin:miter;stroke-opacity:1;"/>
<path d="M 624.6,252.0 L 624.9,250.8 L 626.2,250.5" style="fill:none;stroke:#000000;stroke-width:2.0px;stroke-linecap:butt;stroke-linejoin:miter;stroke-opacity:1;"/>
<path d="M 649.3,245.2 L 650.5,244.9 L 651.4,245.9" style="fill:none;stroke:#000000;stroke-width:2.0px;stroke-linecap:butt;stroke-linejoin:miter;stroke-opacity:1;"/>
<path d="M 661.0,288.0 L 660.6,289.2 L 659.4,289.5" style="fill:none;stroke:#000000;stroke-width:2.0px;stroke-linecap:butt;stroke-linejoin:miter;stroke-opacity:1;"/>
<path d="M 636.3,294.8 L 635.1,295.1 L 634.2,294.1" style="fill:none;stroke:#000000;stroke-width:2.0px;stroke-linecap:butt;stroke-linejoin:miter;stroke-opacity:1;"/>
<path class="atom-2" d="M 590.0 278.0 L 592.4 281.9 Q 592.7 282.3, 593.0 283.0 Q 593.4 283.7, 593.4 283.7 L 593.4 278.0 L 594.4 278.0 L 594.4 285.4 L 593.4 285.4 L 590.8 281.1 Q 590.5 280.6, 590.2 280.0 Q 589.9 279.4, 589.8 279.2 L 589.8 285.4 L 588.8 285.4 L 588.8 278.0 L 590.0 278.0 " fill="#0000FF"/>
<path class="atom-2" d="M 588.7 286.1 L 589.7 286.1 L 589.7 289.3 L 593.5 289.3 L 593.5 286.1 L 594.5 286.1 L 594.5 293.6 L 593.5 293.6 L 593.5 290.1 L 589.7 290.1 L 589.7 293.6 L 588.7 293.6 L 588.7 286.1 " fill="#0000FF"/>
<path class="atom-7" d="M 690.6 258.4 Q 690.6 256.6, 691.4 255.6 Q 692.3 254.6, 694.0 254.6 Q 695.6 254.6, 696.5 255.6 Q 697.4 256.6, 697.4 258.4 Q 697.4 260.2, 696.5 261.2 Q 695.6 262.2, 694.0 262.2 Q 692.3 262.2, 691.4 261.2 Q 690.6 260.2, 690.6 258.4 M 694.0 261.4 Q 695.1 261.4, 695.7 260.6 Q 696.3 259.8, 696.3 258.4 Q 696.3 256.9, 695.7 256.2 Q 695.1 255.4, 694.0 255.4 Q 692.8 255.4, 692.2 256.1 Q 691.6 256.9, 691.6 258.4 Q 691.6 259.9, 692.2 260.6 Q 692.8 261.4, 694.0 261.4 " fill="#FF0000"/>
</svg>